<svg width="65" height="64" viewBox="0 0 65 64" fill="none" xmlns="http://www.w3.org/2000/svg">
<g id="bitcoin_951641 1" clip-path="url(#clip0_74_481)">
<g id="Group">
<g id="Group_2">
<path id="Vector" d="M51.0807 18.5806C51.0807 8.33548 42.7452 0 32.5001 0C22.2549 0 13.9194 8.33548 13.9194 18.5806V19.8565L24.0686 40.1548C21.0296 42.6178 19.0807 46.3742 19.0807 50.5806C19.0807 57.9799 25.1009 64 32.5001 64C39.8993 64 45.9194 57.9799 45.9194 50.5806C45.9194 46.3742 43.9705 42.6178 40.9316 40.1548L51.0807 19.8565V18.5806ZM32.5001 2.29368C33.7863 3.36 37.2753 7.22168 37.6294 17.8457C36.338 17.2253 34.4376 16.5161 32.5001 16.5161C30.5625 16.5161 28.6621 17.2253 27.3708 17.8457C27.7249 7.22168 31.2139 3.35897 32.5001 2.29368ZM37.5602 20.1373L34.6905 37.3564C33.9752 37.2377 33.2474 37.1613 32.5001 37.1613C31.7527 37.1613 31.025 37.2377 30.3107 37.3564L27.441 20.1363C28.4051 19.5933 30.4748 18.5806 32.5001 18.5806C34.515 18.5806 36.592 19.5943 37.5602 20.1373ZM29.6273 2.33187C27.8023 4.68542 25.5726 9.29239 25.3042 17.8766C24.0118 17.249 22.0846 16.5161 20.113 16.5161C18.6637 16.5161 17.2433 16.9084 16.0449 17.3843C16.5919 9.80026 22.2725 3.62942 29.6273 2.33187ZM16.1016 19.6046C17.139 19.1277 18.643 18.5806 20.113 18.5806C22.289 18.5806 24.5352 19.7615 25.3806 20.257L28.2988 37.8446C27.4172 38.1368 26.579 38.5197 25.7883 38.9781L16.1016 19.6046ZM43.8549 50.5806C43.8549 56.8413 38.7607 61.9355 32.5001 61.9355C26.2394 61.9355 21.1452 56.8413 21.1452 50.5806C21.1452 44.32 26.2394 39.2258 32.5001 39.2258C38.7607 39.2258 43.8549 44.32 43.8549 50.5806ZM39.2118 38.9781C38.4211 38.5187 37.5829 38.1357 36.7014 37.8446L39.634 20.2467C40.4887 19.7471 42.7122 18.5806 44.8872 18.5806C46.3571 18.5806 47.8611 19.1277 48.8985 19.6046L39.2118 38.9781ZM44.8872 16.5161C42.9156 16.5161 40.9883 17.249 39.696 17.8766C39.4276 9.29239 37.1979 4.68439 35.3729 2.33187C42.7277 3.62942 48.4082 9.80026 48.9553 17.3843C47.7569 16.9084 46.3365 16.5161 44.8872 16.5161Z" fill="black"/>
</g>
</g>
<g id="Group_3">
<g id="Group_4">
<path id="Vector_2" d="M36.2607 50.5809C37.1195 49.8242 37.6614 48.7156 37.6614 47.4841C37.6614 45.9625 36.8253 44.6454 35.5969 43.929V41.2905H33.5324V43.355H31.4679V41.2905H29.4034V43.355H27.3389V57.8067H29.4034V59.8712H31.4679V57.8067H33.5324V59.8712H35.5969V57.2327C36.8253 56.5163 37.6614 55.1992 37.6614 53.6776C37.6614 52.4461 37.1195 51.3375 36.2607 50.5809ZM33.5324 55.7421H29.4034V51.6131H33.5324C34.671 51.6131 35.5969 52.539 35.5969 53.6776C35.5969 54.8162 34.671 55.7421 33.5324 55.7421ZM33.5324 49.5486H29.4034V45.4196H33.5324C34.671 45.4196 35.5969 46.3455 35.5969 47.4841C35.5969 48.6227 34.671 49.5486 33.5324 49.5486Z" fill="black"/>
</g>
</g>
<g id="Group_5">
<g id="Group_6">
<path id="Vector_3" d="M17.0162 49.5483H14.9517V51.6129H17.0162V49.5483Z" fill="black"/>
</g>
</g>
<g id="Group_7">
<g id="Group_8">
<path id="Vector_4" d="M12.8873 49.5483H10.8228V51.6129H12.8873V49.5483Z" fill="black"/>
</g>
</g>
<g id="Group_9">
<g id="Group_10">
<path id="Vector_5" d="M11.8548 35.0969H7.72581C7.156 35.0969 6.69355 34.6334 6.69355 34.0646V27.8711H4.62903V34.0646C4.62903 35.772 6.01845 37.1614 7.72581 37.1614H11.8548C12.9934 37.1614 13.9194 38.0874 13.9194 39.2259C13.9194 40.3645 12.9934 41.2904 11.8548 41.2904H3.59677C1.88942 41.2904 0.5 42.6799 0.5 44.3872V48.5163C0.5 50.2236 1.88942 51.613 3.59677 51.613H8.75806V49.5485H3.59677C3.02697 49.5485 2.56452 49.085 2.56452 48.5163V44.3872C2.56452 43.8184 3.02697 43.355 3.59677 43.355H11.8548C14.132 43.355 15.9839 41.5031 15.9839 39.2259C15.9839 36.9488 14.132 35.0969 11.8548 35.0969Z" fill="black"/>
</g>
</g>
<g id="Group_11">
<g id="Group_12">
<path id="Vector_6" d="M6.69342 23.7417H4.62891V25.8062H6.69342V23.7417Z" fill="black"/>
</g>
</g>
<g id="Group_13">
<g id="Group_14">
<path id="Vector_7" d="M6.69342 19.6128H4.62891V21.6773H6.69342V19.6128Z" fill="black"/>
</g>
</g>
<g id="Group_15">
<g id="Group_16">
<path id="Vector_8" d="M50.0484 49.5483H47.9839V51.6129H50.0484V49.5483Z" fill="black"/>
</g>
</g>
<g id="Group_17">
<g id="Group_18">
<path id="Vector_9" d="M54.1773 49.5483H52.1128V51.6129H54.1773V49.5483Z" fill="black"/>
</g>
</g>
<g id="Group_19">
<g id="Group_20">
<path id="Vector_10" d="M61.4032 41.2904H53.1451C52.0066 41.2904 51.0806 40.3645 51.0806 39.2259C51.0806 38.0874 52.0066 37.1614 53.1451 37.1614H57.2742C58.9815 37.1614 60.371 35.772 60.371 34.0646V27.8711H58.3064V34.0646C58.3064 34.6334 57.844 35.0969 57.2742 35.0969H53.1451C50.868 35.0969 49.0161 36.9488 49.0161 39.2259C49.0161 41.5031 50.868 43.355 53.1451 43.355H61.4032C61.973 43.355 62.4355 43.8184 62.4355 44.3872V48.5163C62.4355 49.085 61.973 49.5485 61.4032 49.5485H56.2419V51.613H61.4032C63.1106 51.613 64.5 50.2236 64.5 48.5163V44.3872C64.5 42.6799 63.1106 41.2904 61.4032 41.2904Z" fill="black"/>
</g>
</g>
<g id="Group_21">
<g id="Group_22">
<path id="Vector_11" d="M60.3712 23.7417H58.3066V25.8062H60.3712V23.7417Z" fill="black"/>
</g>
</g>
<g id="Group_23">
<g id="Group_24">
<path id="Vector_12" d="M60.3712 19.6128H58.3066V21.6773H60.3712V19.6128Z" fill="black"/>
</g>
</g>
<g id="Group_25">
<g id="Group_26">
<path id="Vector_13" d="M41.7901 49.5483H39.7256V51.6129H41.7901V49.5483Z" fill="black"/>
</g>
</g>
<g id="Group_27">
<g id="Group_28">
<path id="Vector_14" d="M25.274 49.5483H23.2095V51.6129H25.274V49.5483Z" fill="black"/>
</g>
</g>
</g>
<defs>
<clipPath id="clip0_74_481">
<rect width="64" height="64" fill="black" transform="translate(0.5)"/>
</clipPath>
</defs>
</svg>
