<svg width="65" height="64" viewBox="0 0 65 64" fill="none" xmlns="http://www.w3.org/2000/svg">
<g id="HTalwU.tif">
<g id="Group">
<path id="Vector" d="M0.501336 36.6687C0.865984 35.687 1.41095 34.8669 2.39938 34.39C2.5423 34.3219 2.62378 33.9946 2.62511 33.7863C2.6398 31.191 2.63446 28.5957 2.6358 26.0004C2.6358 24.8691 2.96705 24.5405 4.10241 24.5392C5.36331 24.5378 6.62422 24.5392 7.92654 24.5392V26.6523H4.82235C4.80098 26.8633 4.77026 27.0303 4.77026 27.1986C4.76759 29.3945 4.77427 31.5904 4.76225 33.7876C4.76091 34.1269 4.82769 34.3339 5.16429 34.5142C6.48397 35.2182 7.13313 36.606 6.83526 37.963C6.5187 39.4056 5.32859 40.4475 3.90071 40.5303C2.45414 40.6144 1.18923 39.7622 0.661621 38.3517C0.617542 38.2329 0.554764 38.1193 0.5 38.0031C0.5 37.5583 0.5 37.1149 0.5 36.6701L0.501336 36.6687ZM4.76225 37.3232C4.75557 36.7489 4.27872 36.2747 3.7057 36.2734C3.10463 36.272 2.61443 36.7809 2.63847 37.3793C2.66251 37.951 3.15539 38.4118 3.72841 38.3958C4.30143 38.3798 4.76892 37.8949 4.76225 37.3219V37.3232Z" fill="white"/>
<path id="Vector_2" d="M0.501465 13.2079C0.86077 12.6363 1.1239 11.9631 1.59808 11.5103C3.08205 10.0904 5.47831 10.5151 6.48277 12.3371C6.68446 12.703 6.89016 12.8286 7.29888 12.8179C8.49835 12.7899 9.70049 12.7685 10.8959 12.8299C11.2993 12.85 11.7575 13.0396 12.0727 13.2961C12.7753 13.8678 13.4031 14.529 14.0816 15.1741C13.5126 15.7378 13.0331 16.2133 12.4614 16.7796C12.0326 16.3161 11.5905 15.8794 11.1978 15.4012C10.8826 15.0178 10.5126 14.915 10.0344 14.931C9.08072 14.9631 8.12302 14.9243 7.16932 14.9537C6.97431 14.9604 6.69514 15.0899 6.60565 15.2489C5.88971 16.5151 4.82649 17.191 3.37725 17.0414C1.93201 16.8918 1.00636 16.0303 0.592293 14.6318C0.581607 14.5957 0.533522 14.5717 0.502801 14.541C0.502801 14.0962 0.502801 13.6527 0.502801 13.2079H0.501465ZM3.72987 12.8126C3.15552 12.7979 2.66531 13.2547 2.6386 13.829C2.61188 14.4261 3.10476 14.939 3.70449 14.9363C4.27751 14.9337 4.7557 14.4595 4.76237 13.8865C4.76905 13.3135 4.30289 12.8273 3.72987 12.8126Z" fill="white"/>
<path id="Vector_3" d="M0.501465 49.4659C0.892827 48.8648 1.17867 48.1462 1.69425 47.6827C3.16887 46.3551 5.50636 46.8159 6.47342 48.5777C6.69247 48.9784 6.92622 49.128 7.34563 49.0679C7.43246 49.0559 7.52328 49.0665 7.61144 49.0665C8.54243 49.0665 9.54688 49.2843 10.3857 49.0038C11.1978 48.7326 11.839 47.9512 12.5669 47.3849C12.9703 47.8297 13.4231 48.3292 13.8772 48.8288C13.2575 49.4726 12.5602 50.2433 11.8056 50.9499C11.6106 51.1329 11.2352 51.181 10.9414 51.1876C9.70049 51.213 8.45694 51.1836 7.21607 51.213C7.00236 51.2184 6.69648 51.3546 6.59897 51.5256C5.88036 52.7918 4.81714 53.4543 3.37057 53.3021C1.96006 53.1525 1.03441 52.3257 0.613664 50.9552C0.5963 50.8978 0.5402 50.851 0.502801 50.799C0.502801 50.3542 0.502801 49.9107 0.502801 49.4659H0.501465ZM4.76237 50.1111C4.75302 49.5394 4.2695 49.0665 3.69781 49.0679C3.12613 49.0692 2.64661 49.5447 2.6386 50.1164C2.63058 50.7148 3.13949 51.2144 3.73521 51.1917C4.3069 51.1703 4.77172 50.6801 4.76237 50.1097V50.1111Z" fill="white"/>
<path id="Vector_4" d="M47.8322 63.9958C46.7609 63.5884 45.8166 63.0034 45.4987 61.8306C45.3477 61.275 45.3544 60.6499 45.4159 60.0702C45.4573 59.6802 45.4479 59.4437 45.118 59.1753C43.5338 57.889 41.9764 56.568 40.3535 55.2135C40.8077 54.6712 41.2444 54.1517 41.7199 53.584C43.3161 54.9117 44.8882 56.202 46.4363 57.5216C46.7876 57.8208 47.0588 57.929 47.5423 57.7661C49.1892 57.2118 50.959 58.1241 51.5214 59.7443C52.0877 61.3752 51.2663 63.1303 49.6354 63.7808C49.4751 63.8449 49.3215 63.9237 49.1652 63.9958H47.8322ZM48.496 61.8574C49.069 61.8574 49.5485 61.3845 49.5606 60.8128C49.5726 60.2171 49.0637 59.7149 48.4666 59.7336C47.8949 59.751 47.4274 60.2398 47.4368 60.8115C47.4461 61.3859 47.9256 61.8587 48.4973 61.8587L48.496 61.8574Z" fill="white"/>
<path id="Vector_5" d="M15.8343 63.996C14.6882 63.5673 13.7612 62.9114 13.4246 61.6532C13.1041 60.4577 13.3859 59.4025 14.2541 58.5383C15.1023 57.6942 16.1481 57.3763 17.3049 57.7302C17.7937 57.8798 18.0622 57.7529 18.3868 57.419C19.6063 56.1648 20.8525 54.9373 22.1214 53.667C22.605 54.2039 23.0564 54.7075 23.5587 55.2658C22.458 56.3625 21.296 57.5472 20.1018 58.6973C19.6477 59.1354 19.3966 59.4867 19.6116 60.2146C20.023 61.6064 19.1401 63.1345 17.763 63.7329C17.564 63.8197 17.3663 63.9079 17.1686 63.996H15.8356H15.8343ZM17.5627 60.785C17.5587 60.2133 17.0805 59.7365 16.5074 59.7324C15.9371 59.7284 15.4522 60.1999 15.4389 60.7716C15.4255 61.37 15.9291 61.8736 16.5261 61.8576C17.0992 61.8415 17.5667 61.3567 17.5627 60.785Z" fill="white"/>
<path id="Vector_6" d="M31.8331 63.9958C31.0517 63.6738 30.3131 63.3012 29.8269 62.5559C28.8118 61.0011 29.2966 58.9187 30.9462 58.0225C31.3496 57.8034 31.4538 57.5683 31.4404 57.1502C31.4124 56.266 31.4324 55.3804 31.4324 54.4468H33.5655C33.5655 55.3898 33.5468 56.3368 33.5802 57.2812C33.5882 57.4949 33.7205 57.8021 33.8901 57.8982C35.1577 58.6155 35.8216 59.6801 35.6679 61.1267C35.5183 62.5385 34.6915 63.4641 33.3198 63.8836C33.2623 63.9009 33.2169 63.957 33.1648 63.9958H31.8318H31.8331ZM33.5615 60.8248C33.5802 60.2558 33.1181 59.7589 32.5464 59.7322C31.9787 59.7055 31.4738 60.1609 31.4391 60.7313C31.403 61.3283 31.8879 61.8506 32.485 61.8573C33.0566 61.864 33.5428 61.3978 33.5615 60.8248Z" fill="white"/>
<path id="Vector_7" d="M32.4822 52.394C29.8535 52.2778 27.2395 52.3258 24.6536 51.7328C16.3335 49.8254 9.89403 42.4737 9.14203 33.9719C8.22707 23.6282 14.8321 14.528 24.9688 12.2319C26.2164 11.9501 27.5147 11.7884 28.793 11.7724C31.7449 11.7323 34.7115 11.6482 37.6487 11.8806C46.2106 12.5551 53.5476 19.0373 55.4323 27.4095C57.9969 38.8018 50.7306 49.8788 39.2462 51.9225C37.033 52.3165 34.7382 52.2484 32.4822 52.394ZM11.1683 32.0244C11.179 42.0182 19.3415 50.1527 29.3379 50.1313C39.3077 50.1099 47.4261 41.9821 47.4328 32.0137C47.4395 22.0186 39.293 13.8721 29.2952 13.8748C19.2988 13.8775 11.1576 22.028 11.1683 32.0231V32.0244ZM48.9301 26.6722C49.1639 28.1295 49.3856 29.516 49.6046 30.8824H53.8949C53.6371 29.5721 53.4087 28.3339 53.1362 27.1063C53.0988 26.9367 52.8477 26.6963 52.6901 26.6923C51.4519 26.6575 50.211 26.6736 48.9301 26.6736V26.6722ZM53.1162 37.3138C53.366 35.9314 53.6144 34.5476 53.8749 33.1063H49.6033C49.3802 34.5155 49.1598 35.9033 48.9368 37.3138H53.1162ZM45.9675 20.2742C46.6821 21.662 47.362 22.995 48.0606 24.3187C48.1167 24.4242 48.2903 24.5271 48.4118 24.5298C49.6447 24.5445 50.8789 24.5391 52.1999 24.5391C51.5254 22.9843 50.6598 21.662 49.6354 20.4398C49.5432 20.3303 49.3255 20.2835 49.1665 20.2822C48.1046 20.2689 47.0414 20.2755 45.9675 20.2755V20.2742ZM52.1906 39.5044H48.2182C47.4541 40.9202 46.7048 42.3094 45.9368 43.7332C47.0534 43.7332 48.138 43.7386 49.2226 43.7266C49.3615 43.7252 49.5485 43.6745 49.63 43.577C50.6572 42.3561 51.5147 41.0271 52.1906 39.5044ZM39.4973 14.2849C40.9145 15.4723 42.3998 16.7199 43.8891 17.9607C43.9853 18.0409 44.1135 18.1277 44.2284 18.129C45.2102 18.1424 46.1919 18.1371 47.35 18.1371C44.8896 16.1095 42.2756 14.8632 39.4973 14.2849ZM39.5401 49.6852C41.6558 49.4795 46.0102 47.353 47.1723 45.8677C46.22 45.8677 45.2903 45.8597 44.362 45.8757C44.203 45.8784 44.0147 45.9478 43.8918 46.0494C42.3985 47.2862 40.9145 48.5338 39.5401 49.6852Z" fill="white"/>
<path id="Vector_8" d="M57.0474 40.5354V38.429H60.1876C60.2063 38.1886 60.2304 38.019 60.2304 37.8493C60.233 35.6721 60.2264 33.4949 60.2384 31.3177C60.241 30.9544 60.1689 30.7353 59.8029 30.5417C58.4432 29.8204 57.8328 28.3818 58.2094 26.9419C58.5794 25.5261 59.831 24.5483 61.2802 24.543C62.7308 24.5363 63.9984 25.506 64.3777 26.9099C64.7664 28.3511 64.1667 29.8097 62.823 30.5283C62.4423 30.7327 62.3541 30.9571 62.3568 31.3538C62.3728 33.9304 62.3662 36.5083 62.3648 39.0849C62.3648 40.2069 62.0269 40.5368 60.8835 40.5381C59.6226 40.5394 58.3617 40.5381 57.0474 40.5381V40.5354ZM61.2682 28.7999C61.8385 28.8146 62.3328 28.3551 62.3608 27.7834C62.3889 27.189 61.8933 26.6735 61.2949 26.6748C60.7232 26.6761 60.2437 27.1516 60.237 27.7247C60.2304 28.2977 60.6979 28.7852 61.2682 28.7999Z" fill="white"/>
<path id="Vector_9" d="M50.9321 48.7944C51.4758 48.2561 51.9473 47.7899 52.5684 47.1728C53.0225 47.6884 53.4459 48.2294 53.9375 48.6982C54.1485 48.8985 54.4998 49.0361 54.7937 49.0495C55.7474 49.0936 56.7037 49.0441 57.6574 49.0749C58.0848 49.0882 58.3133 48.9667 58.5283 48.5713C59.2068 47.3318 60.6 46.716 61.909 46.9992C63.2888 47.2984 64.2825 48.3562 64.4722 49.7267C64.6552 51.0571 63.9179 52.4061 62.677 53.0112C61.161 53.7512 59.3311 53.1715 58.5043 51.6408C58.3133 51.2868 58.1129 51.1839 57.7389 51.1893C56.5394 51.2093 55.3373 51.2441 54.1418 51.1719C53.7024 51.1452 53.2095 50.9208 52.8622 50.639C52.1783 50.0833 51.5799 49.4235 50.9321 48.7917V48.7944ZM61.2772 51.1933C61.8489 51.2026 62.3377 50.7392 62.3591 50.1661C62.3818 49.5717 61.8809 49.0602 61.2839 49.0682C60.7122 49.0762 60.2367 49.5557 60.2353 50.1274C60.234 50.7004 60.7055 51.1826 61.2772 51.192V51.1933Z" fill="white"/>
<path id="Vector_10" d="M52.4845 16.6588C51.9823 16.1633 51.5121 15.6998 51.0366 15.2309C51.7272 14.523 52.4137 13.7697 53.1617 13.0844C53.3741 12.8894 53.7695 12.8293 54.0834 12.8213C55.3242 12.7919 56.5678 12.828 57.8087 12.7919C58.0291 12.7852 58.3309 12.5969 58.4445 12.4032C59.2486 11.0368 60.6457 10.4037 62.1083 10.791C63.5175 11.1637 64.4912 12.4179 64.4952 13.8645C64.4992 15.3378 63.5121 16.6 62.0656 16.9714C60.6337 17.3373 59.2112 16.7162 58.4805 15.3538C58.3055 15.0266 58.1145 14.8876 57.7633 14.9424C57.7205 14.9491 57.6751 14.9424 57.6297 14.9424C56.6533 14.9424 55.6742 14.889 54.7031 14.9571C53.6105 15.0319 53.3127 16.2314 52.4832 16.6601L52.4845 16.6588ZM61.3256 14.9371C61.8986 14.9224 62.3661 14.4375 62.3608 13.8645C62.3554 13.2901 61.8786 12.816 61.3055 12.8133C60.7045 12.8106 60.2129 13.3195 60.2383 13.9193C60.2624 14.4923 60.7539 14.9531 61.3269 14.9371H61.3256Z" fill="white"/>
<path id="Vector_11" d="M44.3259 10.6506H42.114C42.114 9.87991 42.0726 9.13058 42.1354 8.38926C42.1581 8.11811 42.3918 7.8296 42.5975 7.61455C43.4283 6.75034 44.2765 5.90217 45.1394 5.07002C45.4506 4.76949 45.5868 4.52238 45.4386 4.04553C45.0178 2.69113 45.5935 1.27661 46.7796 0.516592C47.9403 -0.227398 49.439 -0.143248 50.5102 0.724963C51.5828 1.59584 51.9755 3.03975 51.4907 4.33138C50.9991 5.64037 49.7128 6.47919 48.313 6.40573C48.2462 6.40172 48.1701 6.41775 48.1153 6.3897C47.2391 5.9369 46.6874 6.41508 46.1719 7.0442C45.9608 7.30066 45.7191 7.5344 45.4666 7.75079C44.5957 8.49745 43.8571 9.29487 44.3259 10.6519V10.6506ZM48.5281 2.15016C47.9537 2.13547 47.4635 2.59228 47.4368 3.16664C47.4087 3.7637 47.9029 4.27661 48.5027 4.27394C49.0757 4.27127 49.5525 3.79843 49.5606 3.22407C49.5672 2.65105 49.1011 2.16486 48.5281 2.15016Z" fill="white"/>
<path id="Vector_12" d="M22.8995 10.6627H20.8599C20.8292 10.5972 20.7704 10.5344 20.7811 10.485C21.0122 9.28956 20.4445 8.46276 19.5563 7.77086C19.3479 7.60791 19.1702 7.40354 18.9899 7.20719C18.3929 6.55403 17.892 6.03311 16.7686 6.34299C15.4503 6.70764 14.0759 5.71654 13.5456 4.42358C13.0166 3.13328 13.3599 1.70274 14.4138 0.794457C15.4877 -0.131189 16.9877 -0.247396 18.1885 0.501937C19.3799 1.24459 19.9717 2.66445 19.5643 4.01752C19.4147 4.51307 19.5482 4.77887 19.8835 5.09677C20.6889 5.8608 21.4423 6.67825 22.2531 7.43693C22.7286 7.88173 22.957 8.37059 22.9062 9.02376C22.8661 9.54869 22.8982 10.079 22.8982 10.6613L22.8995 10.6627ZM17.562 3.24014C17.5781 2.66712 17.1186 2.17424 16.5469 2.1502C15.9472 2.12482 15.4383 2.61503 15.4396 3.2161C15.4409 3.78912 15.9138 4.26596 16.4881 4.27398C17.0598 4.28066 17.546 3.81316 17.562 3.24147V3.24014Z" fill="white"/>
<path id="Vector_13" d="M33.5668 9.57643H31.4337C31.4337 8.68551 31.4123 7.82532 31.4417 6.96779C31.4591 6.4856 31.3535 6.19575 30.8727 5.93395C29.5076 5.18997 28.9613 3.53102 29.5103 2.08177C30.0592 0.632528 31.602 -0.238354 33.0846 0.0635165C34.6527 0.384087 35.7494 1.72514 35.6919 3.2986C35.6478 4.4994 35.0895 5.42772 34.0303 5.99406C33.6536 6.19575 33.5454 6.41347 33.5575 6.81419C33.5855 7.71846 33.5668 8.62407 33.5668 9.5751V9.57643ZM33.5615 3.2051C33.5575 2.63075 33.0846 2.1539 32.5103 2.14989C31.9092 2.14455 31.4163 2.65212 31.4377 3.25052C31.4591 3.82354 31.9493 4.28569 32.5209 4.27367C33.094 4.26031 33.5641 3.77812 33.5601 3.20644L33.5615 3.2051Z" fill="white"/>
<path id="Vector_14" d="M19.4147 40.2082C18.9084 40.6303 18.4009 41.0537 17.896 41.4758C14.1333 37.5555 12.4717 29.2541 17.5674 22.7826C22.8688 16.0506 32.3844 15.3801 38.4686 20.2581C38.0558 20.787 37.6418 21.3186 37.1903 21.8983C34.1783 19.6677 30.8363 18.7728 27.1431 19.3992C24.2179 19.8948 21.7655 21.2812 19.7646 23.4705C16.2584 27.3093 14.7918 34.3137 19.4147 40.2082Z" fill="white"/>
<path id="Vector_15" d="M23.5796 45.7474C23.8387 45.1237 24.0978 44.4972 24.357 43.8721C34.4856 48.1303 45.4024 38.1032 41.1629 27.0716C41.7866 26.8124 42.4117 26.552 43.0355 26.2915C45.1807 30.9184 44.5729 37.7158 39.9995 42.4135C35.3752 47.1633 28.4883 47.966 23.5796 45.7474Z" fill="white"/>
<path id="Vector_16" d="M20.4438 28.4194C21.0849 28.6812 21.6967 28.9323 22.3271 29.1915C21.2118 32.8393 21.9879 35.9141 25.1214 38.1554C27.8409 40.1002 30.7514 39.8878 34.2724 37.6492C34.7025 38.134 35.1392 38.6269 35.5747 39.1171C33.853 41.126 28.9442 42.8838 24.4896 40.3072C20.3904 37.9364 18.519 32.5521 20.4451 28.4194H20.4438Z" fill="white"/>
<path id="Vector_17" d="M38.5582 34.3888C37.8877 34.2125 37.2479 34.0455 36.5814 33.8705C37.1944 30.2841 36.1192 27.4177 32.9763 25.533C30.3155 23.9355 27.6254 24.2387 24.3316 26.3612C23.8908 25.8629 23.4433 25.3567 22.9985 24.8531C25.3828 22.4903 30.0391 21.3843 34.0448 23.6644C37.7795 25.7895 39.7269 30.3376 38.5569 34.3888H38.5582Z" fill="white"/>
<path id="Vector_18" d="M33.564 32.0086C33.56 34.3647 31.6379 36.2761 29.2764 36.2681C26.9523 36.2601 25.0409 34.3527 25.0342 32.0313C25.0262 29.6697 26.9322 27.7463 29.2884 27.7383C31.6433 27.7316 33.5667 29.6524 33.564 32.0086ZM29.3165 29.8741C28.1491 29.8701 27.1887 30.8091 27.1713 31.9712C27.1526 33.1599 28.1277 34.1417 29.3178 34.1323C30.4799 34.123 31.4282 33.168 31.4322 32.0032C31.4349 30.8505 30.4705 29.8781 29.3178 29.8741H29.3165Z" fill="white"/>
</g>
</g>
</svg>
