<svg width="172" height="53" viewBox="0 0 172 53" fill="none" xmlns="http://www.w3.org/2000/svg">
<path d="M35.547 16.6981C36.2886 17.1414 36.2886 17.1414 37.0302 17.5354C37.7718 17.9787 37.7718 17.9787 38.5134 18.3728C39.255 17.9787 39.255 17.9787 39.9471 17.5354C40.6393 17.1414 40.6393 17.1414 41.3314 16.6981C41.3314 15.8607 41.3314 15.8607 41.282 15.0233C41.282 14.186 41.282 14.186 41.2325 13.3979C40.5404 13.0038 40.5404 13.0038 39.7988 12.5605C39.0572 12.1172 39.0572 12.1172 38.365 11.7231C37.6729 12.1172 37.6729 12.1172 36.9313 12.5112C36.2391 12.9053 36.2392 12.9053 35.4976 13.2994C35.4976 14.1367 35.4976 14.1367 35.4976 14.9741C35.547 15.8607 35.547 15.8607 35.547 16.6981Z" fill="white"/>
<path d="M39.8977 6.99447L41.1337 7.73332L42.3697 8.47217L43.5068 7.83183L44.5945 7.24075L44.4956 5.91083L44.3967 4.63016L43.2102 3.94057C42.6169 3.59577 42.6169 3.59577 42.0236 3.25098C41.5292 3.49726 41.5292 3.49726 40.9359 3.74354C40.3427 4.03908 40.3427 4.03908 39.7988 4.33462C39.7988 4.97495 39.7988 4.97495 39.8483 5.66455C39.8977 6.30488 39.8977 6.30488 39.8977 6.99447ZM41.3809 4.63016L42.0236 4.28536L42.7158 4.72867L43.4574 5.17198L43.5068 5.96008L43.5562 6.64968L43.0124 6.99447L42.3697 7.38852L41.6281 6.89596L40.8371 6.45265L40.7876 5.61529V4.9257L41.3809 4.63016Z" fill="white"/>
<path d="M48.5994 14.3828C49.1432 14.7276 49.1432 14.7276 49.7365 15.0724C50.2803 15.4172 50.2803 15.4172 50.8241 15.762C51.368 15.4172 51.368 15.4172 51.8624 15.1216C52.3568 14.7768 52.3568 14.7768 52.8512 14.4813C52.8512 13.841 52.8512 13.841 52.8017 13.2006C52.7523 12.5603 52.7523 12.5603 52.7523 11.92C52.2579 11.5752 52.2579 11.5752 51.7141 11.2304C51.1702 10.8856 51.1702 10.8856 50.6264 10.5408C50.132 10.8363 50.132 10.8363 49.5882 11.1318C49.0443 11.4274 49.0443 11.4274 48.5005 11.7229C48.5005 12.4125 48.5005 12.4125 48.5499 13.0529C48.5499 13.6932 48.5499 13.6932 48.5994 14.3828Z" fill="white"/>
<path d="M29.5157 22.3131V23.2982L25.4617 25.6625L24.5223 25.1207C23.7807 24.6774 23.7807 24.6774 23.0886 24.2833L21.6548 25.1207C20.9627 25.564 20.9627 25.564 20.2705 25.958V27.6328V29.3075L21.7043 30.1449L23.138 30.9822L24.5717 30.1941L26.0055 29.3567V27.682V26.5984L30.0595 24.2341L30.9494 24.7266L32.3832 25.5147L33.8169 24.7266L35.2507 23.8893C35.2507 23.0519 35.2507 23.0519 35.2507 22.2638V20.6383L33.8169 19.801L32.3832 18.9636L30.9494 19.801L29.5157 20.6383V22.3131ZM24.0279 29.2582L23.138 29.7508L22.2481 29.209L21.3582 28.6672V27.5835V26.4999L22.2481 25.958L23.138 25.4162L24.0773 25.958L25.0167 26.4999V27.5835V28.6672L24.0279 29.2582ZM30.455 21.1802L31.3944 20.6383L32.3337 20.0965L33.2731 20.6383L34.2124 21.1802V22.2638V23.3475L33.2731 23.8893L32.3337 24.4311L31.3944 23.8893L30.455 23.3475V22.2638V21.1802Z" fill="white"/>
<path d="M52.0599 27.1404C51.4172 27.5837 51.4172 27.5837 50.725 27.9777C50.0329 28.4211 50.0329 28.4211 49.3407 28.8151C49.2913 29.6032 49.2913 29.6032 49.2913 30.3913C49.2418 31.1794 49.2418 31.1794 49.1924 31.9675C49.8351 32.3123 49.8351 32.3123 50.4778 32.6571C51.0711 32.9527 51.0711 32.9526 51.6644 33.2974C52.3071 32.8541 52.3071 32.8541 52.9498 32.4601C53.5925 32.0168 53.5925 32.0168 54.1858 31.6227C54.2352 30.8839 54.2352 30.8839 54.3341 30.145C54.3835 29.4062 54.3835 29.4062 54.433 28.6181C53.8397 28.2733 53.8397 28.2733 53.2464 27.9285C52.7026 27.4852 52.7026 27.4852 52.0599 27.1404Z" fill="white"/>
<path d="M50.7745 24.2342C50.7745 23.3969 50.7745 23.3969 50.7745 22.6088V20.9833L49.3407 20.146L47.9564 19.3086L46.5227 20.146L45.0889 20.9833V22.6088V23.5939L41.0349 25.9582L40.0955 25.4164C39.354 24.9731 39.354 24.9731 38.6618 24.579L37.2281 25.4164C36.5359 25.8597 36.5359 25.8597 35.8438 26.2538V27.9285V29.6032L37.2775 30.4406L38.7112 31.2779L40.145 30.4898L41.5787 29.6525V27.9777V26.8941L45.6328 24.5298L46.5227 25.0223L47.9564 25.8105L49.3902 25.0223L50.7745 24.2342ZM39.6012 29.5539L38.7112 30.0465L37.8213 29.5539L36.9314 29.0121V27.9285V26.8448L37.8213 26.303L38.7112 25.7612L39.6506 26.303L40.5899 26.8448V27.9285V29.0121L39.6012 29.5539ZM47.907 24.7761L46.9676 24.2342L46.0283 23.6924V22.6088V21.5251L46.9676 20.9833L47.907 20.4415L48.8463 20.9833L49.7857 21.5251V22.6088V23.6924L48.8463 24.2342L47.907 24.7761Z" fill="white"/>
<path d="M55.4217 5.17192C55.3723 4.72861 55.3723 4.72861 55.3228 4.2853C54.9273 3.98976 54.9273 3.98976 54.5812 3.74348C54.1857 3.44794 54.1857 3.44794 53.7902 3.20166C53.4441 3.34943 53.4441 3.34943 53.098 3.54646C52.752 3.74348 52.752 3.74348 52.3564 3.94051C52.4059 4.43307 52.4059 4.43307 52.4553 4.92564C52.5048 5.4182 52.5048 5.4182 52.5048 5.91077C52.9497 6.20631 52.9497 6.20631 53.3452 6.45259C53.7408 6.74813 53.7408 6.74813 54.1363 6.99441C54.4823 6.74813 54.4823 6.74813 54.8284 6.5511C55.1745 6.35408 55.1745 6.35408 55.4711 6.15705C55.4711 5.66449 55.4711 5.66449 55.4217 5.17192Z" fill="white"/>
<path d="M17.6006 18.3234C18.2433 17.9294 18.2433 17.9294 18.9355 17.4861C19.6277 17.0428 19.6277 17.0428 20.3198 16.6487C20.3692 15.8606 20.3692 15.8606 20.4187 15.1218C20.4681 14.6292 20.4681 14.4814 20.4681 14.2351L24.3244 11.6245C24.5716 11.7723 24.6705 11.8216 25.1154 12.0679C25.7582 12.4127 25.7582 12.4127 26.3514 12.7574C26.9941 12.4127 26.9941 12.4127 27.5874 12.0679C28.1807 11.7231 28.1807 11.7231 28.8234 11.3783C28.8234 10.6887 28.8234 10.6887 28.774 10.0483C28.774 9.408 28.774 9.408 28.7245 8.76767C28.0818 8.42287 28.0818 8.42287 27.4885 8.07808C26.8953 7.73328 26.8953 7.73328 26.2525 7.43774C25.6593 7.73328 25.6593 7.73328 25.066 8.07808C24.4727 8.37362 24.4727 8.37362 23.83 8.71841C23.83 9.35875 23.83 9.35875 23.83 10.0483C23.83 10.4424 23.83 10.6394 23.83 10.8364L19.9737 13.447C19.776 13.3485 19.6277 13.25 19.2321 13.1022C18.6389 12.8067 18.6389 12.8067 18.0456 12.5112C17.4029 12.9052 17.4029 12.9052 16.7602 13.3485C16.1175 13.7426 16.1175 13.7426 15.5242 14.1859C15.4253 14.8755 15.4253 14.8755 15.3759 15.6143C15.277 16.3532 15.277 16.3532 15.2275 17.092C15.7714 17.4368 15.7714 17.4368 16.3646 17.7816C17.0074 17.9786 17.0074 17.9786 17.6006 18.3234ZM24.8188 9.99908C24.8188 9.7528 24.8188 9.50652 24.8188 9.26023C25.066 9.11246 25.3132 9.01395 25.5604 8.86618C25.8076 8.71841 26.0548 8.6199 26.302 8.47213C26.5492 8.6199 26.7964 8.76767 27.093 8.86618C27.3402 9.01395 27.5874 9.11246 27.8346 9.26023C27.8346 9.50652 27.8346 9.7528 27.8346 9.99908C27.8346 10.2454 27.8346 10.4916 27.8346 10.7872C27.5874 10.935 27.3402 11.0335 27.1425 11.1812C26.8953 11.329 26.5986 11.4768 26.3514 11.6245C26.1042 11.4768 25.8076 11.329 25.5604 11.1812C25.3132 11.0335 25.066 10.8857 24.8188 10.7379C24.8188 10.4916 24.8188 10.2454 24.8188 9.99908ZM16.3646 15.6143C16.4141 15.2695 16.4141 14.974 16.4635 14.6292C16.7602 14.4322 17.0568 14.2351 17.3534 14.0381C17.6006 13.8411 17.8973 13.6933 18.1445 13.4963C18.3917 13.5948 18.5894 13.7426 18.8366 13.8411C19.0344 13.9396 19.2816 14.0381 19.4793 14.1366C19.4793 14.4322 19.4299 14.7277 19.4299 15.0232C19.4299 15.368 19.3805 15.7128 19.3805 16.0576C19.0838 16.2547 18.7377 16.4517 18.4411 16.6487C18.1445 16.8457 17.8973 16.9935 17.6006 17.1905C17.3534 17.0428 17.1557 16.9442 16.9085 16.7965C16.7107 16.6487 16.513 16.5502 16.2658 16.4024C16.3152 16.2054 16.3646 15.9099 16.3646 15.6143Z" fill="white"/>
<path d="M27.5381 14.3829C27.0437 14.6784 27.0437 14.6784 26.5493 14.974C26.5493 15.565 26.5493 15.565 26.5493 16.1069C26.5493 16.6979 26.5493 16.6979 26.5493 17.289C27.0437 17.5846 27.0437 17.5846 27.5381 17.8801C28.0325 18.1756 28.0325 18.1756 28.5763 18.4712C29.0707 18.1756 29.0707 18.1756 29.6146 17.8801C30.109 17.5846 30.109 17.5846 30.6528 17.289C30.6528 16.6979 30.6528 16.6979 30.6528 16.1069C30.6528 15.5158 30.6528 15.5158 30.6528 14.974C30.1584 14.6784 30.1584 14.6784 29.6146 14.3829C29.1202 14.0873 29.1202 14.0873 28.6258 13.8411C28.0819 14.0873 28.0819 14.0873 27.5381 14.3829Z" fill="white"/>
<path d="M22.9399 21.0325C22.9399 20.1952 22.9399 20.1952 22.9894 19.4071C22.2972 19.013 22.2972 19.013 21.6051 18.619C20.9129 18.2249 20.9129 18.2249 20.2702 17.8801C19.578 18.3234 19.578 18.3234 18.8859 18.7175C18.1937 19.1608 18.1937 19.1608 17.551 19.5548C17.5016 20.343 17.5016 20.343 17.5016 21.1803C17.5016 21.9684 17.5016 21.9684 17.4521 22.8058C18.0949 23.1998 18.0949 23.1998 18.787 23.5939C19.4792 23.9879 19.4792 23.9879 20.1219 24.4312C20.814 23.9879 20.814 23.9879 21.5062 23.5939C22.1983 23.1506 22.1983 23.1506 22.9399 22.7565C22.9399 21.8699 22.9399 21.8699 22.9399 21.0325Z" fill="white"/>
<path d="M41.2328 36.5482L39.2057 37.1393L36.7338 35.8586L36.2394 35.0212C36.2888 34.2331 36.2888 34.2331 36.2888 33.445C36.3383 32.6569 36.3383 32.6569 36.3383 31.8688L35.1517 31.1792C35.1023 31.13 35.0528 31.13 34.954 31.0807C34.7562 30.9822 34.6573 30.9329 34.5584 30.8344L33.5696 30.2926L30.6527 31.9673H29.5156L26.5492 30.2926L23.6818 31.9181H22.5941L19.776 30.2434L19.2322 29.2582L19.1828 25.958L16.513 24.3326L16.0186 23.3967L16.1175 20.195C15.8209 19.998 15.6231 19.8995 15.4748 19.801L14.5849 19.2592C14.3377 19.1114 14.1894 19.0129 13.7939 18.7666L13.7444 17.5352L14.041 14.6783C13.5467 14.432 13.5467 14.432 13.0523 14.1857C12.6073 13.9395 12.6073 13.9395 12.1623 13.7424C11.6185 14.1365 11.6185 14.1365 11.1241 14.5798C10.6297 15.0231 10.6297 15.0231 10.1353 15.4172L9.19598 16.0082C8.94878 15.8605 8.89934 15.8112 8.75102 15.7619L8.40495 15.5649C8.30607 15.4664 8.25663 15.4664 8.05887 15.3186C7.71279 15.7127 7.71279 15.7127 7.31728 16.156C6.9712 16.5501 6.9712 16.5501 6.67457 16.9934L6.08129 16.6978C5.88353 17.0919 5.88353 17.0919 5.73521 17.4859C5.68578 17.5844 5.68578 17.5844 5.63634 17.7322C5.38914 18.4711 5.14194 19.2099 4.99362 19.9488C4.94418 20.0965 4.94418 20.0965 4.94418 20.2935C4.94418 20.3921 4.94418 20.3921 4.94418 20.4413C4.89474 20.6876 4.8453 20.8846 4.79586 21.1309C4.79586 21.0817 4.79586 21.0324 4.79586 20.9831C4.79586 21.0817 4.74643 21.2294 4.74643 21.3279C2.52165 31.9673 7.41616 41.4246 15.1782 46.3995C20.3199 50.143 30.2078 51.0789 37.2776 48.025C37.6731 47.8772 37.7226 47.8772 38.1675 47.6802C38.3653 47.5816 38.3653 47.5816 38.563 47.4339C39.4529 46.9906 40.244 46.4487 40.9856 45.8084C41.1339 45.7099 41.2822 45.6114 41.5788 45.4636C41.7766 45.2173 41.7766 45.1681 41.9249 44.9711C43.6059 43.2963 44.7924 41.1783 45.1879 38.5184C45.3362 37.9274 45.3362 37.9274 45.4351 37.287C45.534 36.6467 45.534 36.6467 45.6823 35.9571L43.7047 34.8735L41.2328 36.5482Z" fill="white"/>
<path d="M70.501 16.2054V13.053H76.8293V16.2054H78.4114V13.053H84.7396V16.2054H87.9037V30.4405H83.1576V17.7816H79.9934V30.4405H75.2472V17.7816H72.0831V30.4405H67.3369V16.2054H70.501Z" fill="white"/>
<path d="M92.6993 20.8356H95.8635V19.2594H102.192V17.6832H95.8635V12.9546H103.774V16.107H106.938V30.3421H92.6499V20.8356H92.6993ZM102.241 25.5643V23.988H97.495V25.5643H102.241Z" fill="white"/>
<path d="M113.316 16.107V12.9546H118.062V16.107H122.808V20.8356H118.062V25.5643H122.808V30.2929H113.266V20.8356H110.102V16.107H113.316Z" fill="white"/>
<path d="M127.604 16.1069H132.35V17.6831H137.096V22.4118H132.35V30.2928H127.604V16.1069Z" fill="white"/>
<path d="M140.31 12.9053H145.056V17.6339H140.31V12.9053ZM145.056 19.2594V30.3421H140.31V19.2594H145.056Z" fill="white"/>
<path d="M149.802 20.8849V16.1562H156.13V20.8849H159.294V16.1562H164.04V22.4611H160.876V25.6135H164.04V30.3421H157.712V25.6135H154.548V30.3421H149.802V23.988H152.966V20.8356H149.802V20.8849Z" fill="white"/>
<path d="M67.5347 43.5922V35.0708H68.7707V42.3608H73.6652V43.5922H67.5347Z" fill="white"/>
<path d="M74.9014 43.5921V36.2529H76.1374V38.6665H79.7959V36.2529H81.0319V43.5429H79.7959V39.8979H76.1374V43.5429H74.9014V43.5921ZM76.0879 36.2529V35.0215H79.7464V36.2529H76.0879Z" fill="white"/>
<path d="M82.2183 38.7158V35.0708H83.4542V38.7158H82.2183ZM83.4542 39.8979V38.6665H84.6902V39.8979H83.4542ZM84.6408 43.5922V39.8979H85.8768V43.5429H84.6408V43.5922ZM85.8768 39.8979V38.6665H87.1128V39.8979H85.8768ZM87.1128 38.7158V35.0708H88.3488V38.7158H87.1128Z" fill="white"/>
<path d="M89.5352 43.5922V35.0708H95.6657V36.3022H90.7711V38.7158H94.4297V39.8979H90.7711V42.3608H95.6657V43.5922H89.5352Z" fill="white"/>
<path d="M96.9019 43.5922V35.0708H101.796V36.3022H98.1378V38.7158H101.796V39.8979H100.56V41.1294H99.3244V39.8979H98.0884V43.5429H96.9019V43.5922ZM100.56 42.3608V41.1294H101.796V42.3608H100.56ZM101.747 38.7158V36.3022H102.983V38.7158H101.747ZM101.747 43.5922V42.3608H102.983V43.5922H101.747Z" fill="white"/>
<path d="M110.3 43.5922V35.0708H115.194V36.3022H111.536V38.7158H115.194V39.8979H111.536V43.5429H110.3V43.5922ZM115.194 38.7158V36.3022H116.43V38.7158H115.194Z" fill="white"/>
<path d="M117.667 43.5922V35.0708H122.561V36.3022H118.902V38.7158H122.561V39.8979H121.325V41.1294H120.089V39.8979H118.853V43.5429H117.667V43.5922ZM121.325 42.3608V41.1294H122.561V42.3608H121.325ZM122.512 38.7158V36.3022H123.748V38.7158H122.512ZM122.512 43.5922V42.3608H123.748V43.5922H122.512Z" fill="white"/>
<path d="M124.983 42.3607V36.2529H126.219V42.3607H124.983ZM126.219 36.2529V35.0215H129.878V36.2529H126.219ZM126.219 43.5921V42.3607H129.878V43.5921H126.219ZM129.878 42.3607V36.2529H131.114V42.3607H129.878Z" fill="white"/>
<path d="M134.772 43.5921V36.2529H132.35V35.0215H138.431V36.2529H135.959V43.5429H134.772V43.5921Z" fill="white"/>
<path d="M139.618 42.3607V36.2529H140.854V42.3607H139.618ZM140.854 36.2529V35.0215H144.512V36.2529H140.854ZM140.854 43.5921V42.3607H144.512V43.5921H140.854ZM144.512 42.3607V36.2529H145.748V42.3607H144.512Z" fill="white"/>
<path d="M146.984 42.3607V36.2529H148.22V42.3607H146.984ZM148.17 36.2529V35.0215H151.829V36.2529H148.17ZM148.17 43.5921V42.3607H151.829V43.5921H148.17ZM151.878 37.4843V36.2529H153.114V37.4843H151.878ZM151.878 42.3607V41.1293H153.114V42.3607H151.878Z" fill="white"/>
<path d="M154.301 42.3607V36.2529H155.537V42.3607H154.301ZM155.537 36.2529V35.0215H159.195V36.2529H155.537ZM155.537 43.5921V42.3607H159.195V43.5921H155.537ZM159.195 42.3607V36.2529H160.431V42.3607H159.195Z" fill="white"/>
<path d="M161.618 43.5922V35.0708H162.854V42.3608H167.749V43.5922H161.618Z" fill="white"/>
</svg>
