<svg width="172" height="53" viewBox="0 0 172 53" fill="none" xmlns="http://www.w3.org/2000/svg">
<g id="Matrix logo 3">
<g id="Group">
<g id="Group_2">
<path id="Vector" d="M35.5455 16.6981C36.2871 17.1414 36.2871 17.1414 37.0287 17.5354C37.7703 17.9787 37.7703 17.9787 38.5119 18.3728C39.2535 17.9787 39.2535 17.9787 39.9456 17.5354C40.6378 17.1414 40.6378 17.1414 41.33 16.6981C41.33 15.8607 41.33 15.8607 41.2805 15.0233C41.2805 14.186 41.2805 14.186 41.2311 13.3979C40.5389 13.0038 40.5389 13.0038 39.7973 12.5605C39.0557 12.1172 39.0557 12.1172 38.3636 11.7231C37.6714 12.1172 37.6714 12.1172 36.9298 12.5112C36.2377 12.9053 36.2377 12.9053 35.4961 13.2994C35.4961 14.1367 35.4961 14.1367 35.4961 14.9741C35.5455 15.8607 35.5455 15.8607 35.5455 16.6981Z" fill="black"/>
<path id="Vector_2" d="M39.8958 6.99447L41.1317 7.73332L42.3677 8.47217L43.5048 7.83183L44.5925 7.24075L44.4936 5.91083L44.3947 4.63016L43.2082 3.94057C42.6149 3.59577 42.6149 3.59577 42.0217 3.25098C41.5273 3.49726 41.5273 3.49726 40.934 3.74354C40.3407 4.03908 40.3407 4.03908 39.7969 4.33462C39.7969 4.97495 39.7969 4.97495 39.8463 5.66455C39.8958 6.30488 39.8958 6.30488 39.8958 6.99447ZM41.3789 4.63016L42.0217 4.28536L42.7138 4.72867L43.4554 5.17198L43.5048 5.96008L43.5543 6.64968L43.0104 6.99447L42.3677 7.38852L41.6261 6.89596L40.8351 6.45265L40.7857 5.61529V4.9257L41.3789 4.63016Z" fill="black"/>
<path id="Vector_3" d="M48.5989 14.3828C49.1427 14.7276 49.1427 14.7276 49.736 15.0724C50.2798 15.4172 50.2798 15.4172 50.8237 15.762C51.3675 15.4172 51.3675 15.4172 51.8619 15.1216C52.3563 14.7768 52.3563 14.7768 52.8507 14.4813C52.8507 13.841 52.8507 13.841 52.8012 13.2006C52.7518 12.5603 52.7518 12.5603 52.7518 11.92C52.2574 11.5752 52.2574 11.5752 51.7136 11.2304C51.1697 10.8856 51.1697 10.8856 50.6259 10.5408C50.1315 10.8363 50.1315 10.8363 49.5877 11.1318C49.0438 11.4274 49.0438 11.4274 48.5 11.7229C48.5 12.4125 48.5 12.4125 48.5494 13.0529C48.5494 13.6932 48.5494 13.6932 48.5989 14.3828Z" fill="black"/>
<path id="Vector_4" d="M29.5147 22.3131V23.2982L25.4607 25.6625L24.5213 25.1207C23.7797 24.6774 23.7797 24.6774 23.0876 24.2833L21.6538 25.1207C20.9617 25.564 20.9617 25.564 20.2695 25.958V27.6328V29.3075L21.7033 30.1449L23.137 30.9822L24.5708 30.1941L26.0045 29.3567V27.682V26.5984L30.0586 24.2341L30.9485 24.7266L32.3822 25.5147L33.816 24.7266L35.2497 23.8893C35.2497 23.0519 35.2497 23.0519 35.2497 22.2638V20.6383L33.816 19.801L32.3822 18.9636L30.9485 19.801L29.5147 20.6383V22.3131ZM24.0269 29.2582L23.137 29.7508L22.2471 29.209L21.3572 28.6672V27.5835V26.4999L22.2471 25.958L23.137 25.4162L24.0764 25.958L25.0157 26.4999V27.5835V28.6672L24.0269 29.2582ZM30.4541 21.1802L31.3934 20.6383L32.3328 20.0965L33.2721 20.6383L34.2115 21.1802V22.2638V23.3475L33.2721 23.8893L32.3328 24.4311L31.3934 23.8893L30.4541 23.3475V22.2638V21.1802Z" fill="black"/>
<path id="Vector_5" d="M52.0589 27.1404C51.4162 27.5837 51.4162 27.5837 50.724 27.9777C50.0319 28.4211 50.0319 28.4211 49.3397 28.8151C49.2903 29.6032 49.2903 29.6032 49.2903 30.3913C49.2408 31.1794 49.2408 31.1794 49.1914 31.9675C49.8341 32.3123 49.8341 32.3123 50.4768 32.6571C51.0701 32.9527 51.0701 32.9526 51.6634 33.2974C52.3061 32.8541 52.3061 32.8541 52.9488 32.4601C53.5915 32.0168 53.5915 32.0168 54.1848 31.6227C54.2342 30.8839 54.2342 30.8839 54.3331 30.145C54.3826 29.4062 54.3826 29.4062 54.432 28.6181C53.8387 28.2733 53.8387 28.2733 53.2454 27.9285C52.7016 27.4852 52.7016 27.4852 52.0589 27.1404Z" fill="black"/>
<path id="Vector_6" d="M50.7745 24.2342C50.7745 23.3969 50.7745 23.3969 50.7745 22.6088V20.9833L49.3407 20.146L47.9564 19.3086L46.5227 20.146L45.0889 20.9833V22.6088V23.5939L41.0349 25.9582L40.0955 25.4164C39.354 24.9731 39.354 24.9731 38.6618 24.579L37.2281 25.4164C36.5359 25.8597 36.5359 25.8597 35.8438 26.2538V27.9285V29.6032L37.2775 30.4406L38.7112 31.2779L40.145 30.4898L41.5787 29.6525V27.9777V26.8941L45.6328 24.5298L46.5227 25.0223L47.9564 25.8105L49.3902 25.0223L50.7745 24.2342ZM39.6012 29.5539L38.7112 30.0465L37.8213 29.5539L36.9314 29.0121V27.9285V26.8448L37.8213 26.303L38.7112 25.7612L39.6506 26.303L40.5899 26.8448V27.9285V29.0121L39.6012 29.5539ZM47.907 24.7761L46.9676 24.2342L46.0283 23.6924V22.6088V21.5251L46.9676 20.9833L47.907 20.4415L48.8463 20.9833L49.7857 21.5251V22.6088V23.6924L48.8463 24.2342L47.907 24.7761Z" fill="black"/>
<path id="Vector_7" d="M55.4207 5.17192C55.3713 4.72861 55.3713 4.72861 55.3218 4.2853C54.9263 3.98976 54.9263 3.98976 54.5802 3.74348C54.1847 3.44794 54.1847 3.44794 53.7892 3.20166C53.4431 3.34943 53.4431 3.34943 53.0971 3.54646C52.751 3.74348 52.751 3.74348 52.3555 3.94051C52.4049 4.43307 52.4049 4.43307 52.4543 4.92564C52.5038 5.4182 52.5038 5.4182 52.5038 5.91077C52.9487 6.20631 52.9487 6.20631 53.3443 6.45259C53.7398 6.74813 53.7398 6.74813 54.1353 6.99441C54.4814 6.74813 54.4814 6.74813 54.8274 6.5511C55.1735 6.35408 55.1735 6.35408 55.4702 6.15705C55.4702 5.66449 55.4702 5.66449 55.4207 5.17192Z" fill="black"/>
<path id="Vector_8" d="M17.5997 18.3234C18.2424 17.9294 18.2424 17.9294 18.9345 17.4861C19.6267 17.0428 19.6267 17.0428 20.3188 16.6487C20.3683 15.8606 20.3683 15.8606 20.4177 15.1218C20.4671 14.6292 20.4671 14.4814 20.4671 14.2351L24.3234 11.6245C24.5706 11.7723 24.6695 11.8216 25.1145 12.0679C25.7572 12.4127 25.7572 12.4127 26.3504 12.7574C26.9932 12.4127 26.9932 12.4127 27.5864 12.0679C28.1797 11.7231 28.1797 11.7231 28.8224 11.3783C28.8224 10.6887 28.8224 10.6887 28.773 10.0483C28.773 9.408 28.773 9.408 28.7235 8.76767C28.0808 8.42287 28.0808 8.42287 27.4876 8.07808C26.8943 7.73328 26.8943 7.73328 26.2516 7.43774C25.6583 7.73328 25.6583 7.73328 25.065 8.07808C24.4717 8.37362 24.4717 8.37362 23.829 8.71841C23.829 9.35875 23.829 9.35875 23.829 10.0483C23.829 10.4424 23.829 10.6394 23.829 10.8364L19.9728 13.447C19.775 13.3485 19.6267 13.25 19.2312 13.1022C18.6379 12.8067 18.6379 12.8067 18.0446 12.5112C17.4019 12.9052 17.4019 12.9052 16.7592 13.3485C16.1165 13.7426 16.1165 13.7426 15.5232 14.1859C15.4243 14.8755 15.4243 14.8755 15.3749 15.6143C15.276 16.3532 15.276 16.3532 15.2266 17.092C15.7704 17.4368 15.7704 17.4368 16.3637 17.7816C17.0064 17.9786 17.0064 17.9786 17.5997 18.3234ZM24.8178 9.99908C24.8178 9.7528 24.8178 9.50652 24.8178 9.26023C25.065 9.11246 25.3122 9.01395 25.5594 8.86618C25.8066 8.71841 26.0538 8.6199 26.301 8.47213C26.5482 8.6199 26.7954 8.76767 27.092 8.86618C27.3392 9.01395 27.5864 9.11246 27.8336 9.26023C27.8336 9.50652 27.8336 9.7528 27.8336 9.99908C27.8336 10.2454 27.8336 10.4916 27.8336 10.7872C27.5864 10.935 27.3392 11.0335 27.1415 11.1812C26.8943 11.329 26.5976 11.4768 26.3504 11.6245C26.1033 11.4768 25.8066 11.329 25.5594 11.1812C25.3122 11.0335 25.065 10.8857 24.8178 10.7379C24.8178 10.4916 24.8178 10.2454 24.8178 9.99908ZM16.3637 15.6143C16.4131 15.2695 16.4131 14.974 16.4625 14.6292C16.7592 14.4322 17.0558 14.2351 17.3525 14.0381C17.5997 13.8411 17.8963 13.6933 18.1435 13.4963C18.3907 13.5948 18.5884 13.7426 18.8356 13.8411C19.0334 13.9396 19.2806 14.0381 19.4784 14.1366C19.4784 14.4322 19.4289 14.7277 19.4289 15.0232C19.4289 15.368 19.3795 15.7128 19.3795 16.0576C19.0828 16.2547 18.7368 16.4517 18.4401 16.6487C18.1435 16.8457 17.8963 16.9935 17.5997 17.1905C17.3525 17.0428 17.1547 16.9442 16.9075 16.7965C16.7097 16.6487 16.512 16.5502 16.2648 16.4024C16.3142 16.2054 16.3637 15.9099 16.3637 15.6143Z" fill="black"/>
<path id="Vector_9" d="M27.5357 14.3829C27.0413 14.6784 27.0413 14.6784 26.5469 14.974C26.5469 15.565 26.5469 15.565 26.5469 16.1069C26.5469 16.6979 26.5469 16.6979 26.5469 17.289C27.0413 17.5846 27.0413 17.5846 27.5357 17.8801C28.0301 18.1756 28.0301 18.1756 28.5739 18.4712C29.0683 18.1756 29.0683 18.1756 29.6121 17.8801C30.1065 17.5846 30.1065 17.5846 30.6504 17.289C30.6504 16.6979 30.6504 16.6979 30.6504 16.1069C30.6504 15.5158 30.6504 15.5158 30.6504 14.974C30.156 14.6784 30.156 14.6784 29.6121 14.3829C29.1177 14.0873 29.1177 14.0873 28.6233 13.8411C28.0795 14.0873 28.0795 14.0873 27.5357 14.3829Z" fill="black"/>
<path id="Vector_10" d="M22.9409 21.0325C22.9409 20.1952 22.9409 20.1952 22.9903 19.4071C22.2982 19.013 22.2982 19.013 21.606 18.619C20.9139 18.2249 20.9139 18.2249 20.2712 17.8801C19.579 18.3234 19.579 18.3234 18.8869 18.7175C18.1947 19.1608 18.1947 19.1608 17.552 19.5548C17.5026 20.343 17.5026 20.343 17.5026 21.1803C17.5026 21.9684 17.5026 21.9684 17.4531 22.8058C18.0958 23.1998 18.0958 23.1998 18.788 23.5939C19.4801 23.9879 19.4801 23.9879 20.1229 24.4312C20.815 23.9879 20.815 23.9879 21.5072 23.5939C22.1993 23.1506 22.1993 23.1506 22.9409 22.7565C22.9409 21.8699 22.9409 21.8699 22.9409 21.0325Z" fill="black"/>
<path id="Vector_11" d="M41.2323 36.5482L39.2053 37.1393L36.7333 35.8586L36.2389 35.0212C36.2883 34.2331 36.2883 34.2331 36.2883 33.445C36.3378 32.6569 36.3378 32.6569 36.3378 31.8688L35.1512 31.1792C35.1018 31.13 35.0523 31.13 34.9535 31.0807C34.7557 30.9822 34.6568 30.9329 34.558 30.8344L33.5692 30.2926L30.6522 31.9673H29.5151L26.5488 30.2926L23.6813 31.9181H22.5936L19.7755 30.2434L19.2317 29.2582L19.1823 25.958L16.5125 24.3326L16.0181 23.3967L16.117 20.195C15.8204 19.998 15.6226 19.8995 15.4743 19.801L14.5844 19.2592C14.3372 19.1114 14.1889 19.0129 13.7934 18.7666L13.7439 17.5352L14.0406 14.6783C13.5462 14.432 13.5462 14.432 13.0518 14.1857C12.6068 13.9395 12.6068 13.9395 12.1619 13.7424C11.618 14.1365 11.618 14.1365 11.1236 14.5798C10.6292 15.0231 10.6292 15.0231 10.1348 15.4172L9.19549 16.0082C8.94829 15.8605 8.89885 15.8112 8.75054 15.7619L8.40446 15.5649C8.30558 15.4664 8.25614 15.4664 8.05838 15.3186C7.71231 15.7127 7.71231 15.7127 7.31679 16.156C6.97071 16.5501 6.97071 16.5501 6.67408 16.9934L6.0808 16.6978C5.88305 17.0919 5.88305 17.0919 5.73473 17.4859C5.68529 17.5844 5.68529 17.5844 5.63585 17.7322C5.38865 18.4711 5.14145 19.2099 4.99313 19.9488C4.94369 20.0965 4.94369 20.0965 4.94369 20.2935C4.94369 20.3921 4.94369 20.3921 4.94369 20.4413C4.89426 20.6876 4.84482 20.8846 4.79538 21.1309C4.79538 21.0817 4.79538 21.0324 4.79538 20.9831C4.79538 21.0817 4.74594 21.2294 4.74594 21.3279C2.52116 31.9673 7.41567 41.4246 15.1777 46.3995C20.3194 50.143 30.2073 51.0789 37.2771 48.025C37.6726 47.8772 37.7221 47.8772 38.167 47.6802C38.3648 47.5816 38.3648 47.5816 38.5625 47.4339C39.4525 46.9906 40.2435 46.4487 40.9851 45.8084C41.1334 45.7099 41.2817 45.6114 41.5784 45.4636C41.7761 45.2173 41.7761 45.1681 41.9244 44.9711C43.6054 43.2963 44.7919 41.1783 45.1874 38.5184C45.3358 37.9274 45.3358 37.9274 45.4346 37.287C45.5335 36.6467 45.5335 36.6467 45.6818 35.9571L43.7043 34.8735L41.2323 36.5482Z" fill="black"/>
</g>
<g id="Group_3">
<g id="Group_4">
<path id="Vector_12" d="M70.5001 16.2054V13.053H76.8283V16.2054H78.4104V13.053H84.7386V16.2054H87.9028V30.4405H83.1566V17.7816H79.9925V30.4405H75.2463V17.7816H72.0821V30.4405H67.3359V16.2054H70.5001Z" fill="black"/>
<path id="Vector_13" d="M92.6979 20.8356H95.862V19.2594H102.19V17.6832H95.862V12.9546H103.772V16.107H106.936V30.3421H92.6484V20.8356H92.6979ZM102.24 25.5643V23.988H97.4935V25.5643H102.24Z" fill="black"/>
<path id="Vector_14" d="M113.315 16.107V12.9546H118.061V16.107H122.808V20.8356H118.061V25.5643H122.808V30.2929H113.266V20.8356H110.102V16.107H113.315Z" fill="black"/>
<path id="Vector_15" d="M127.602 16.1069H132.348V17.6831H137.094V22.4118H132.348V30.2928H127.602V16.1069Z" fill="black"/>
<path id="Vector_16" d="M140.309 12.9053H145.055V17.6339H140.309V12.9053ZM145.055 19.2594V30.3421H140.309V19.2594H145.055Z" fill="black"/>
<path id="Vector_17" d="M149.801 20.8849V16.1562H156.129V20.8849H159.293V16.1562H164.039V22.4611H160.875V25.6135H164.039V30.3421H157.711V25.6135H154.547V30.3421H149.801V23.988H152.965V20.8356H149.801V20.8849Z" fill="black"/>
</g>
<g id="Group_5">
<path id="Vector_18" d="M67.5352 43.5922V35.0708H68.7711V42.3608H73.6657V43.5922H67.5352Z" fill="black"/>
<path id="Vector_19" d="M74.9023 43.5921V36.2529H76.1383V38.6665H79.7969V36.2529H81.0328V43.5429H79.7969V39.8979H76.1383V43.5429H74.9023V43.5921ZM76.0889 36.2529V35.0215H79.7474V36.2529H76.0889Z" fill="black"/>
<path id="Vector_20" d="M82.2188 38.7158V35.0708H83.4547V38.7158H82.2188ZM83.4547 39.8979V38.6665H84.6907V39.8979H83.4547ZM84.6413 43.5922V39.8979H85.8773V43.5429H84.6413V43.5922ZM85.8773 39.8979V38.6665H87.1133V39.8979H85.8773ZM87.1133 38.7158V35.0708H88.3492V38.7158H87.1133Z" fill="black"/>
<path id="Vector_21" d="M89.5352 43.5922V35.0708H95.6657V36.3022H90.7711V38.7158H94.4297V39.8979H90.7711V42.3608H95.6657V43.5922H89.5352Z" fill="black"/>
<path id="Vector_22" d="M96.9023 43.5922V35.0708H101.797V36.3022H98.1383V38.7158H101.797V39.8979H100.561V41.1294H99.3249V39.8979H98.0889V43.5429H96.9023V43.5922ZM100.561 42.3608V41.1294H101.797V42.3608H100.561ZM101.747 38.7158V36.3022H102.983V38.7158H101.747ZM101.747 43.5922V42.3608H102.983V43.5922H101.747Z" fill="black"/>
<path id="Vector_23" d="M110.301 43.5922V35.0708H115.195V36.3022H111.537V38.7158H115.195V39.8979H111.537V43.5429H110.301V43.5922ZM115.195 38.7158V36.3022H116.431V38.7158H115.195Z" fill="black"/>
<path id="Vector_24" d="M117.668 43.5922V35.0708H122.562V36.3022H118.904V38.7158H122.562V39.8979H121.326V41.1294H120.091V39.8979H118.855V43.5429H117.668V43.5922ZM121.326 42.3608V41.1294H122.562V42.3608H121.326ZM122.513 38.7158V36.3022H123.749V38.7158H122.513ZM122.513 43.5922V42.3608H123.749V43.5922H122.513Z" fill="black"/>
<path id="Vector_25" d="M124.984 42.3607V36.2529H126.22V42.3607H124.984ZM126.22 36.2529V35.0215H129.879V36.2529H126.22ZM126.22 43.5921V42.3607H129.879V43.5921H126.22ZM129.879 42.3607V36.2529H131.115V42.3607H129.879Z" fill="black"/>
<path id="Vector_26" d="M134.774 43.5921V36.2529H132.352V35.0215H138.433V36.2529H135.961V43.5429H134.774V43.5921Z" fill="black"/>
<path id="Vector_27" d="M139.617 42.3607V36.2529H140.853V42.3607H139.617ZM140.853 36.2529V35.0215H144.512V36.2529H140.853ZM140.853 43.5921V42.3607H144.512V43.5921H140.853ZM144.512 42.3607V36.2529H145.748V42.3607H144.512Z" fill="black"/>
<path id="Vector_28" d="M146.984 42.3607V36.2529H148.22V42.3607H146.984ZM148.171 36.2529V35.0215H151.829V36.2529H148.171ZM148.171 43.5921V42.3607H151.829V43.5921H148.171ZM151.879 37.4843V36.2529H153.115V37.4843H151.879ZM151.879 42.3607V41.1293H153.115V42.3607H151.879Z" fill="black"/>
<path id="Vector_29" d="M154.301 42.3607V36.2529H155.537V42.3607H154.301ZM155.537 36.2529V35.0215H159.195V36.2529H155.537ZM155.537 43.5921V42.3607H159.195V43.5921H155.537ZM159.195 42.3607V36.2529H160.431V42.3607H159.195Z" fill="black"/>
<path id="Vector_30" d="M161.617 43.5922V35.0708H162.853V42.3608H167.748V43.5922H161.617Z" fill="black"/>
</g>
</g>
</g>
</g>
</svg>
