<svg width="152" height="45" viewBox="0 0 152 45" fill="none" xmlns="http://www.w3.org/2000/svg">
<path fill-rule="evenodd" clip-rule="evenodd" d="M33.1295 14.3887C35.0015 13.3189 36.7163 11.9682 38.1971 10.3726C37.6999 9.75311 37.1697 9.16601 36.603 8.61133C33.2429 5.31565 28.6908 3.18697 23.6378 2.89162V6.83923H27.678C28.848 6.83923 29.912 7.30747 30.6798 8.06385C31.4476 8.81663 31.9266 9.86117 31.9266 11.0065V21.0989H42.4201C42.1898 17.9113 41.188 14.9325 39.5902 12.3464C37.7072 14.2842 35.5171 15.8726 33.1295 17.0648V14.3887ZM5.22848 32.5671C7.12974 30.6473 9.33813 29.0769 11.744 27.9064V30.5645C9.85367 31.6162 8.12059 32.9561 6.6142 34.5481C7.12608 35.1965 7.68184 35.8088 8.2705 36.3887C11.6306 39.6843 16.1827 41.813 21.2393 42.1084V38.1608H17.1991C16.0291 38.1608 14.9651 37.6925 14.1973 36.9361C13.4258 36.1834 12.9505 35.1388 12.9505 33.9935V23.4473H2.42411C2.58499 26.7682 3.58681 29.8766 5.22848 32.5635V32.5671ZM20.0839 10.9957H24.7932C24.9577 10.9957 25.093 11.129 25.093 11.2911C25.093 11.4532 24.9577 11.5864 24.7932 11.5864H20.0839C19.9194 11.5864 19.7841 11.4532 19.7841 11.2911C19.7841 11.129 19.9194 10.9957 20.0839 10.9957ZM22.4386 30.9607C23.3819 30.9607 24.1461 31.7099 24.1461 32.6356C24.1461 33.5612 23.3819 34.3104 22.4386 34.3104C21.4953 34.3104 20.7311 33.5612 20.7311 32.6356C20.7311 31.7099 21.4953 30.9607 22.4386 30.9607ZM7.68184 11.5756C8.87744 12.6742 10.19 13.6251 11.5941 14.4211L11.6196 14.4355L11.6343 14.4427L11.7001 14.4787L11.7403 14.5003L11.8061 14.5363L11.85 14.5616L11.9122 14.5976L11.956 14.6228L12.0182 14.6552L12.0657 14.6804L12.0877 14.6912L12.1571 14.7272L12.1754 14.738L12.2339 14.7669L12.2851 14.7957L12.2997 14.8029L12.3838 14.8461L12.4094 14.8569L12.4898 14.8965L12.5081 14.9073L12.5593 14.9325L12.5776 14.9398L12.6617 14.983H12.669L12.7312 15.0154L12.7787 15.037L12.797 15.0442L12.8847 15.0874H12.892L12.9542 15.1198C13.733 15.4908 14.5374 15.8186 15.3564 16.0959L15.4624 16.132L15.5648 16.168H15.5757L15.6708 16.2004L15.6927 16.2076L15.7768 16.2364H15.7805L15.8536 16.2616L15.8829 16.2724L15.9231 16.2832L15.9889 16.3048H15.9962L16.0876 16.3337H16.0986L16.1571 16.3553H16.1754L16.2631 16.3841H16.2741L16.3143 16.3985L16.3911 16.4201L16.424 16.4309L16.5081 16.4561L16.53 16.4633L16.6251 16.4885H16.6397L16.7421 16.521H16.7457L16.8554 16.5498H16.8591L16.9615 16.5786H16.9761L17.0712 16.6074L17.0931 16.6146L17.1808 16.6362L17.2138 16.6434H17.2284L17.3308 16.6722L17.4002 16.6866L17.4514 16.6974H17.466C17.6488 16.7443 17.8317 16.7839 18.0181 16.8199H18.0437L18.0584 16.8271L18.1644 16.8487H18.168L18.2777 16.8703H18.2814L18.3874 16.8919H18.402L18.5008 16.9136H18.5227L18.541 16.9208C18.6141 16.9316 18.6836 16.946 18.7567 16.9568H18.7713L18.8774 16.9748H18.881C20.0474 17.1657 21.2357 17.2593 22.4386 17.2521C24.4568 17.2449 26.4459 16.9568 28.3471 16.4129V18.8477C26.4385 19.334 24.4568 19.5897 22.4386 19.5969C20.0145 19.6077 17.6306 19.2547 15.3637 18.574V33.9971C15.3637 34.4941 15.5721 34.9479 15.9085 35.2757C16.2448 35.6035 16.7055 35.8088 17.2138 35.8088H27.7C28.2082 35.8088 28.6689 35.6035 29.0052 35.2757C29.3416 34.9479 29.55 34.4941 29.55 33.9971V29.999C30.3946 30.3304 31.2027 30.7518 31.9522 31.2561V33.9971C31.9522 35.1424 31.4732 36.187 30.7054 36.9398C29.9376 37.6925 28.8736 38.1644 27.7036 38.1644H23.6634V42.112C28.7201 41.8202 33.2685 39.688 36.6286 36.3923C36.8626 36.1618 37.0929 35.9276 37.316 35.6863C37.6889 36.4139 38.3873 36.9542 39.2282 37.1234C38.9357 37.444 38.6395 37.7538 38.3288 38.0563C34.2666 42.0363 28.6579 44.5 22.4642 44.5C16.2704 44.5 10.658 42.0363 6.59958 38.0563C2.51186 34.0763 0 28.5763 0 22.5C0 18.646 1.01279 15.0226 2.78608 11.8746C3.21021 12.5697 3.94147 13.0632 4.80069 13.1713C3.48443 15.5593 2.65811 18.2426 2.45336 21.0953H12.9469V17.706C12.7458 17.6195 12.541 17.5331 12.3436 17.443C9.96701 16.3661 7.76959 14.9073 5.85004 13.1064C6.67271 12.8975 7.34912 12.3248 7.68549 11.5756H7.68184ZM39.7547 33.0029C40.5847 33.0029 41.2574 33.6621 41.2574 34.4761C41.2574 35.2901 40.5847 35.9456 39.7547 35.9456C38.9247 35.9456 38.252 35.2865 38.252 34.4761C38.252 33.6657 38.9247 33.0029 39.7547 33.0029ZM5.15535 9.01834C5.98533 9.01834 6.65442 9.67747 6.65442 10.4915C6.65442 11.3055 5.98167 11.961 5.15535 11.961C4.32903 11.961 3.65262 11.3019 3.65262 10.4915C3.65262 9.68107 4.32538 9.01834 5.15535 9.01834ZM17.1955 6.83563H21.2357V2.88802C16.179 3.17976 11.6306 5.31205 8.26684 8.60773C8.04381 8.82384 7.82809 9.04715 7.61968 9.27407C7.24674 8.5465 6.54474 8.00622 5.70745 7.83694C5.98532 7.53078 6.27417 7.23183 6.57033 6.94008C10.6325 2.96365 16.2412 0.5 22.4386 0.5C28.636 0.5 34.2447 2.96365 38.3032 6.94368C42.3653 10.9237 44.8735 16.4237 44.8735 22.5C44.8735 26.3324 43.8717 29.9378 42.1167 33.075C41.6889 32.3834 40.954 31.8936 40.0947 31.7891C41.4658 29.2859 42.3031 26.4548 42.4494 23.4509H31.9303V27.4561C32.1204 27.539 32.3069 27.6218 32.497 27.7083C34.7968 28.7708 36.9247 30.1971 38.7894 31.944C38.007 32.2322 37.3964 32.8553 37.1368 33.6369C36.4714 33.0138 35.7657 32.4339 35.0271 31.9044L34.9723 31.8648L34.9577 31.854L34.9248 31.8323L34.8589 31.7855L34.848 31.7783L34.7785 31.7315L34.7566 31.7171L34.72 31.6919L34.6578 31.6487L34.6176 31.6234L34.5957 31.609L34.5226 31.5586L34.5006 31.5442L34.4165 31.4866L34.3178 31.4217L34.2886 31.4037L34.2154 31.3569L34.2008 31.3461L34.146 31.3137L34.0948 31.2813L34.0728 31.2669L33.9997 31.22L33.9814 31.2092L33.9047 31.1624L33.8827 31.1516L33.8352 31.1228L33.7767 31.0868L33.7621 31.0796L33.6889 31.0363L33.656 31.0147C33.5573 30.9535 33.4586 30.8959 33.3599 30.8346H33.3526L33.316 30.8058L33.2465 30.7662L33.2356 30.759L33.1551 30.7122L33.0527 30.6546L33.0308 30.6401L32.9979 30.6221L32.8443 30.5357L32.8114 30.5177L32.7858 30.5033L32.7054 30.4601L32.6798 30.4456L32.5957 30.4024L32.508 30.3556L32.4641 30.334L32.3763 30.2872L32.358 30.2764L32.2666 30.2295L32.1423 30.1683L32.0436 30.1179L32.0326 30.1107L31.9339 30.0602H31.923C31.1442 29.6749 30.3434 29.3399 29.5208 29.0517C29.4513 29.0265 29.3782 29.0013 29.3087 28.9797L29.2904 28.9725L29.1698 28.9329H29.1661C29.093 28.9077 29.0162 28.8825 28.9431 28.8572L28.9248 28.85C28.7712 28.7996 28.614 28.7528 28.4605 28.706H28.4568L28.3398 28.6735L28.2374 28.6447H28.2191V28.6375C28.1387 28.6159 28.0619 28.5943 27.9815 28.5727H27.9742L27.8718 28.5439H27.8608C26.1022 28.0792 24.274 27.8343 22.4203 27.8271C20.413 27.8199 18.4386 28.0864 16.5447 28.6087V26.1811C18.4459 25.7128 20.4203 25.4751 22.4203 25.4823C24.8627 25.4931 27.2539 25.8677 29.5281 26.5701V11.0065C29.5281 10.5095 29.3197 10.0557 28.9833 9.7279C28.6469 9.40013 28.1862 9.19483 27.678 9.19483H17.1918C16.6836 9.19483 16.2229 9.40013 15.8865 9.7279C15.5501 10.0593 15.3417 10.5095 15.3417 11.0065V14.9614C14.5227 14.72 13.7184 14.4211 12.9396 14.0645V11.0065C12.9396 9.85756 13.4185 8.81663 14.1864 8.06385C14.9542 7.30747 16.0181 6.83923 17.1882 6.83923L17.1955 6.83563Z" fill="white"/>
<path d="M56.8383 19.7357V17.2687H54.334V2.4669H59.3425V12.3348H61.8468V2.4669H64.351V12.3348H66.8553V2.4669H71.8638V17.2687H69.3595V19.7357H66.8553V17.2687H64.351V14.8017H61.8468V17.2687H59.3425V19.7357H56.8383Z" fill="white"/>
<path d="M76.8723 19.7357V17.2687H74.3681V4.93387H76.8723V2.4669H89.3936V4.93387H91.8979V17.2687H89.3936V19.7357H76.8723ZM79.3766 17.2687H86.8893V4.93387H79.3766V17.2687Z" fill="white"/>
<path d="M94.4021 19.7357V2.4669H109.428V4.93387H111.932V12.3348H106.923V14.8017H109.428V17.2687H111.932V19.7357H104.419V17.2687H101.915V14.8017H99.4106V19.7357H94.4021ZM99.4106 12.3348H104.419V9.8678H106.923V4.93387H99.4106V12.3348Z" fill="white"/>
<path d="M116.94 19.7357V2.4669H121.949V17.2687H131.966V19.7357H116.94Z" fill="white"/>
<path d="M134.47 19.7357V2.4669H146.991V4.93387H149.496V7.40084H152V14.8017H149.496V17.2687H146.991V19.7357H134.47ZM139.479 17.2687H144.487V14.8017H146.991V7.40084H144.487V4.93387H139.479V17.2687Z" fill="white"/>
<path d="M54.334 39.6589V22.3902H69.3595V24.8571H71.8638V32.258H69.3595V34.725H59.3425V39.6589H54.334ZM59.3425 32.258H66.8553V24.8571H59.3425V32.258Z" fill="white"/>
<path d="M74.3681 39.6589V22.3902H79.3766V29.7911H86.8893V22.3902H91.8979V39.6589H86.8893V32.258H79.3766V39.6589H74.3681Z" fill="white"/>
<path d="M96.9064 39.6589V37.192H94.4021V24.8571H96.9064V22.3902H109.428V24.8571H111.932V37.192H109.428V39.6589H96.9064ZM99.4106 37.192H106.923V24.8571H99.4106V37.192Z" fill="white"/>
<path d="M114.436 39.6589V22.3902H119.445V24.8571H121.949V27.3241H124.453V29.7911H126.957V22.3902H131.966V39.6589H126.957V34.725H124.453V32.258H121.949V29.7911H119.445V39.6589H114.436Z" fill="white"/>
<path d="M134.47 39.6589V22.3902H152V24.8571H139.479V29.7911H149.496V32.258H139.479V37.192H152V39.6589H134.47Z" fill="white"/>
</svg>
