<svg width="118" height="120" viewBox="0 0 118 120" fill="none" xmlns="http://www.w3.org/2000/svg">
<g filter="url(#filter0_d_490_1692)">
<path d="M27.0917 98.7718L27.0221 98.8756L27.0917 98.7717C26.3532 98.2774 25.4452 97.9986 24.4705 97.8174C23.6369 97.6625 22.7454 97.5775 21.8607 97.4933C21.7115 97.479 21.5624 97.4648 21.4138 97.4503C20.3811 97.3494 19.3717 97.2332 18.4698 96.9923C17.5686 96.7516 16.7849 96.3887 16.1975 95.8013C15.6101 95.2139 15.2472 94.4302 15.0064 93.5289C14.7655 92.6271 14.6493 91.6177 14.5484 90.585C14.5339 90.4363 14.5197 90.2872 14.5055 90.1379C14.4212 89.2533 14.3363 88.3618 14.1813 87.5283C14.0002 86.5536 13.7214 85.6455 13.227 84.9071L13.1231 84.9766L13.227 84.9071C12.736 84.1738 12.0049 83.5741 11.1744 83.038C10.4711 82.584 9.6884 82.1708 8.91049 81.7601C8.77012 81.686 8.62991 81.612 8.49034 81.5378C7.57404 81.0509 6.68435 80.5572 5.94129 79.9875C5.19869 79.4181 4.61066 78.7789 4.28953 78.0048C3.97449 77.2449 3.94105 76.3882 4.06497 75.4676C4.18895 74.5465 4.46882 73.572 4.77135 72.5797C4.81249 72.4448 4.85406 72.3095 4.89569 72.174C5.15912 71.3167 5.42517 70.4508 5.60262 69.6102C5.80821 68.6363 5.89776 67.6846 5.72344 66.8043C5.55431 65.9487 5.11112 65.1221 4.55121 64.3137C4.08333 63.6383 3.52832 62.9679 2.97522 62.2999C2.86668 62.1688 2.75822 62.0378 2.65051 61.9069C1.99147 61.1058 1.35913 60.3059 0.891172 59.4892C0.423526 58.6731 0.125 57.8486 0.125 56.9987C0.125 56.1489 0.423525 55.3245 0.891168 54.5085C1.35912 53.6919 1.99146 52.8922 2.6505 52.0912C2.7582 51.9604 2.86664 51.8294 2.97516 51.6984C3.52828 51.0305 4.08331 50.3602 4.55121 49.6848C5.11111 48.8766 5.55431 48.05 5.72345 47.1944C5.89744 46.3141 5.80773 45.3624 5.60209 44.3886C5.42466 43.5483 5.15878 42.6828 4.89552 41.8258C4.85379 41.6899 4.81212 41.5543 4.77089 41.419C4.46844 40.4268 4.18868 39.4523 4.06479 38.5312C3.94097 37.6106 3.97448 36.7538 4.28954 35.9939C4.6046 35.2339 5.18936 34.6015 5.93114 34.0344C6.67325 33.467 7.56381 32.9714 8.4817 32.4809C8.61485 32.4098 8.7486 32.3387 8.88252 32.2676C9.66853 31.85 10.4604 31.4293 11.1713 30.9678C12.0036 30.4275 12.7361 29.8245 13.227 29.0917L13.227 29.0917C13.7214 28.3532 14.0002 27.4452 14.1813 26.4705C14.3363 25.6369 14.4212 24.7454 14.5055 23.8608C14.5197 23.7115 14.5339 23.5624 14.5484 23.4138C14.6493 22.3811 14.7655 21.3717 15.0064 20.4698C15.2472 19.5686 15.6101 18.7849 16.1975 18.1975C16.7849 17.6101 17.5686 17.2472 18.4699 17.0064C19.3717 16.7655 20.3811 16.6493 21.4138 16.5484C21.5624 16.5339 21.7115 16.5197 21.8608 16.5055C22.7454 16.4212 23.6369 16.3363 24.4705 16.1813C25.4452 16.0002 26.3532 15.7214 27.0917 15.227L27.0221 15.1231L27.0917 15.227C27.825 14.736 28.4247 14.0049 28.9608 13.1744C29.4148 12.471 29.828 11.6883 30.2387 10.9104C30.3128 10.7701 30.3868 10.6299 30.4609 10.4903C30.9479 9.57404 31.4416 8.68435 32.0113 7.94129C32.5806 7.19869 33.2199 6.61066 33.9939 6.28953C34.7679 5.96841 35.6317 5.93221 36.5545 6.05498C37.478 6.17784 38.4506 6.45838 39.4393 6.76237C39.5815 6.80608 39.7241 6.85029 39.8668 6.89457C40.7132 7.15705 41.5667 7.42177 42.396 7.59921C43.3656 7.80669 44.314 7.89778 45.1944 7.72345C46.05 7.55431 46.8767 7.11112 47.685 6.55121C48.3605 6.08334 49.0308 5.52834 49.6988 4.97524C49.8299 4.8667 49.9609 4.75823 50.0919 4.65051C50.8929 3.99147 51.6929 3.35913 52.5095 2.89117C53.3256 2.42353 54.1502 2.125 55 2.125C55.8498 2.125 56.6743 2.42352 57.4903 2.89117C58.3068 3.35912 59.1066 3.99146 59.9075 4.6505C60.0384 4.7582 60.1693 4.86664 60.3004 4.97516C60.9683 5.52828 61.6385 6.08331 62.3139 6.55121C63.1221 7.11111 63.9487 7.55431 64.8044 7.72345C65.6846 7.89744 66.6363 7.80773 67.6102 7.60209C68.4504 7.42466 69.3159 7.15879 70.1729 6.89552C70.3088 6.85379 70.4444 6.81213 70.5797 6.77089C71.572 6.46844 72.5465 6.18868 73.4676 6.06479C74.3882 5.94097 75.2449 5.97448 76.0049 6.28954C76.7648 6.6046 77.3972 7.18936 77.9643 7.93114C78.5317 8.67325 79.0273 9.56381 79.5178 10.4817C79.589 10.6149 79.66 10.7486 79.7312 10.8825C80.1488 11.6685 80.5694 12.4604 81.0309 13.1713C81.5712 14.0036 82.1742 14.7361 82.9071 15.227C83.64 15.718 84.5453 15.995 85.5188 16.1755C86.3479 16.3293 87.2357 16.4144 88.1175 16.4989C88.2708 16.5136 88.4239 16.5283 88.5764 16.5433C89.6105 16.645 90.6221 16.7625 91.5257 17.0045C92.4288 17.2463 93.2139 17.6101 93.8013 18.1975C94.3887 18.7849 94.7516 19.5686 94.9923 20.4698C95.2332 21.3717 95.3494 22.3811 95.4503 23.4138C95.4648 23.5624 95.479 23.7115 95.4933 23.8607C95.5775 24.7454 95.6625 25.6369 95.8174 26.4705C95.9986 27.4452 96.2774 28.3532 96.7717 29.0917C97.2627 29.825 97.9938 30.4247 98.8244 30.9608C99.5277 31.4148 100.31 31.828 101.088 32.2387C101.229 32.3127 101.369 32.3868 101.508 32.4609C102.425 32.9479 103.314 33.4416 104.057 34.0113C104.8 34.5806 105.388 35.2199 105.709 35.9939C106.024 36.7538 106.058 37.6105 105.934 38.5312C105.81 39.4523 105.53 40.4267 105.227 41.419C105.186 41.5539 105.145 41.6891 105.103 41.8245C104.84 42.682 104.574 43.5479 104.396 44.3886C104.191 45.3624 104.101 46.3142 104.275 47.1944C104.444 48.05 104.888 48.8767 105.448 49.685C105.915 50.3605 106.47 51.0308 107.023 51.6988C107.132 51.8299 107.241 51.9609 107.348 52.0919C108.007 52.8929 108.64 53.6929 109.108 54.5095C109.575 55.3256 109.874 56.1502 109.874 57C109.874 57.8498 109.575 58.6743 109.108 59.4903C108.64 60.3068 108.007 61.1066 107.348 61.9075C107.241 62.0384 107.132 62.1694 107.024 62.3004C106.47 62.9683 105.915 63.6385 105.448 64.3139C104.888 65.1221 104.444 65.9487 104.275 66.8044C104.101 67.6846 104.191 68.6363 104.397 69.6102C104.574 70.4504 104.84 71.3159 105.103 72.173C105.145 72.3088 105.187 72.4444 105.228 72.5797C105.53 73.572 105.81 74.5465 105.934 75.4676C106.058 76.3882 106.024 77.2449 105.709 78.0049C105.388 78.7789 104.801 79.4182 104.058 79.9876C103.315 80.5574 102.425 81.0513 101.509 81.5383C101.369 81.6127 101.228 81.6869 101.088 81.7612C100.31 82.1717 99.5276 82.5848 98.8245 83.0385C97.9939 83.5745 97.2628 84.1741 96.7718 84.907C96.2808 85.64 96.0037 86.5453 95.8232 87.5188C95.6695 88.3478 95.5844 89.2355 95.4999 90.1173C95.4852 90.2707 95.4705 90.4238 95.4555 90.5764C95.3537 91.6105 95.2363 92.6221 94.9943 93.5257C94.7524 94.4288 94.3887 95.2139 93.8013 95.8013C93.2139 96.3887 92.4302 96.7516 91.5289 96.9923C90.6271 97.2332 89.6177 97.3494 88.585 97.4503C88.4364 97.4648 88.2873 97.479 88.138 97.4933C87.2534 97.5775 86.3619 97.6625 85.5283 97.8174C84.5536 97.9986 83.6455 98.2774 82.9071 98.7717C82.1686 99.2661 81.5662 99.9988 81.029 100.83C80.572 101.537 80.1574 102.324 79.7458 103.105C79.6738 103.241 79.6018 103.378 79.5298 103.514C79.0442 104.429 78.5525 105.317 77.9844 106.059C77.4168 106.801 76.7789 107.388 76.0048 107.709C75.2449 108.024 74.3882 108.058 73.4676 107.934C72.5465 107.81 71.572 107.53 70.5797 107.227C70.4449 107.186 70.3097 107.145 70.1743 107.103C69.3168 106.84 68.4508 106.574 67.6102 106.396C66.6363 106.191 65.6846 106.101 64.8043 106.275C63.9238 106.45 63.0848 106.895 62.2712 107.456C61.5791 107.934 60.8983 108.5 60.2225 109.063C60.1044 109.161 59.9865 109.259 59.8687 109.356C59.0738 110.014 58.2834 110.645 57.4747 111.111C56.6667 111.577 55.8486 111.874 54.9987 111.874C54.1489 111.874 53.3245 111.575 52.5085 111.108C51.6919 110.64 50.8922 110.007 50.0912 109.348C49.9603 109.241 49.8294 109.132 49.6983 109.024C49.0304 108.47 48.3602 107.915 47.6848 107.448C46.8766 106.888 46.05 106.444 45.1944 106.275C44.3141 106.101 43.3624 106.191 42.3886 106.397C41.5483 106.574 40.6828 106.84 39.8258 107.103C39.6899 107.145 39.5543 107.187 39.419 107.228C38.4268 107.53 37.4523 107.81 36.5312 107.934C35.6106 108.058 34.7538 108.024 33.9939 107.709C33.2199 107.388 32.5805 106.801 32.0111 106.058C31.4413 105.315 30.9475 104.425 30.4605 103.509C30.3861 103.369 30.3118 103.228 30.2375 103.087C29.827 102.31 29.414 101.528 28.9603 100.825C28.4242 99.9939 27.8247 99.2627 27.0917 98.7718Z" fill="url(#paint0_linear_490_1692)" stroke="white" stroke-width="0.25"/>
</g>
<g filter="url(#filter1_d_490_1692)">
<path d="M36.6976 36.7871C35.9431 36.5849 35.2998 36.2813 34.7677 35.8761C34.2357 35.471 33.8527 34.9798 33.6188 34.4025C33.3947 33.8279 33.3634 33.1999 33.525 32.5185L36.2 33.2353C36.1368 33.6279 36.1903 33.9574 36.3605 34.2235C36.5334 34.4799 36.8011 34.6566 37.1636 34.7538C37.536 34.8535 37.8523 34.849 38.1125 34.7402C38.3753 34.6216 38.5474 34.4104 38.6288 34.1066C38.6971 33.8519 38.6653 33.6176 38.5336 33.4037C38.4116 33.1925 38.2377 32.9989 38.0118 32.8229C37.7958 32.6494 37.4758 32.4324 37.0521 32.1719C36.4409 31.7875 35.9522 31.4361 35.586 31.1174C35.2198 30.7987 34.9386 30.3978 34.7425 29.9147C34.5464 29.4315 34.535 28.8666 34.7083 28.2199C34.9656 27.2597 35.5143 26.6033 36.3544 26.2508C37.1971 25.8885 38.177 25.857 39.2941 26.1563C40.4307 26.4608 41.2733 26.9807 41.822 27.7158C42.3733 28.4411 42.5435 29.2954 42.3326 30.2786L39.6134 29.55C39.6831 29.2116 39.6302 28.9191 39.4547 28.6726C39.2819 28.4162 39.0191 28.2408 38.6663 28.1462C38.3626 28.0649 38.0953 28.0825 37.8645 28.1992C37.6363 28.3061 37.4815 28.5114 37.4001 28.8152C37.3108 29.1483 37.398 29.45 37.6617 29.7202C37.9254 29.9904 38.3615 30.3225 38.97 30.7166C39.576 31.1205 40.0571 31.4805 40.4135 31.7965C40.7797 32.1152 41.0622 32.5112 41.2609 32.9846C41.4597 33.4579 41.4763 34.0032 41.3109 34.6205C41.1534 35.2084 40.8584 35.7018 40.426 36.1005C40.0034 36.5019 39.4699 36.7685 38.8254 36.9004C38.181 37.0323 37.4717 36.9945 36.6976 36.7871ZM46.4343 31.74C46.7817 31.4235 47.2024 31.2054 47.6966 31.0858C48.1907 30.9661 48.7269 30.9837 49.305 31.1386C49.9811 31.3198 50.5476 31.6554 51.0044 32.1454C51.4612 32.6353 51.7611 33.2408 51.904 33.9617C52.0567 34.6853 52.0201 35.4684 51.7943 36.3111C51.5685 37.1538 51.2073 37.8551 50.7107 38.4152C50.2265 38.9681 49.6627 39.3474 49.0195 39.5531C48.3789 39.749 47.7205 39.7564 47.0444 39.5752C46.4761 39.423 46.003 39.1702 45.6251 38.8169C45.2569 38.4662 45.0003 38.0718 44.8551 37.6338L43.5003 42.6899L40.987 42.0165L44.2321 29.9054L46.7455 30.5788L46.4343 31.74ZM49.2369 35.6258C49.4049 34.9987 49.3598 34.4615 49.1016 34.0142C48.8558 33.5598 48.4781 33.2643 47.9686 33.1278C47.4689 32.9939 46.9941 33.0609 46.5442 33.329C46.1041 33.5996 45.8 34.0485 45.632 34.6756C45.4639 35.3027 45.5028 35.8435 45.7486 36.298C46.0042 36.755 46.3819 37.0505 46.8816 37.1844C47.3814 37.3183 47.8562 37.2512 48.3061 36.9832C48.7586 36.7054 49.0689 36.2529 49.2369 35.6258ZM60.8755 38.6183C60.8125 38.8535 60.7322 39.0945 60.6345 39.3414L54.9464 37.8173C54.8491 38.3373 54.9057 38.7726 55.1164 39.1231C55.3394 39.4664 55.6616 39.6945 56.083 39.8074C56.7101 39.9755 57.217 39.8277 57.6038 39.3643L60.2788 40.081C59.9972 40.5832 59.6174 41.0013 59.1393 41.3353C58.671 41.6719 58.1346 41.8905 57.5301 41.991C56.9255 42.0916 56.2901 42.0526 55.6238 41.8741C54.8203 41.6588 54.1509 41.2956 53.6157 40.7847C53.0805 40.2737 52.7218 39.6525 52.5397 38.921C52.3576 38.1896 52.3808 37.3977 52.6092 36.5452C52.8377 35.6927 53.2087 34.9939 53.7223 34.4489C54.2457 33.9065 54.8669 33.5479 55.5859 33.373C56.3049 33.1981 57.071 33.2196 57.8843 33.4375C58.678 33.6501 59.3389 34.0058 59.8669 34.5043C60.395 35.0029 60.7478 35.6068 60.9253 36.316C61.1127 37.0278 61.096 37.7953 60.8755 38.6183ZM58.4806 37.2677C58.5961 36.8366 58.541 36.4543 58.3153 36.1207C58.0896 35.7872 57.7563 35.5614 57.3154 35.4432C56.894 35.3303 56.5036 35.357 56.144 35.5232C55.7942 35.692 55.5246 35.9926 55.3352 36.4249L58.4806 37.2677ZM61.6662 38.972C61.8947 38.1195 62.2657 37.4208 62.7793 36.8758C63.3027 36.3334 63.919 35.9734 64.6282 35.7959C65.3472 35.6209 66.1085 35.6411 66.9119 35.8564C67.9408 36.1321 68.726 36.6313 69.2675 37.354C69.8188 38.0793 70.0709 38.9608 70.0239 39.9984L67.3489 39.2817C67.2916 38.5942 66.9396 38.1638 66.2929 37.9905C65.8323 37.8671 65.4163 37.9499 65.0448 38.2389C64.6759 38.5182 64.4022 38.991 64.2237 39.6573C64.0451 40.3236 64.0445 40.8747 64.2217 41.3108C64.4015 41.7371 64.7217 42.0119 65.1823 42.1353C65.829 42.3086 66.349 42.1119 66.7424 41.5451L69.4174 42.2619C68.9446 43.1644 68.2868 43.7968 67.444 44.1591C66.6013 44.5214 65.6704 44.5661 64.6514 44.293C63.8479 44.0777 63.1785 43.7146 62.6433 43.2036C62.1179 42.6952 61.7641 42.0753 61.582 41.3439C61.4098 40.6151 61.4378 39.8245 61.6662 38.972ZM73.6563 36.8759C73.2154 36.7578 72.887 36.5332 72.6711 36.2023C72.4676 35.8642 72.4171 35.5041 72.5195 35.122C72.6245 34.73 72.8483 34.4435 73.1909 34.2622C73.546 34.0738 73.944 34.0386 74.3849 34.1568C74.816 34.2723 75.1333 34.4991 75.3368 34.8372C75.5527 35.1681 75.6081 35.5295 75.5031 35.9215C75.4007 36.3036 75.172 36.5889 74.817 36.7773C74.4743 36.9586 74.0875 36.9914 73.6563 36.8759ZM74.6772 38.0631L72.4797 46.2646L69.9663 45.5911L72.1639 37.3897L74.6772 38.0631ZM74.904 42.5033C75.1298 41.6606 75.4848 40.9628 75.9691 40.4099C76.4631 39.8597 77.0304 39.4866 77.671 39.2907C78.3116 39.0947 78.97 39.0874 79.6461 39.2685C80.2242 39.4234 80.6973 39.6762 81.0654 40.0269C81.4434 40.3802 81.6987 40.7795 81.8315 41.2246L82.1426 40.0635L84.6559 40.7369L82.4584 48.9384L79.945 48.2649L80.2562 47.1038C79.9088 47.4203 79.4831 47.6371 78.9792 47.7541C78.485 47.8737 77.9489 47.8561 77.3708 47.7012C76.7045 47.5226 76.1429 47.1884 75.6861 46.6984C75.2319 46.1986 74.9284 45.587 74.7757 44.8634C74.6355 44.1327 74.6782 43.346 74.904 42.5033ZM81.0438 44.1642C81.2119 43.5371 81.1681 42.995 80.9125 42.5379C80.6667 42.0835 80.2939 41.7893 79.7942 41.6554C79.2944 41.5215 78.8196 41.5886 78.3697 41.8566C77.9323 42.1175 77.6295 42.5614 77.4615 43.1886C77.2934 43.8157 77.331 44.3613 77.5742 44.8256C77.8298 45.2827 78.2075 45.5781 78.7072 45.712C79.2069 45.8459 79.6768 45.7776 80.1169 45.5069C80.5668 45.2389 80.8758 44.7913 81.0438 44.1642ZM89.7044 39.2226L86.79 50.099L84.2767 49.4256L87.191 38.5491L89.7044 39.2226ZM27.8425 49.5817C27.6824 50.1794 27.3981 50.6913 26.9899 51.1175C26.5842 51.534 26.0566 51.8179 25.4069 51.9694C24.7571 52.1209 24.0109 52.0837 23.1683 51.8579L21.6103 51.4404L20.6178 55.1443L18.1045 54.4709L20.8692 44.1529L24.9405 45.2438C25.7636 45.4644 26.4212 45.7929 26.9134 46.2293C27.4056 46.6658 27.7268 47.1719 27.877 47.7478C28.0273 48.3237 28.0158 48.9349 27.8425 49.5817ZM23.5128 49.8078C23.9929 49.9364 24.3808 49.9196 24.6763 49.7572C24.9719 49.5949 25.1748 49.3079 25.2851 48.8964C25.3953 48.4848 25.3631 48.1349 25.1883 47.8465C25.0135 47.5581 24.6861 47.3496 24.2059 47.221L22.839 46.8547L22.1459 49.4415L23.5128 49.8078ZM31.621 50.7674C32.0357 50.3954 32.4977 50.1411 33.0069 50.0045C33.5187 49.8581 34.0441 49.8571 34.583 50.0015L33.8702 52.6618L33.1794 52.4767C32.5523 52.3087 32.0452 52.3198 31.6581 52.5102C31.2737 52.6907 30.9909 53.119 30.8097 53.7951L29.7897 57.6019L27.2763 56.9285L29.4739 48.727L31.9872 49.4005L31.621 50.7674ZM42.4285 56.4515C42.3655 56.6867 42.2851 56.9277 42.1875 57.1746L36.4994 55.6505C36.402 56.1705 36.4587 56.6058 36.6693 56.9563C36.8924 57.2996 37.2146 57.5277 37.6359 57.6406C38.2631 57.8087 38.77 57.6609 39.1567 57.1975L41.8318 57.9142C41.5502 58.4164 41.1703 58.8345 40.6923 59.1685C40.224 59.5051 39.6876 59.7237 39.083 59.8242C38.4785 59.9248 37.843 59.8858 37.1767 59.7073C36.3732 59.492 35.7039 59.1288 35.1687 58.6179C34.6334 58.1069 34.2748 57.4857 34.0927 56.7542C33.9106 56.0228 33.9338 55.2309 34.1622 54.3784C34.3906 53.5259 34.7616 52.8272 35.2752 52.2821C35.7987 51.7397 36.4199 51.3811 37.1389 51.2062C37.8579 51.0313 38.624 51.0528 39.4373 51.2707C40.231 51.4833 40.8918 51.839 41.4199 52.3375C41.9479 52.8361 42.3007 53.44 42.4783 54.1492C42.6656 54.861 42.649 55.6285 42.4285 56.4515ZM40.0336 55.1009C40.1491 54.6698 40.094 54.2875 39.8683 53.9539C39.6426 53.6204 39.3093 53.3946 38.8684 53.2764C38.447 53.1635 38.0565 53.1902 37.6969 53.3564C37.3471 53.5252 37.0776 53.8258 36.8882 54.2581L40.0336 55.1009ZM50.6022 56.5308L50.043 58.6179L43.5759 56.885L44.1351 54.7979L50.6022 56.5308ZM54.8478 64.4422C54.0444 64.227 53.3652 63.8612 52.8104 63.345C52.2654 62.8313 51.892 62.2062 51.6903 61.4695C51.4985 60.7355 51.5167 59.9422 51.7451 59.0897C51.9709 58.247 52.3553 57.5571 52.8983 57.02C53.444 56.4731 54.0861 56.1147 54.8247 55.9451C55.5633 55.7754 56.3343 55.7982 57.1378 56.0135C57.9413 56.2288 58.6205 56.5946 59.1753 57.1108C59.7301 57.6271 60.107 58.2584 60.3061 59.0049C60.5078 59.7416 60.4957 60.5312 60.2699 61.3739C60.0441 62.2166 59.6535 62.9101 59.0981 63.4544C58.5551 63.9916 57.9094 64.3436 57.161 64.5107C56.4224 64.6804 55.6513 64.6575 54.8478 64.4422ZM55.4307 62.267C55.9108 62.3956 56.3647 62.3282 56.7924 62.0647C57.2299 61.8039 57.5366 61.3452 57.7125 60.6887C57.8884 60.0322 57.857 59.4829 57.6184 59.0409C57.3896 58.6015 57.0351 58.3175 56.555 58.1888C56.065 58.0575 55.6111 58.125 55.1933 58.3911C54.778 58.6474 54.4811 59.1087 54.3026 59.775C54.1267 60.4315 54.1482 60.9781 54.3673 61.4149C54.5961 61.8543 54.9506 62.1383 55.4307 62.267ZM64.8492 59.6708C65.2639 59.2989 65.7259 59.0446 66.2351 58.908C66.7469 58.7616 67.2723 58.7605 67.8112 58.905L67.0984 61.5653L66.4076 61.3802C65.7805 61.2121 65.2734 61.2233 64.8863 61.4136C64.5018 61.5942 64.219 62.0225 64.0379 62.6986L63.0179 66.5054L60.5045 65.8319L62.7021 57.6305L65.2154 58.3039L64.8492 59.6708ZM67.3943 63.2671C67.6201 62.4245 67.9751 61.7267 68.4593 61.1738C68.9533 60.6235 69.5207 60.2504 70.1613 60.0545C70.8019 59.8586 71.4602 59.8512 72.1363 60.0324C72.6753 60.1768 73.135 60.4207 73.5156 60.7642C73.9059 61.1104 74.1773 61.5087 74.3296 61.9591L75.3497 58.1523L77.863 58.8258L74.9487 69.7022L72.4353 69.0288L72.7504 67.8529C72.4102 68.1819 71.9881 68.4048 71.4842 68.5219C70.99 68.6415 70.4539 68.6239 69.8758 68.469C69.1997 68.2878 68.6332 67.9522 68.1764 67.4623C67.7222 66.9625 67.4187 66.3508 67.266 65.6273C67.1258 64.8965 67.1685 64.1098 67.3943 63.2671ZM73.5341 64.9281C73.7021 64.3009 73.6583 63.7589 73.4027 63.3018C73.1569 62.8473 72.7842 62.5532 72.2844 62.4193C71.7847 62.2854 71.3099 62.3524 70.86 62.6205C70.4225 62.8813 70.1198 63.3253 69.9517 63.9524C69.7837 64.5795 69.8213 65.1252 70.0645 65.5894C70.3201 66.0465 70.6977 66.342 71.1975 66.4759C71.6972 66.6098 72.1671 66.5414 72.6072 66.2708C73.0571 66.0027 73.3661 65.5552 73.5341 64.9281ZM85.6323 68.028C85.5693 68.2631 85.4889 68.5042 85.3913 68.7511L79.7032 67.2269C79.6058 67.747 79.6625 68.1822 79.8732 68.5327C80.0962 68.8761 80.4184 69.1042 80.8398 69.2171C81.4669 69.3851 81.9738 69.2374 82.3605 68.7739L85.0356 69.4907C84.754 69.9928 84.3742 70.4109 83.8961 70.7449C83.4278 71.0815 82.8914 71.3001 82.2868 71.4007C81.6823 71.5012 81.0468 71.4622 80.3805 71.2837C79.577 71.0684 78.9077 70.7053 78.3725 70.1943C77.8373 69.6833 77.4786 69.0621 77.2965 68.3307C77.1144 67.5992 77.1376 66.8073 77.366 65.9548C77.5944 65.1023 77.9654 64.4036 78.4791 63.8586C79.0025 63.3162 79.6237 62.9575 80.3427 62.7826C81.0617 62.6077 81.8278 62.6292 82.6411 62.8471C83.4348 63.0598 84.0957 63.4154 84.6237 63.914C85.1517 64.4125 85.5045 65.0164 85.6821 65.7256C85.8694 66.4374 85.8528 67.2049 85.6323 68.028ZM83.2374 66.6774C83.3529 66.2462 83.2978 65.8639 83.0721 65.5304C82.8464 65.1968 82.5131 64.971 82.0722 64.8528C81.6508 64.7399 81.2604 64.7666 80.9008 64.9328C80.551 65.1016 80.2814 65.4022 80.092 65.8346L83.2374 66.6774ZM90.1686 66.4552C90.5834 66.0832 91.0453 65.8289 91.5545 65.6923C92.0663 65.5459 92.5917 65.5449 93.1306 65.6893L92.4178 68.3496L91.727 68.1645C91.0999 67.9965 90.5928 68.0076 90.2057 68.198C89.8213 68.3785 89.5385 68.8068 89.3573 69.4829L88.3373 73.2897L85.824 72.6162L88.0215 64.4148L90.5349 65.0883L90.1686 66.4552ZM40.2769 75.6895C40.1167 76.2872 39.8325 76.7992 39.4242 77.2254C39.0186 77.6418 38.4909 77.9258 37.8412 78.0772C37.1915 78.2287 36.4453 78.1916 35.6026 77.9658L34.0446 77.5483L33.0522 81.2522L30.5389 80.5787L33.3035 70.2608L37.3749 71.3517C38.1979 71.5722 38.8556 71.9007 39.3478 72.3372C39.8399 72.7736 40.1611 73.2798 40.3114 73.8556C40.4617 74.4315 40.4501 75.0428 40.2769 75.6895ZM35.9472 75.9156C36.4273 76.0443 36.8151 76.0274 37.1107 75.8651C37.4062 75.7027 37.6092 75.4158 37.7194 75.0042C37.8297 74.5927 37.7974 74.2427 37.6227 73.9544C37.4479 73.666 37.1204 73.4575 36.6403 73.3288L35.2734 72.9625L34.5803 75.5494L35.9472 75.9156ZM44.0553 76.8752C44.4701 76.5033 44.932 76.249 45.4412 76.1124C45.9531 75.9659 46.4784 75.9649 47.0174 76.1093L46.3045 78.7697L45.6137 78.5846C44.9866 78.4165 44.4795 78.4277 44.0925 78.618C43.708 78.7986 43.4252 79.2269 43.2441 79.903L42.224 83.7098L39.7107 83.0363L41.9083 74.8349L44.4216 75.5083L44.0553 76.8752ZM49.6875 76.0056C49.2466 75.8875 48.9182 75.663 48.7023 75.3321C48.4988 74.994 48.4482 74.6339 48.5506 74.2517C48.6557 73.8598 48.8795 73.5732 49.2221 73.3919C49.5772 73.2035 49.9752 73.1684 50.4161 73.2865C50.8472 73.402 51.1645 73.6288 51.368 73.9669C51.5839 74.2978 51.6393 74.6592 51.5343 75.0512C51.4319 75.4333 51.2032 75.7186 50.8482 75.907C50.5055 76.0883 50.1186 76.1212 49.6875 76.0056ZM50.7084 77.1929L48.5108 85.3943L45.9975 84.7209L48.1951 76.5194L50.7084 77.1929ZM50.9313 81.6477C51.1597 80.7952 51.5307 80.0965 52.0443 79.5515C52.5677 79.0091 53.1841 78.6491 53.8933 78.4716C54.6123 78.2967 55.3735 78.3169 56.177 78.5321C57.2058 78.8078 57.991 79.307 58.5325 80.0297C59.0838 80.7551 59.336 81.6365 59.289 82.6742L56.614 81.9574C56.5566 81.2699 56.2046 80.8395 55.5579 80.6662C55.0974 80.5428 54.6814 80.6256 54.3098 80.9147C53.941 81.1939 53.6673 81.6667 53.4887 82.333C53.3102 82.9993 53.3095 83.5505 53.4867 83.9865C53.6666 84.4128 53.9868 84.6876 54.4473 84.811C55.094 84.9843 55.6141 84.7876 56.0075 84.2209L58.6825 84.9376C58.2096 85.8401 57.5518 86.4726 56.7091 86.8349C55.8664 87.1972 54.9355 87.2418 53.9164 86.9687C53.1129 86.7535 52.4436 86.3903 51.9084 85.8793C51.3829 85.371 51.0292 84.7511 50.8471 84.0196C50.6748 83.2908 50.7029 82.5002 50.9313 81.6477ZM68.0967 86.1054C68.0337 86.3406 67.9533 86.5816 67.8557 86.8285L62.1676 85.3044C62.0703 85.8244 62.1269 86.2597 62.3376 86.6102C62.5606 86.9535 62.8828 87.1816 63.3042 87.2945C63.9313 87.4625 64.4382 87.3148 64.8249 86.8513L67.5 87.5681C67.2184 88.0703 66.8386 88.4883 66.3605 88.8223C65.8922 89.1589 65.3558 89.3775 64.7512 89.4781C64.1467 89.5787 63.5112 89.5397 62.8449 89.3611C62.0414 89.1458 61.3721 88.7827 60.8369 88.2717C60.3017 87.7607 59.943 87.1395 59.7609 86.4081C59.5788 85.6767 59.602 84.8847 59.8304 84.0322C60.0588 83.1798 60.4298 82.481 60.9435 81.936C61.4669 81.3936 62.0881 81.0349 62.8071 80.86C63.5261 80.6851 64.2922 80.7066 65.1055 80.9245C65.8992 81.1372 66.5601 81.4928 67.0881 81.9914C67.6162 82.4899 67.9689 83.0938 68.1465 83.803C68.3338 84.5149 68.3172 85.2823 68.0967 86.1054ZM65.7018 84.7548C65.8173 84.3237 65.7622 83.9413 65.5365 83.6078C65.3108 83.2743 64.9775 83.0484 64.5366 82.9303C64.1152 82.8174 63.7248 82.844 63.3652 83.0102C63.0154 83.179 62.7458 83.4796 62.5564 83.912L65.7018 84.7548Z" fill="white"/>
</g>
<defs>
<filter id="filter0_d_490_1692" x="0" y="2" width="117.999" height="117.999" filterUnits="userSpaceOnUse" color-interpolation-filters="sRGB">
<feFlood flood-opacity="0" result="BackgroundImageFix"/>
<feColorMatrix in="SourceAlpha" type="matrix" values="0 0 0 0 0 0 0 0 0 0 0 0 0 0 0 0 0 0 127 0" result="hardAlpha"/>
<feOffset dx="4" dy="4"/>
<feGaussianBlur stdDeviation="2"/>
<feComposite in2="hardAlpha" operator="out"/>
<feColorMatrix type="matrix" values="0 0 0 0 0 0 0 0 0 0 0 0 0 0 0 0 0 0 0.25 0"/>
<feBlend mode="normal" in2="BackgroundImageFix" result="effect1_dropShadow_490_1692"/>
<feBlend mode="normal" in="SourceGraphic" in2="effect1_dropShadow_490_1692" result="shape"/>
</filter>
<filter id="filter1_d_490_1692" x="12.3789" y="21.4475" width="89.3789" height="75.8994" filterUnits="userSpaceOnUse" color-interpolation-filters="sRGB">
<feFlood flood-opacity="0" result="BackgroundImageFix"/>
<feColorMatrix in="SourceAlpha" type="matrix" values="0 0 0 0 0 0 0 0 0 0 0 0 0 0 0 0 0 0 127 0" result="hardAlpha"/>
<feOffset dx="1" dy="1"/>
<feGaussianBlur stdDeviation="0.5"/>
<feComposite in2="hardAlpha" operator="out"/>
<feColorMatrix type="matrix" values="0 0 0 0 0.383691 0 0 0 0 0.0754019 0 0 0 0 0.334365 0 0 0 0.25 0"/>
<feBlend mode="normal" in2="BackgroundImageFix" result="effect1_dropShadow_490_1692"/>
<feBlend mode="normal" in="SourceGraphic" in2="effect1_dropShadow_490_1692" result="shape"/>
</filter>
<linearGradient id="paint0_linear_490_1692" x1="156" y1="99" x2="39.5" y2="22" gradientUnits="userSpaceOnUse">
<stop stop-color="#00FFE5"/>
<stop offset="1" stop-color="#FF30F7"/>
</linearGradient>
</defs>
</svg>
