<svg width="120" height="120" viewBox="0 0 120 120" fill="none" xmlns="http://www.w3.org/2000/svg">
<path d="M57.486 21.0705L59.4367 19.9443L59.4095 10.379L57.7375 12.2859C56.6847 13.4177 56.268 12.1375 57.0775 11.1928L59.3076 8.56614C59.632 8.19091 59.8553 8.13583 60.1115 7.97059C60.5462 7.71958 60.8994 7.90356 60.9013 8.42059L60.9313 19.0809L62.5577 18.142C63.4769 17.6111 63.5132 19.196 62.5619 19.7447L57.4907 22.6732C56.5584 23.212 56.583 21.5918 57.486 21.0705ZM45.0939 29.9215C45.082 25.7496 40.648 27.8953 37.6661 31.3408C36.913 32.246 37.4397 33.2878 38.2431 32.347C40.1608 30.2592 43.642 27.9143 43.6509 30.8897C43.6581 33.434 39.258 37.2691 37.6033 40.9936C37.2702 41.7424 37.1062 42.4411 37.1078 43.0957C37.1097 43.6886 37.4868 43.8586 37.9806 43.5733L44.3165 39.9154C45.2711 39.3647 45.2132 37.792 44.3118 38.3128L38.5977 41.6118C39.5355 38.7761 45.1054 33.8571 45.0939 29.9215ZM77.2171 33.9302C76.3333 34.0282 75.8336 35.7541 76.6792 35.6754C80.0055 35.3212 84.3641 32.047 84.3531 28.3558C84.3475 26.434 83.3441 25.9364 81.9473 26.3789C83.122 25.2091 83.928 23.7759 83.9237 22.0828C83.913 18.1659 79.2543 20.7799 76.7113 23.8108C76.0387 24.6103 76.4615 25.605 77.2879 24.7415C78.9517 22.8942 82.4221 20.6714 82.4291 23.1164C82.4313 23.8701 82.146 24.603 81.5638 25.3247C80.6362 26.478 79.3724 27.127 78.9552 27.4068C78.0421 27.934 78.0578 29.515 78.9599 28.9938C79.7369 28.7032 82.8508 26.5469 82.8576 29.1236C82.8597 29.8774 82.5714 30.5845 81.9852 31.2407C80.8621 32.5064 78.8652 33.7432 77.2171 33.9302ZM9.47266 82.594L9.48977 74.966H9.49352C9.4975 73.4379 10.4746 72.0274 12.2535 70.9938L34.2032 58.2384L34.1784 50.9254C34.1784 50.9224 34.1784 50.9184 34.1784 50.9151C34.1784 50.9111 34.1767 50.9076 34.1767 50.9039C34.1784 50.3306 34.5325 49.7969 35.1496 49.4404L43.2194 44.7808C44.2677 44.174 45.9093 44.175 46.9544 44.7818L51.2875 47.2999C51.288 47.4778 51.2437 30.6239 51.2427 30.3044C51.2427 30.3007 51.2411 30.2969 51.2411 30.2932C51.2427 29.7199 51.5969 29.1862 52.214 28.8297L60.2838 24.1701C61.3321 23.5652 62.9737 23.5643 64.0188 24.1711L72.0454 28.8358C72.6573 29.1907 73.0061 29.7227 73.0061 30.2941C73.0415 45.4497 73.0293 40.2225 73.0319 41.3533L77.3495 38.8605C78.3979 38.2537 80.0395 38.2547 81.0845 38.8615L89.1095 43.5253C89.7215 43.8801 90.0702 44.4122 90.0702 44.9845C90.0702 44.9955 90.0655 45.0058 90.0651 45.0168L90.1635 60.8369L107.729 70.9783C109.53 72.0183 110.524 73.4404 110.527 74.9831C110.527 74.9976 110.52 75.0115 110.52 75.026V82.6249C110.501 84.1624 109.515 85.5726 107.741 86.6048L66.3831 110.637C64.6696 111.639 62.4128 112.14 60.1509 112.14C57.8889 112.14 55.6237 111.639 53.8945 110.638L12.2847 86.6212C10.4713 85.5665 9.47266 84.1366 9.47266 82.594ZM88.7549 46.6446C89.2645 46.35 81.2109 51.0054 81.0325 51.1085C81.0309 51.1094 81.029 51.1111 81.0273 51.112C80.6837 51.3051 80.0577 51.4748 79.8295 51.51L79.881 71.771C80.1166 71.7255 80.328 71.6524 80.4981 71.5554L88.5609 66.9035C88.7929 66.7659 88.8789 66.6286 88.8789 66.5709L88.7549 46.6446ZM73.0359 42.8747L73.0483 47.1112L77.957 49.9652C78.5252 50.2954 79.6912 50.3536 80.3671 49.9638C79.8374 50.2699 88.2618 45.4022 88.4402 45.299C88.4969 45.2676 88.5133 45.2432 88.551 45.214C88.6816 45.1113 88.7491 45.0201 88.7495 44.9822C88.7495 44.9819 88.7495 44.9817 88.7495 44.9815C88.7495 44.9332 88.686 44.8061 88.4453 44.6662L80.4203 40.0024C79.7793 39.6302 78.6527 39.6318 78.0088 40.0033L73.0359 42.8747ZM78.5092 51.5125C78.2793 51.4783 77.6376 51.304 77.2991 51.1094L77.2952 51.1071C77.2942 51.1066 77.293 51.1064 77.2921 51.1059L73.0527 48.6415L73.1116 68.6681L78.081 71.5577C78.2134 71.6341 78.3784 71.696 78.5605 71.7408L78.5092 51.5125ZM52.8684 30.6096L60.8929 35.2757C61.5182 35.636 62.6561 35.6458 63.303 35.2743C62.7733 35.5804 71.196 30.7118 71.3744 30.6086C71.7967 30.3771 71.7677 30.2018 71.3812 29.977L63.3548 25.3122C62.7154 24.941 61.5897 24.9419 60.9433 25.3132L52.8735 29.9728C52.4859 30.1973 52.4465 30.3654 52.8684 30.6096ZM71.684 31.9591C71.5042 32.0695 63.5985 36.6914 62.7644 36.82L62.7887 57.4626L62.8185 81.6229C63.0522 81.5775 63.2636 81.5043 63.4321 81.4073L71.4967 76.7554C71.7287 76.6179 71.8148 76.4805 71.8148 76.4229L71.684 31.9591ZM55.9417 50.9048C55.9417 50.9196 55.9356 50.9334 55.9349 50.9482L56.0397 78.5158L61.0155 81.4097C61.1512 81.487 61.3145 81.5498 61.4966 81.5943L61.4434 36.8226C60.0318 36.6089 59.488 35.819 52.5677 31.9643L52.6098 48.0684L54.981 49.4463C55.5911 49.8014 55.9417 50.3334 55.9417 50.9048ZM54.6217 52.5689C55.1312 52.2743 47.0828 56.9266 46.9045 57.0297C46.9028 57.0307 46.9009 57.0323 46.8977 57.034C46.5412 57.2334 45.8983 57.4005 45.6998 57.431L45.7298 76.6136L45.7534 91.4747C45.989 91.429 46.1983 91.3561 46.3666 91.26L54.4328 86.6072C54.6632 86.4705 54.749 86.3329 54.749 86.2755L54.6217 52.5689ZM35.4972 50.905C35.4972 50.906 35.4977 50.9065 35.4977 50.9074C35.4977 50.9222 35.5199 50.9545 35.5352 50.9819C35.5682 51.0398 35.6315 51.1202 35.8028 51.2196L35.8045 51.2205L40.9724 54.2261L43.8278 55.8853C44.4513 56.2472 45.5873 56.2596 46.2393 55.8843C45.7096 56.1904 54.1323 51.3227 54.3107 51.2196C54.7431 50.9817 54.6906 50.8038 54.3175 50.5879L46.2909 45.9232C45.6515 45.5519 44.5258 45.551 43.8794 45.9241L35.8096 50.5837C35.5813 50.7154 35.4977 50.8481 35.4972 50.905ZM44.4105 77.329L44.3786 57.4326C44.144 57.3972 43.5126 57.2257 43.1711 57.0316L40.4992 55.4779L35.5035 52.5752L35.6186 86.2861C35.6186 86.3144 35.6737 86.4485 35.9245 86.5945L43.9511 91.2618C44.0868 91.3392 44.2502 91.402 44.4323 91.4465L44.4105 77.329ZM10.8116 74.9772C10.813 75.7207 11.2113 76.4426 11.9216 77.0861C12.2165 77.3508 12.5502 77.6046 12.955 77.8338L54.5702 101.868C55.1158 102.184 55.7355 102.424 56.3795 102.629C58.4643 103.288 60.9391 103.383 63.1103 102.878C64.0673 102.655 64.9628 102.319 65.7353 101.869L107.094 77.8375C108.431 77.058 109.2 76.0235 109.2 74.9997H109.204C109.204 74.9948 109.206 74.9901 109.206 74.9852C109.205 73.9333 108.445 72.9166 107.068 72.1216L90.1722 62.3667L90.1984 66.5665C90.1984 67.1465 89.8546 67.669 89.2291 68.0421L81.1541 72.7001C80.0791 73.3122 78.426 73.2759 77.421 72.7017L73.116 70.1981L73.1345 76.4212C73.1345 77.0004 72.7891 77.523 72.1635 77.8943L64.0905 82.5522C63.0419 83.1532 61.3884 83.1424 60.3555 82.5539L56.0451 80.0468L56.0687 86.2732C56.0687 86.8533 55.7249 87.3757 55.0994 87.7462L47.0245 92.4042C45.9646 93.0138 44.3088 92.9854 43.2913 92.4058L35.2612 87.7359C34.6492 87.3811 34.2986 86.8532 34.2986 86.2886L34.2084 59.7625L12.917 72.1354C11.5577 72.925 10.81 73.9347 10.8116 74.9772ZM10.7927 82.5958C10.7927 83.6322 11.578 84.6832 12.9463 85.4791L54.5545 109.495C57.6482 111.288 62.6584 111.288 65.718 109.496L107.077 85.4636C108.412 84.686 109.186 83.6477 109.2 82.6165V77.8821C109.158 77.924 109.105 77.9615 109.061 78.0028C108.969 78.0895 108.871 78.1729 108.77 78.2566C108.464 78.5123 108.136 78.7582 107.758 78.9787L66.3986 103.013C65.4958 103.538 64.4563 103.921 63.3545 104.174C61.4322 104.617 59.3219 104.631 57.3698 104.245C56.118 103.998 54.9273 103.602 53.9099 103.014L12.295 78.9872C12.2193 78.9436 12.1673 78.8904 12.0948 78.8454C11.797 78.6642 11.5246 78.4701 11.2741 78.2646C11.1705 78.1795 11.0704 78.0944 10.9759 78.0061C10.9209 77.9552 10.8552 77.909 10.8032 77.8568L10.7927 82.5958Z" fill="url(#paint0_linear_490_1677)"/>
<defs>
<linearGradient id="paint0_linear_490_1677" x1="59.9999" y1="7.85937" x2="59.9999" y2="112.14" gradientUnits="userSpaceOnUse">
<stop stop-color="#00FFE5"/>
<stop offset="1" stop-color="#FF30F7"/>
</linearGradient>
</defs>
</svg>
