<svg width="120" height="120" viewBox="0 0 120 120" fill="none" xmlns="http://www.w3.org/2000/svg">
<path d="M8.60305 89.9136L53.4238 115.783C57.1475 117.939 63.1829 117.94 66.8759 115.782L111.424 89.896C113.335 88.7841 114.398 87.2651 114.418 85.609V77.424C114.418 77.4083 114.425 77.3935 114.425 77.3778C114.422 75.7161 113.352 74.1842 111.411 73.0641L86.5604 58.7164C86.5609 58.5183 86.6211 36.7147 86.6211 36.4712C86.6173 34.2282 85.1548 32.149 82.5017 30.6169C81.5551 30.0701 80.4795 29.6581 79.3543 29.3206L79.3229 18.3755C79.288 4.94654 68.2065 -1.44041 56.4969 5.32037C46.7752 10.932 39.1862 24.0816 39.2178 35.2547L39.2448 44.8791L37.535 45.8726C34.9297 47.3862 33.4934 49.4372 33.4831 51.6514C33.4827 51.6558 33.4803 51.6594 33.4803 51.6638L33.4599 58.6165L8.56977 73.0808C6.97016 74.0098 5.59273 75.5021 5.59273 77.3593L5.57422 85.5758C5.57422 87.2375 6.64977 88.7778 8.60305 89.9136ZM85.1844 40.1572L85.1066 71.6033C85.0918 73.3111 83.9014 74.9377 81.7555 76.1836C54.1773 92.0579 55.4727 91.8038 52.5875 92.6729C52.5877 92.4586 52.6196 59.3033 52.6198 59.048C53.7751 58.7307 55.2577 58.1539 56.319 57.5372L56.3199 57.5368C56.3209 57.5363 56.3218 57.5361 56.3227 57.5356C58.122 56.4901 79.6627 43.9735 82.5737 42.282C82.5837 42.2759 82.5913 42.2689 82.6013 42.263C83.622 41.6654 84.5996 40.8446 85.1844 40.1572ZM34.891 55.3229C34.9142 55.3508 34.9484 55.3751 34.9716 55.4028C38.3731 59.3808 45.7632 60.455 51.1974 59.3822C51.1941 62.8273 51.1684 89.5252 51.1651 93.0387C46.7218 93.9969 41.5749 93.3636 38.2016 91.4206C36.0076 90.1496 34.7987 88.5073 34.7987 86.7976L34.891 55.3229ZM57.208 6.55154C67.9435 0.353963 77.866 6.01576 77.9012 18.3793L77.9492 35.1512C77.957 38.8301 69.8792 38.8475 69.8715 35.1744L69.8234 18.4015C69.8 12.264 66.5764 10.4778 61.2477 13.549C54.4327 17.4833 48.6952 27.4114 48.7173 35.229L48.7634 52.0008C48.7726 54.8183 40.6948 54.8058 40.6857 52.0231L40.6395 35.2512C40.6084 24.5389 47.8862 11.9326 57.208 6.55154ZM50.1392 35.225C50.117 27.8537 55.5305 18.4911 61.9585 14.78C66.2696 12.2963 68.3853 13.3419 68.4015 18.406L68.4315 28.9212C63.7276 29.9394 63.2255 31.2474 50.1484 38.5421L50.1392 35.225ZM38.2496 47.1019L39.249 46.5212L39.2642 52.0266C39.2724 56.7427 50.2018 56.7181 50.1856 51.9971L50.1533 40.1841C64.8477 31.9344 64.2685 31.3733 68.4359 30.3802L68.4498 35.1779C68.4645 40.7609 79.3859 40.719 79.3712 35.1474L79.3587 30.8122C80.221 31.0962 81.0528 31.4222 81.7911 31.8481C83.9851 33.1142 85.1949 34.7553 85.1991 36.4693C85.1129 36.6589 85.4806 38.9457 81.8579 41.0525C79.4996 42.4229 58.6913 54.5145 55.606 56.3075C48.1895 60.6141 34.9149 57.5778 34.9037 51.6734C34.9051 49.9784 36.0922 48.3551 38.2496 47.1019ZM9.28437 74.3101L33.455 60.264L33.3767 86.7959C33.3767 89.0351 34.8376 91.1152 37.4905 92.652C40.0548 94.1295 43.4316 94.9107 46.8659 94.9107C48.6099 94.9107 50.3705 94.7089 52.0461 94.295C56.2137 93.2651 55.314 92.941 82.4701 77.4129C85.0677 75.905 86.5079 73.8462 86.5283 71.6115L86.5559 60.3554L110.7 74.2951C113.827 76.1004 113.686 78.7273 110.728 80.4519L66.178 106.338C62.7936 108.308 57.3385 108.183 54.1513 106.337L9.32516 80.4483C6.27242 78.7194 6.23539 76.0812 9.28437 74.3101ZM7.00719 80.4734C7.38664 80.8536 8.30844 81.5147 8.6143 81.6908L53.4404 107.572C57.0582 109.66 63.054 109.802 66.8926 107.571L111.443 81.6816C112.042 81.3324 112.801 80.6975 112.996 80.5004V85.6001C112.981 86.7111 112.148 87.8293 110.71 88.6669L66.1595 114.554C62.8639 116.481 57.4672 116.481 54.1346 114.552L9.31578 88.6833C7.84203 87.8262 6.99594 86.694 6.99594 85.5776L7.00719 80.4734ZM72.6894 65.712C72.6598 65.589 72.7079 65.3222 72.8802 65.004C73.8688 63.173 74.289 61.1947 74.0373 59.5812C73.6515 57.0254 71.4001 55.6273 68.4941 57.2937V57.2947C65.743 58.8833 63.5935 62.6138 63.6008 65.787C63.6045 67.3116 64.1359 68.5095 65.0281 69.0917C65.0429 69.1203 65.0689 69.2518 65.0244 69.4796L63.6005 76.8176C63.3181 78.2836 64.4553 79.2216 65.7038 78.5042L72.8059 74.4024C73.7834 73.8397 74.4221 72.4723 74.1704 71.4725L72.6894 65.712ZM72.095 73.1715L64.9948 77.4038C64.9948 77.4029 64.9541 77.3112 64.9967 77.0862L66.4205 69.7529C66.5743 68.9715 66.376 68.3089 65.8911 67.9819C65.3337 67.6044 65.0265 66.8229 65.0227 65.7835C65.0152 63.1165 66.8926 59.8608 69.2052 58.5261C71.1493 57.4114 72.3798 58.1326 72.6322 59.798C72.8377 61.1143 72.473 62.7659 71.6288 64.3285C71.303 64.9329 71.1882 65.5402 71.3084 66.0521L72.7932 71.8229C72.8802 72.1688 72.545 72.9122 72.095 73.1715Z" fill="url(#paint0_linear_490_1661)"/>
<defs>
<linearGradient id="paint0_linear_490_1661" x1="59.9998" y1="2.59863" x2="59.9998" y2="117.4" gradientUnits="userSpaceOnUse">
<stop stop-color="#00FFE5"/>
<stop offset="1" stop-color="#FF30F7"/>
</linearGradient>
</defs>
</svg>
