<svg width="313" height="107" viewBox="0 0 313 107" fill="none" xmlns="http://www.w3.org/2000/svg">
<mask id="path-1-inside-1_490_4208" fill="white">
<path d="M0.955078 32C0.955078 14.3269 15.282 0 32.9551 0H280.955C298.628 0 312.955 14.3269 312.955 32V75C312.955 92.6731 298.628 107 280.955 107H32.9551C15.282 107 0.955078 92.6731 0.955078 75V32Z"/>
</mask>
<path d="M0.955078 32C0.955078 14.0236 15.5279 -0.549231 33.5043 -0.549231H280.955C298.932 -0.549231 313.504 14.0236 313.504 32L312.406 32C312.406 14.6302 298.325 0.549231 280.955 0.549231H32.9551C15.282 0.549231 0.955078 14.6302 0.955078 32V32ZM313.504 75C313.504 92.9764 298.932 107.549 280.955 107.549H33.5043C15.5279 107.549 0.955078 92.9764 0.955078 75V75C0.955078 92.3698 15.282 106.451 32.9551 106.451H280.955C298.325 106.451 312.406 92.3698 312.406 75L313.504 75ZM0.955078 107V0V107ZM280.955 -0.549231C298.932 -0.549231 313.504 14.0236 313.504 32V75C313.504 92.9764 298.932 107.549 280.955 107.549L280.955 106.451C298.325 106.451 312.406 92.3698 312.406 75V32C312.406 14.6302 298.325 0.549231 280.955 0.549231L280.955 -0.549231Z" fill="url(#paint0_linear_490_4208)" mask="url(#path-1-inside-1_490_4208)"/>
<defs>
<linearGradient id="paint0_linear_490_4208" x1="289.353" y1="53.5" x2="41.9382" y2="45.7102" gradientUnits="userSpaceOnUse">
<stop offset="0.135" stop-color="white"/>
<stop offset="0.550651" stop-color="#00FFE5"/>
<stop offset="1" stop-color="#FF30FA"/>
</linearGradient>
</defs>
</svg>
