<svg width="120" height="120" viewBox="0 0 120 120" fill="none" xmlns="http://www.w3.org/2000/svg">
<path d="M5.59086 77.9355V77.9374V77.943L5.57422 86.1513C5.57422 87.814 6.65 89.3543 8.60305 90.4891L53.4238 116.36C57.1487 118.516 63.1841 118.516 66.8759 116.359L111.424 90.4715C113.335 89.359 114.398 87.8407 114.418 86.1855C114.42 84.1275 114.424 80.0114 114.425 77.9534C114.422 76.2926 113.352 74.7607 111.411 73.6406L82.1731 56.7595C85.2641 54.2203 87.5844 49.7161 87.5745 45.9389L87.4745 10.9584C87.4688 8.73562 86.6778 7.05726 85.2584 6.21257C82.452 4.5771 78.7911 2.44359 78.9934 2.56148C77.529 1.71163 75.6369 1.87265 73.6651 3.01218L28.5666 29.0494C24.7414 31.2593 21.7374 36.6366 21.7461 40.8649L21.8178 65.958L8.56977 73.657C6.44328 74.8924 5.59086 76.5485 5.59086 77.9355ZM112.996 81.0757V86.1764C112.981 87.2873 112.148 88.4046 110.71 89.2423L66.1595 115.13C62.8602 117.058 57.4672 117.058 54.1346 115.129L9.31578 89.2589C7.84203 88.4027 6.99594 87.2695 6.99594 86.1532L7.00695 81.049C7.27461 81.3178 8.15539 82.0015 8.61406 82.2663L53.4402 108.147C57.2209 110.33 63.2464 110.266 66.8923 108.146L111.441 82.257C112.041 81.908 112.805 81.2681 112.996 81.0757ZM86.1528 45.9424C86.1638 49.8258 83.4221 54.5719 80.0431 56.5223L34.9449 82.5595C31.7539 84.3994 29.5168 82.9207 29.5055 79.4648L29.4055 44.4853C29.3937 40.808 32.1027 35.8758 35.5152 33.9044L80.6134 7.86843C83.7043 6.08695 86.0413 7.37952 86.0527 10.9622L86.1528 45.9424ZM52.8099 73.8869C52.8104 74.0817 52.8327 82.0484 52.8313 81.5587L50.0968 79.9701L50.0848 75.4603L52.8099 73.8869ZM49.3815 81.1992L53.1884 83.4112C53.1894 83.4117 53.1894 83.4127 53.1903 83.4131C53.4191 83.5427 53.6902 83.5357 53.9012 83.4122L66.5813 76.0908C66.8016 75.964 66.9369 75.728 66.9369 75.4734L66.9263 71.6871C66.9509 71.6857 66.9748 71.6789 66.9999 71.6789C67.7645 71.6789 68.533 71.8446 69.1051 72.1751L77.2773 76.8933C78.1513 77.3995 78.1775 77.9894 77.3033 78.4976L57.932 89.7551C56.7971 90.4132 54.8771 90.4123 53.7385 89.7541L45.5663 85.0369C44.7118 84.5421 44.6593 83.943 45.5516 83.4253L49.3815 81.1992ZM65.5133 75.0652L54.253 81.5672C54.2525 81.3724 54.2284 72.5189 54.2298 73.0673L65.4901 66.5665L65.5133 75.0652ZM29.2777 30.2805L74.3759 4.24335C75.8923 3.3696 77.277 3.21116 78.2787 3.79077L81.7946 5.83476C81.4747 5.91984 80.577 6.24773 79.9025 6.63726L34.8041 32.6735C33.1271 33.6419 31.2969 35.4237 29.8681 37.983C29.8658 37.987 29.863 37.9905 29.8606 37.9943L24.8525 35.0845C26.0173 32.9768 27.6059 31.2471 29.2777 30.2805ZM24.2216 36.3621L29.2194 39.2662C28.5397 40.7787 27.9772 42.8175 27.9835 44.4893L28.0836 79.4688C28.0857 80.242 28.2741 81.2407 28.3262 81.4331L24.8066 79.3882C23.8198 78.8142 23.2735 77.5545 23.2681 75.8409L23.168 40.8614C23.1662 39.4814 23.5271 37.9383 24.2216 36.3621ZM21.8225 67.6003L21.8462 75.8447C21.8518 78.0848 22.6496 79.7798 24.092 80.6175L30.3294 84.2416C30.3308 84.2423 30.3322 84.2419 30.3336 84.2426C30.3369 84.2444 30.3392 84.248 30.3425 84.2498C32.0096 85.2061 33.9842 84.7556 35.656 83.7907L48.6655 76.2797L48.676 79.965L44.8372 82.1958C43.0213 83.2516 43.0243 85.2108 44.8557 86.268L53.0279 90.9853C54.6024 91.8963 57.0704 91.8987 58.6468 90.9844L78.0181 79.7269C79.861 78.6569 79.7975 76.7079 77.9886 75.6621L69.8164 70.9439C69.0031 70.4737 67.9613 70.2888 66.923 70.3102L66.9102 65.7464L80.7545 57.7535C80.8006 57.7268 80.8433 57.6874 80.8897 57.6598L110.701 74.8716C113.84 76.684 113.676 79.3127 110.727 81.0274L66.178 106.915C62.8505 108.85 57.3641 108.773 54.1513 106.914L9.32516 81.0239C6.36758 79.3495 6.14633 76.7095 9.28437 74.8866L21.8225 67.6003Z" fill="url(#paint0_linear_490_1646)"/>
<defs>
<linearGradient id="paint0_linear_490_1646" x1="23.7062" y1="105.986" x2="104.455" y2="25.2382" gradientUnits="userSpaceOnUse">
<stop stop-color="#545AFF"/>
<stop offset="1" stop-color="#03BDFF"/>
</linearGradient>
</defs>
</svg>
