<svg width="120" height="120" viewBox="0 0 120 120" fill="none" xmlns="http://www.w3.org/2000/svg">
<path d="M112.237 71.873L90.7235 59.4518L90.6054 9.79147C90.6059 9.77483 90.6129 9.75936 90.6129 9.74249C90.6129 9.05178 90.2018 8.41756 89.4848 8.00178L81.255 3.21866C80.0838 2.53733 78.3159 2.5392 77.141 3.21678L68.8662 7.99428C68.1436 8.41194 67.7288 9.04803 67.7269 9.74061C67.7269 9.74506 67.7288 9.74881 67.7288 9.75327V9.75491L67.7648 26.6822L63.7575 24.3534C62.5863 23.6721 60.8184 23.674 59.6435 24.3515L51.3687 29.129C50.6461 29.5467 50.2294 30.1837 50.2294 30.8763C50.2294 30.8784 50.2303 30.8803 50.2303 30.8824C50.2303 30.884 50.2294 30.8852 50.2294 30.8869V30.8897L50.2744 47.8202L46.26 45.4875C45.0888 44.8062 43.3191 44.808 42.1441 45.4856L33.8712 50.2631C33.1467 50.6808 32.7319 51.3178 32.7319 52.0104C32.7319 52.0122 32.7328 52.0144 32.7328 52.0165C32.7328 52.0181 32.7319 52.0193 32.7319 52.0209V52.0247L32.7506 57.3598L7.74469 71.891C5.50992 73.1897 4.60477 74.9383 4.60477 76.4358V76.4376V76.4433L4.58789 84.765C4.58789 86.5132 5.74969 88.1911 7.77844 89.3707L53.212 115.594C57.1486 117.872 63.2473 117.843 67.091 115.593L112.252 89.3519C114.262 88.1808 115.383 86.5678 115.406 84.7987V76.5009C115.406 76.4847 115.413 76.4697 115.413 76.4536C115.409 74.6798 114.281 73.0535 112.237 71.873ZM88.8356 68.0041C88.8262 68.0238 88.7681 68.0922 88.6385 68.1694L80.3712 72.9391C80.3093 72.9738 80.2397 73.0064 80.1656 73.0345L80.1113 16.6715C80.3037 16.6031 80.9991 16.3863 81.195 16.2759C81.1987 16.274 81.2025 16.2712 81.2044 16.2694C81.4024 16.1548 89.1705 11.6639 88.6891 11.9421L88.8356 68.0041ZM78.1022 4.88178C78.6745 4.55061 79.7182 4.54874 80.2906 4.87991L88.5204 9.66303C88.5724 9.69374 88.6132 9.72233 88.6413 9.73569C88.6123 9.75959 88.5738 9.78795 88.5148 9.82077C88.3223 9.93163 79.688 14.9203 80.238 14.6025C79.669 14.9313 78.6141 14.9306 78.0497 14.6044C77.8573 14.4928 70.0005 9.92928 69.7022 9.746C69.8944 9.57983 70.6259 9.20366 78.1022 4.88178ZM77.0944 16.2729C77.2718 16.3734 77.7766 16.5771 78.1462 16.6591C78.1617 16.6626 78.173 16.6715 78.1884 16.6746L78.2428 72.9776C78.2203 72.9663 78.1997 72.9551 78.1772 72.9429L73.223 70.0619L73.1081 30.9133C73.1081 30.9007 73.1138 30.889 73.1138 30.8763C73.1156 30.1865 72.7045 29.5514 71.9876 29.1356L69.6886 27.7999L69.6548 11.9482C70.1859 12.2566 77.5298 16.5258 77.0944 16.2729ZM71.3381 78.1059C71.3288 78.1256 71.2706 78.194 71.141 78.2712L62.8737 83.0402C62.8118 83.0758 62.7422 83.1087 62.6677 83.1366L62.6461 65.5308L62.6128 37.8056C62.7954 37.7407 63.502 37.5187 63.6956 37.4095C63.6994 37.4076 63.7031 37.4058 63.705 37.403C63.903 37.2883 71.6749 32.7963 71.1935 33.0745L71.3381 78.1059ZM60.6047 26.0163C61.177 25.6842 62.2207 25.6842 62.793 26.0144L71.0229 30.7966C71.0754 30.8276 71.1148 30.8566 71.1448 30.8688C71.1152 30.8927 71.0763 30.9211 71.017 30.9541C70.8368 31.0582 63.2339 35.4508 62.7384 35.7373C62.1581 36.0733 61.0765 36.0429 60.5501 35.7382C59.8697 35.3426 52.4142 31.0113 52.2049 30.8796C52.2926 30.8076 60.5072 26.0728 60.6047 26.0163ZM59.595 37.4058C59.9761 37.623 60.4978 37.7447 60.69 37.808L60.7261 67.0521L60.7453 83.0805C60.7228 83.0683 60.7003 83.0571 60.6778 83.0449L55.7166 80.16L55.6106 52.0486C55.6111 52.0362 55.6163 52.0244 55.6163 52.012C55.6181 51.3213 55.207 50.6862 54.4901 50.2694L52.1995 48.9384L52.1573 33.083C52.3554 33.1978 60.0759 37.6851 59.595 37.4058ZM53.839 88.2087C53.7757 88.3422 45.3056 93.1877 45.1683 93.2393C45.1486 80.2873 45.1355 71.7248 45.1158 58.939C46.2237 58.5881 53.4759 54.3422 53.6984 54.2076L53.839 88.2087ZM43.1055 47.1499C43.6835 46.8178 44.7253 46.8178 45.2958 47.148L53.5238 51.9302C53.5777 51.9609 53.6166 51.9895 53.6468 52.0029C53.6173 52.0265 53.5788 52.0547 53.5181 52.088C53.3257 52.1991 44.6916 57.1887 45.2414 56.8711C44.7291 57.1683 43.6509 57.217 43.0545 56.8737C39.694 54.9171 34.905 52.1409 34.7088 52.0127C34.7965 51.9408 43.0076 47.2066 43.1055 47.1499ZM43.1932 58.9427C43.2077 68.2219 43.234 85.1405 43.2462 93.1814C42.7127 92.9367 34.9226 88.2642 34.7892 88.2642C34.7836 88.2642 34.7817 88.267 34.7798 88.2745L34.6617 54.2177C39.9094 57.1587 39.6799 57.3644 43.1932 58.9427ZM113.484 84.7863C113.471 85.826 112.669 86.8847 111.286 87.6907L66.1245 113.933C62.8458 115.85 57.4875 115.847 54.1748 113.93L8.74148 87.7076C7.32258 86.8828 6.51 85.8101 6.51 84.7666L6.51937 80.1394C7.80258 81.2372 13.7046 84.3424 53.231 107.27C57.0766 109.489 63.3056 109.479 67.1081 107.269L112.27 81.0244C112.718 80.7626 113.123 80.4755 113.484 80.1687V84.7863H113.484ZM113.484 76.4721C113.484 77.5024 112.688 78.5562 111.303 79.3633L66.1432 105.605C62.8254 107.532 57.4575 107.496 54.1917 105.603L8.74898 79.3577C5.88867 77.7358 5.7143 75.293 8.70961 73.5518L32.7588 59.5762L32.8582 88.293C32.8582 88.9781 33.2693 89.6086 33.9862 90.0225L42.2217 94.8122C43.3371 95.4509 45.143 95.4902 46.332 94.8103L54.6124 90.0328C55.335 89.6048 55.748 88.9659 55.748 88.2752L55.7255 82.3868L59.7192 84.7092C60.4043 85.1006 61.17 85.1934 61.6917 85.2028H61.6936C61.7198 85.2028 61.7461 85.2037 61.7742 85.2037C62.5399 85.2037 63.2663 85.0291 63.8311 84.7073L72.1116 79.9298C72.8341 79.5019 73.2471 78.863 73.2471 78.1741L73.2298 72.288L77.2184 74.6072C77.9016 74.9986 78.6673 75.0905 79.189 75.0998C79.219 75.0998 79.2471 75.1008 79.2771 75.1008C80.0409 75.1008 80.7654 74.9262 81.3284 74.6053L89.6107 69.8269C90.5979 69.2395 90.7444 68.4764 90.7444 68.0721L90.7294 61.6741L111.277 73.5373C112.698 74.3573 113.482 75.3902 113.489 76.4447C113.489 76.4548 113.484 76.4625 113.484 76.4721Z" fill="url(#paint0_linear_490_1630)"/>
<defs>
<linearGradient id="paint0_linear_490_1630" x1="86.0005" y1="73.5001" x2="1.0005" y2="126.5" gradientUnits="userSpaceOnUse">
<stop stop-color="#00FFE5"/>
<stop offset="1" stop-color="#FF30F7"/>
</linearGradient>
</defs>
</svg>
