<svg width="120" height="120" viewBox="0 0 120 120" fill="none" xmlns="http://www.w3.org/2000/svg">
<path d="M110.353 20.4914C107.561 18.8323 103.837 16.6198 104.078 16.7634L104.073 16.7606C102.009 15.5613 99.5043 15.3719 96.8004 16.0767C96.2177 12.3485 94.5536 9.52663 91.9455 7.99616C91.9371 7.99053 91.9326 7.98163 91.9237 7.97647L85.6645 4.26561C82.3209 2.32452 77.9313 2.72905 73.2989 5.40608C64.8194 10.3038 57.8137 21.5133 56.7663 31.7069C54.7907 31.6802 52.6317 32.2882 50.4358 33.5566C43.3399 37.6533 37.545 47.3658 37.0854 55.6572L7.88715 72.6248C5.76066 73.8602 4.90824 75.5163 4.90824 76.9033V76.9052V76.9108L4.8916 85.1191C4.8916 86.7818 5.96738 88.3221 7.92043 89.4569L52.7411 115.327C56.4696 117.485 62.5024 117.483 66.1933 115.327L110.742 89.4394C112.652 88.3284 113.715 86.8094 113.735 85.1533V76.9673C113.673 76.7775 114.001 74.4972 110.729 72.6084L92.2181 61.9209L99.6187 57.648C108.187 52.703 115.135 40.6669 115.109 30.8184C115.094 25.9427 113.405 22.282 110.353 20.4914ZM103.355 17.988L105.643 19.3441C105.089 19.3624 103.892 19.518 102.798 19.8246C100.595 20.4431 98.5577 21.551 96.7657 22.8544C97.0914 20.6517 97.0912 18.9905 96.974 17.4989C99.3815 16.8309 101.581 16.9591 103.355 17.988ZM74.01 6.63725C82.3265 1.83913 85.885 6.42139 87.0921 6.76499C86.9728 6.76686 86.8462 6.79335 86.7255 6.7992C84.2625 6.91592 81.6782 7.88225 79.5494 9.11155C71.2997 13.8743 64.2679 24.8625 63.0553 34.9383C62.8408 34.811 57.8311 31.8408 58.1472 32.0283C59.0859 22.2047 65.8415 11.3545 74.01 6.63725ZM51.1469 34.7878C53.2816 33.5538 55.3551 32.9754 57.1788 33.1076C57.3693 33.2205 61.5164 35.6794 61.2536 35.5237C59.7391 35.789 57.986 36.5137 56.688 37.263C48.5493 41.9615 42.3454 53.816 43.4079 62.3876L38.7534 59.628C37.0361 51.7092 42.9471 39.5226 51.1469 34.7878ZM32.246 87.5454L29.467 85.8968C27.6581 84.8451 26.6566 82.5865 26.6491 79.5354C26.6273 72.3991 31.9882 63.7476 38.081 60.8838C38.5689 61.173 43.0795 63.8472 42.8896 63.7345C36.6586 67.1697 31.4587 76.005 31.4796 83.2465C31.4831 84.6687 31.7069 86.2158 32.246 87.5454ZM112.314 80.0433V85.144C112.299 86.2558 111.466 87.3731 110.027 88.2098L65.4768 114.098C62.1794 116.027 56.7827 116.023 53.452 114.096L8.63316 88.2265C7.15941 87.3703 6.31332 86.2371 6.31332 85.1208L6.32434 80.0165C6.70496 80.3988 7.62723 81.0581 7.93145 81.2339L52.7575 107.115C56.5382 109.298 62.5638 109.234 66.2097 107.114L110.76 81.2247C110.769 81.2191 110.776 81.2123 110.786 81.2067C111.38 80.8577 112.121 80.2376 112.314 80.0433ZM110.018 73.8394C113.098 75.618 113.053 78.2456 110.044 79.9952L65.4954 105.882C62.1679 107.818 56.6814 107.741 53.4686 105.881L8.64254 79.9915C5.68496 78.3171 5.46371 75.6771 8.60176 73.8541L37.0718 57.3094C37.1004 58.1407 37.1904 58.9348 37.3385 59.688C30.6354 62.925 25.2065 72.1671 25.2276 79.5389C25.2368 83.1157 26.4883 85.8105 28.7472 87.1233L34.9162 90.7807C37.4845 92.4072 40.8328 91.5893 43.455 90.0743L90.7966 62.7415L110.018 73.8394ZM98.9076 56.4166L42.7434 88.8431C40.0551 90.3947 37.567 90.6696 35.7339 89.6133C33.6189 88.394 32.9074 85.729 32.9013 83.2425C32.8809 76.5811 37.5834 68.4377 43.3839 65.0885C43.8154 64.8387 44.2392 64.6237 44.6596 64.4442C44.8914 64.3467 45.1563 63.975 45.0707 63.6232C43.151 55.6779 49.1161 43.2771 57.3993 38.4942C60.7893 36.5351 63.0886 36.8822 63.7261 36.813C64.1001 36.7741 64.3411 36.4572 64.3624 36.1744C65.1384 26.1797 72.3447 14.9083 80.264 10.3455C83.635 8.39811 87.8224 7.24616 91.192 9.19756C95.95 11.9531 96.1989 19.0024 95.0383 24.4188C94.8979 25.084 95.6819 25.5452 96.1936 25.1112C99.9129 21.9663 105.44 19.275 109.598 21.6912C112.223 23.2085 113.674 26.4499 113.688 30.8217C113.713 40.2169 107.083 51.6984 98.9076 56.4166Z" fill="url(#paint0_linear_490_1669)"/>
<defs>
<linearGradient id="paint0_linear_490_1669" x1="60.0006" y1="3.05563" x2="60.0006" y2="116.945" gradientUnits="userSpaceOnUse">
<stop stop-color="#00FFE5"/>
<stop offset="1" stop-color="#FF30F7"/>
</linearGradient>
</defs>
</svg>
