<svg width="120" height="120" viewBox="0 0 120 120" fill="none" xmlns="http://www.w3.org/2000/svg">
<path d="M107.728 72.0206L91.0792 62.4081L90.989 30.6222C90.9873 29.7161 90.6285 29.005 90.0135 28.6469L90.0177 28.6387L54.5287 8.01745L52.6792 7.02745C52.0569 6.69487 51.2819 6.75838 50.4965 7.20956L33.2673 17.1588C33.0726 17.2708 32.0788 18.0105 31.4988 18.985L29.639 22.1245C29.0373 23.14 28.8763 24.5046 28.8775 24.6813L28.982 62.3153L12.2535 72.0363C10.4751 73.0703 9.49609 74.4808 9.49352 76.0085H9.48977L9.47266 83.6364C9.47266 85.1791 10.4713 86.609 12.2847 87.6635L53.8947 111.68C57.3545 113.683 62.9566 113.683 66.3834 111.679L107.741 87.6471C109.514 86.6149 110.501 85.2046 110.52 83.6681V76.0685C110.52 76.0539 110.527 76.0401 110.527 76.0256C110.523 74.4827 109.529 73.0605 107.728 72.0206ZM87.2491 28.7306C87.3402 28.7306 87.4209 28.7477 87.4863 28.7838L89.3425 29.7738C89.5452 29.8821 89.6673 30.2008 89.669 30.6255L89.8047 78.5967C89.8101 79.4491 89.1817 81.5964 87.7577 82.4193L67.3471 94.2032C66.3667 94.7688 65.7684 93.8329 65.7641 93.0379L65.6284 45.2704C65.6268 44.6981 65.8382 44.0123 66.2076 43.3884L68.0655 40.2508C68.4177 39.6595 68.8888 39.1645 69.358 38.8931L86.5905 28.9439C86.833 28.8037 87.0634 28.7306 87.2491 28.7306ZM51.1562 8.3526C51.5172 8.14471 51.8523 8.08284 52.0551 8.19112L85.934 27.7989C85.933 27.7996 85.9319 27.7999 85.9305 27.8006C76.6926 33.1635 69.2324 37.3835 68.361 38.0174C67.2747 37.3863 71.8068 40.0197 34.1805 18.1551L51.1562 8.3526ZM33.0747 19.0392C41.3371 23.8403 51.7919 29.9153 67.3867 38.9772C66.8779 39.6271 64.9797 42.7739 64.671 43.5517L30.3883 23.6317C30.6442 22.8778 32.7353 19.4364 33.0747 19.0392ZM64.3389 44.8856C64.3265 45.0156 64.3084 45.1474 64.3084 45.2737C64.3424 55.7048 64.4245 92.3503 64.4678 93.2123L31.0087 73.7676C30.8313 73.6624 30.3332 73.0842 30.3297 72.446L30.1991 25.0481L64.3389 44.8856ZM109.199 83.6594C109.186 84.6907 108.412 85.728 107.077 86.5057L65.7177 110.538C62.6582 112.329 57.648 112.329 54.5542 110.537L12.9461 86.5211C11.578 85.7254 10.7924 84.6742 10.7924 83.6378L10.8027 78.8999C11.1538 79.2517 12.0027 79.8609 12.2945 80.0292L53.9097 104.056C57.4131 106.078 62.9695 106.049 66.3984 104.055L107.757 80.0205C108.138 79.7995 108.468 79.5524 108.775 79.2949C108.873 79.2138 108.967 79.1327 109.057 79.0485C109.102 79.0061 109.156 78.9677 109.199 78.9248V83.6594H109.199ZM109.204 76.0417H109.2C109.2 77.0662 108.431 78.1 107.094 78.8796L65.7353 102.912C62.5621 104.759 57.5181 104.619 54.5702 102.911L12.9548 78.876C10.1999 77.3163 10.0152 74.8647 12.917 73.1775L28.986 63.8397L29.0102 72.453C29.0202 73.6511 29.8539 74.6224 30.344 74.9083L65.7749 95.4993L65.7766 95.5003L65.7899 95.4773C66.5162 95.8978 67.2857 95.7639 68.0076 95.3465L88.4181 83.5626C90.2652 82.4955 91.1308 79.8982 91.1252 78.592L91.0839 63.9351L107.069 73.1641C108.445 73.9591 109.205 74.9756 109.207 76.0277C109.206 76.0321 109.204 76.0368 109.204 76.0417ZM78.0449 50.0151C80.6868 48.4898 82.8266 44.7796 82.818 41.7452C82.8107 38.4271 80.2633 36.9827 77.3556 38.666C74.6898 40.2042 72.6084 43.8112 72.6152 46.8766C72.6259 50.1834 75.1387 51.6942 78.0449 50.0151ZM78.0156 39.809C79.9776 38.6772 81.4905 39.3803 81.498 41.7487C81.5066 44.3184 79.6227 47.5804 77.3849 48.8723C75.3962 50.0191 73.9424 49.1927 73.9354 46.8733C73.9284 44.2804 75.7591 41.1117 78.0156 39.809ZM68.8288 70.1395C68.8361 71.4192 69.9236 72.0464 71.0392 71.4037L85.0712 63.3023C85.9546 62.7909 86.6198 61.641 86.6181 60.6269L86.6043 55.9106C86.6008 54.6328 85.5027 53.9974 84.3887 54.6431L70.3567 62.7445C69.4734 63.2549 68.8115 64.4064 68.8166 65.4224L68.8288 70.1395ZM71.0167 63.8873L85.0488 55.7859C85.2602 55.6649 85.2843 55.6715 85.2843 55.9139L85.2981 60.6302C85.2998 61.1613 84.877 61.8899 84.4113 62.159L70.3792 70.2604C70.1706 70.3806 70.1488 70.375 70.1488 70.135L70.1369 65.4178C70.135 64.8843 70.5545 64.1547 71.0167 63.8873ZM84.389 68.1689L70.3569 76.2703C69.4736 76.7807 68.8117 77.9322 68.8169 78.9482L68.8288 83.6655C68.8323 84.2749 69.0831 84.7673 69.5163 85.0174C69.7122 85.1292 69.9304 85.185 70.1591 85.185C70.4427 85.185 70.7453 85.0999 71.0392 84.9297L85.0712 76.8283C85.9546 76.3169 86.6198 75.1671 86.6181 74.1529L86.6043 69.4366C86.6008 68.1583 85.503 67.5232 84.389 68.1689ZM84.4113 75.685L70.3792 83.7864C70.2658 83.8518 70.1971 83.8628 70.1849 83.8741C70.173 83.8493 70.1488 83.7855 70.1488 83.661L70.1369 78.9438C70.1352 78.4101 70.5545 77.6805 71.017 77.4133L85.049 69.3119C85.2604 69.191 85.2845 69.1975 85.2845 69.4399L85.2984 74.1562C85.3 74.6873 84.8772 75.416 84.4113 75.685Z" fill="url(#paint0_linear_490_1638)"/>
<defs>
<linearGradient id="paint0_linear_490_1638" x1="59.9997" y1="6.81738" x2="59.9997" y2="113.182" gradientUnits="userSpaceOnUse">
<stop stop-color="#00FFE5"/>
<stop offset="1" stop-color="#FF30F7"/>
</linearGradient>
</defs>
</svg>
