<svg width="65" height="64" viewBox="0 0 65 64" fill="none" xmlns="http://www.w3.org/2000/svg">
<g id="cloud-mining_4978950 1">
<path id="Vector" d="M57.4014 45.2617C57.42 45.1445 57.4297 45.028 57.4432 44.9117C58.7097 43.1088 59.5486 41.0409 59.8961 38.8652C60.2436 36.6895 60.0907 34.4632 59.4489 32.3554C59.4944 32.2424 59.5187 32.1219 59.5205 32V10.8093C60.1868 10.5691 60.7468 10.1011 61.1014 9.48792C61.456 8.87475 61.5824 8.15595 61.4583 7.45859C61.3341 6.76123 60.9674 6.13022 60.423 5.6771C59.8786 5.22399 59.1915 4.97795 58.4832 4.98248C57.7748 4.98702 57.0909 5.24183 56.5524 5.70188C56.0138 6.16192 55.6552 6.79758 55.54 7.49647C55.4247 8.19536 55.5603 8.91248 55.9228 9.52106C56.2852 10.1296 56.8511 10.5905 57.5205 10.8221V28.3472C56.6755 27.122 55.6492 26.0323 54.4767 25.1155C54.4868 25.0775 54.4946 25.039 54.5 25V21.7656C54.5001 21.5356 54.4208 21.3126 54.2754 21.1343L53.2054 19.8198V17.3035C53.8726 17.0676 54.4349 16.6035 54.793 15.993C55.1511 15.3826 55.2819 14.6653 55.1622 13.9678C55.0425 13.2703 54.6801 12.6376 54.139 12.1814C53.598 11.7253 52.9131 11.4751 52.2054 11.4751C51.4977 11.4751 50.8128 11.7253 50.2717 12.1814C49.7307 12.6376 49.3683 13.2703 49.2486 13.9678C49.1289 14.6653 49.2597 15.3826 49.6178 15.993C49.9758 16.6035 50.5382 17.0676 51.2054 17.3035V20.1753C51.2053 20.4054 51.2846 20.6284 51.43 20.8066L52.5 22.1211V23.7968C50.356 22.616 47.9477 21.9978 45.5 22V20.4141L47.0869 18.8271C47.2744 18.6396 47.3798 18.3853 47.3799 18.1201V10.8531C48.0512 10.6422 48.6263 10.2009 49.0039 9.60713C49.3814 9.01338 49.5371 8.30533 49.4434 7.60797C49.3497 6.91061 49.0127 6.26876 48.4918 5.79571C47.9709 5.32265 47.2997 5.04881 46.5965 5.02252C45.8934 4.99622 45.2036 5.21916 44.6488 5.65198C44.0941 6.0848 43.71 6.69968 43.5645 7.3881C43.419 8.07652 43.5214 8.79421 43.8535 9.41451C44.1857 10.0348 44.7263 10.5178 45.3799 10.7783V17.7061L43.793 19.293C43.6054 19.4805 43.5 19.7348 43.5 20V22.1537C41.4966 22.4318 39.573 23.1236 37.8515 24.1851C36.1299 25.2467 34.648 26.6548 33.5 28.32V25.8157C34.1672 25.5798 34.7295 25.1157 35.0876 24.5052C35.4457 23.8948 35.5765 23.1775 35.4568 22.48C35.3371 21.7825 34.9747 21.1498 34.4336 20.6936C33.8926 20.2375 33.2077 19.9873 32.5 19.9873C31.7923 19.9873 31.1074 20.2375 30.5663 20.6936C30.0253 21.1498 29.6629 21.7825 29.5432 22.48C29.4235 23.1775 29.5543 23.8948 29.9124 24.5052C30.2704 25.1157 30.8328 25.5798 31.5 25.8157V30.2106C29.9487 29.8995 28.346 29.9581 26.8216 30.3815L26.5284 19.9943C26.7879 19.9877 27.0346 19.8802 27.2161 19.6945C27.3975 19.5088 27.4994 19.2596 27.5 19H42.5C42.7054 19 42.9059 18.9366 43.0741 18.8186C43.2423 18.7006 43.37 18.5336 43.4399 18.3404C43.5099 18.1472 43.5186 17.9371 43.4649 17.7388C43.4113 17.5405 43.2978 17.3635 43.14 17.2319C39.0818 13.8545 33.9697 12.0035 28.69 12H27.5C27.5 11.7348 27.3946 11.4805 27.2071 11.2929C27.0196 11.1054 26.7652 11 26.5 11V9.00003C26.5 8.20438 26.1839 7.44132 25.6213 6.87871C25.0587 6.3161 24.2956 6.00003 23.5 6.00003C22.7043 6.00003 21.9413 6.3161 21.3787 6.87871C20.8161 7.44132 20.5 8.20438 20.5 9.00003V11C20.2348 11 19.9804 11.1054 19.7929 11.2929C19.6053 11.4805 19.5 11.7348 19.5 12H18.31C13.0302 12.0035 7.91813 13.8545 3.85998 17.2319C3.70217 17.3635 3.58871 17.5405 3.53503 17.7388C3.48136 17.9371 3.49009 18.1472 3.56002 18.3404C3.62995 18.5336 3.7577 18.7006 3.92588 18.8186C4.09406 18.9366 4.29452 19 4.49998 19H19.5C19.5006 19.2596 19.6024 19.5088 19.7839 19.6945C19.9653 19.8802 20.212 19.9877 20.4716 19.9943L20.0016 36.6371C19.1961 36.3364 18.3554 36.1403 17.5 36.0538V32.8157C18.1672 32.5798 18.7295 32.1157 19.0876 31.5052C19.4457 30.8948 19.5765 30.1775 19.4568 29.48C19.3371 28.7825 18.9747 28.1498 18.4336 27.6936C17.8926 27.2375 17.2077 26.9873 16.5 26.9873C15.7923 26.9873 15.1074 27.2375 14.5663 27.6936C14.0253 28.1498 13.6629 28.7825 13.5432 29.48C13.4235 30.1775 13.5543 30.8948 13.9124 31.5052C14.2704 32.1157 14.8328 32.5798 15.5 32.8157V36.05C14.0886 36.1937 12.7246 36.6387 11.5 37.3548V25.8157C12.1672 25.5798 12.7295 25.1157 13.0876 24.5052C13.4457 23.8948 13.5765 23.1775 13.4568 22.48C13.3371 21.7825 12.9747 21.1498 12.4336 20.6936C11.8926 20.2375 11.2077 19.9873 10.5 19.9873C9.7923 19.9873 9.10739 20.2375 8.56632 20.6936C8.02526 21.1498 7.66286 21.7825 7.54319 22.48C7.42352 23.1775 7.55428 23.8948 7.91235 24.5052C8.27043 25.1157 8.83277 25.5798 9.49998 25.8157V38.5137C9.50459 38.6147 9.52483 38.7143 9.55998 38.809C8.95017 39.4014 8.41793 40.0687 7.97598 40.7949L6.20508 38.7959V32.3035C6.8723 32.0676 7.43464 31.6035 7.79272 30.993C8.15079 30.3826 8.28155 29.6653 8.16188 28.9678C8.04221 28.2703 7.67981 27.6376 7.13874 27.1814C6.59768 26.7253 5.91277 26.4751 5.20508 26.4751C4.4974 26.4751 3.81249 26.7253 3.27142 27.1814C2.73036 27.6376 2.36796 28.2703 2.24829 28.9678C2.12862 29.6653 2.25938 30.3826 2.61745 30.993C2.97553 31.6035 3.53787 32.0676 4.20508 32.3035V39.1753C4.20501 39.4197 4.29444 39.6556 4.45648 39.8384L6.49998 42.145V45.68C5.06387 46.3606 3.90219 47.5097 3.20613 48.9384C2.51006 50.367 2.32107 51.9901 2.67025 53.5404C3.01943 55.0908 3.88598 56.4761 5.12731 57.4684C6.36864 58.4607 7.91078 59.0009 9.49998 59H55.5C57.1904 58.9999 58.8236 58.3882 60.0981 57.2778C61.3727 56.1674 62.2024 54.6334 62.4342 52.959C62.6659 51.2846 62.284 49.5829 61.3589 48.1681C60.4339 46.7533 59.0282 45.721 57.4014 45.2617ZM58.5 7.00003C58.6978 7.00003 58.8911 7.05868 59.0556 7.16856C59.22 7.27844 59.3482 7.43462 59.4239 7.61735C59.4996 7.80007 59.5194 8.00114 59.4808 8.19512C59.4422 8.3891 59.3469 8.56728 59.2071 8.70714C59.0672 8.84699 58.8891 8.94223 58.6951 8.98081C58.5011 9.0194 58.3 8.9996 58.1173 8.92391C57.9346 8.84822 57.7784 8.72005 57.6685 8.5556C57.5586 8.39115 57.5 8.19781 57.5 8.00003C57.5003 7.73492 57.6058 7.48076 57.7933 7.2933C57.9807 7.10584 58.2349 7.00037 58.5 7.00003ZM52.2051 13.4878C52.4029 13.4878 52.5962 13.5465 52.7607 13.6564C52.9251 13.7662 53.0533 13.9224 53.129 14.1051C53.2047 14.2879 53.2245 14.4889 53.1859 14.6829C53.1473 14.8769 53.052 15.0551 52.9122 15.1949C52.7723 15.3348 52.5942 15.43 52.4002 15.4686C52.2062 15.5072 52.0051 15.4874 51.8224 15.4117C51.6397 15.336 51.4835 15.2078 51.3736 15.0434C51.2637 14.879 51.2051 14.6856 51.2051 14.4878C51.2054 14.2227 51.3109 13.9686 51.4984 13.7811C51.6858 13.5936 51.94 13.4882 52.2051 13.4878ZM46.5 7.00003C46.6978 7.00003 46.8911 7.05868 47.0556 7.16856C47.22 7.27844 47.3482 7.43462 47.4239 7.61735C47.4996 7.80007 47.5194 8.00114 47.4808 8.19512C47.4422 8.3891 47.3469 8.56728 47.2071 8.70714C47.0672 8.84699 46.8891 8.94223 46.6951 8.98081C46.5011 9.0194 46.3 8.9996 46.1173 8.92391C45.9346 8.84822 45.7784 8.72005 45.6685 8.5556C45.5586 8.39115 45.5 8.19781 45.5 8.00003C45.5003 7.73492 45.6058 7.48076 45.7933 7.2933C45.9807 7.10584 46.2349 7.00037 46.5 7.00003ZM10.5 22C10.6978 22 10.8911 22.0587 11.0556 22.1686C11.22 22.2784 11.3482 22.4346 11.4239 22.6173C11.4996 22.8001 11.5194 23.0011 11.4808 23.1951C11.4422 23.3891 11.3469 23.5673 11.2071 23.7071C11.0672 23.847 10.8891 23.9422 10.6951 23.9808C10.5011 24.0194 10.3 23.9996 10.1173 23.9239C9.93457 23.8482 9.7784 23.72 9.66851 23.5556C9.55863 23.3912 9.49998 23.1978 9.49998 23C9.50033 22.7349 9.6058 22.4808 9.79326 22.2933C9.98072 22.1058 10.2349 22.0004 10.5 22ZM5.20508 28.4878C5.40287 28.4878 5.59621 28.5465 5.76065 28.6564C5.9251 28.7662 6.05328 28.9224 6.12896 29.1051C6.20465 29.2879 6.22445 29.4889 6.18587 29.6829C6.14728 29.8769 6.05204 30.0551 5.91219 30.1949C5.77234 30.3348 5.59416 30.43 5.40017 30.4686C5.20619 30.5072 5.00513 30.4874 4.8224 30.4117C4.63967 30.336 4.4835 30.2078 4.37361 30.0434C4.26373 29.8789 4.20508 29.6856 4.20508 29.4878C4.20543 29.2227 4.3109 28.9686 4.49836 28.7811C4.68582 28.5936 4.93997 28.4882 5.20508 28.4878ZM45.5 24C47.9876 24 50.4193 24.7376 52.4877 26.1195C54.5561 27.5015 56.1682 29.4658 57.1202 31.764C58.0722 34.0622 58.3213 36.5911 57.8361 39.0309C57.3508 41.4707 56.153 43.7118 54.394 45.4708C52.6351 47.2298 50.394 48.4278 47.9542 48.9131C45.5145 49.3985 42.9856 49.1494 40.6873 48.1975C38.3891 47.2456 36.4247 45.6336 35.0427 43.5652C33.6606 41.4969 32.9229 39.0652 32.9229 36.5776C32.9266 33.2431 34.2528 30.0461 36.6107 27.6882C38.9685 25.3303 42.1654 24.0039 45.5 24ZM32.5 22C32.6978 22 32.8911 22.0587 33.0556 22.1686C33.22 22.2784 33.3482 22.4346 33.4239 22.6173C33.4996 22.8001 33.5194 23.0011 33.4808 23.1951C33.4422 23.3891 33.3469 23.5673 33.2071 23.7071C33.0672 23.847 32.8891 23.9422 32.6951 23.9808C32.5011 24.0194 32.3 23.9996 32.1173 23.9239C31.9346 23.8482 31.7784 23.72 31.6685 23.5556C31.5586 23.3912 31.5 23.1978 31.5 23C31.5003 22.7349 31.6058 22.4808 31.7933 22.2933C31.9807 22.1058 32.2349 22.0004 32.5 22ZM22.4722 20H24.5278L24.86 31.782V31.7903L25.4031 51.0337C25.4122 51.2891 25.3694 51.5436 25.2773 51.7819C25.1853 52.0203 25.0459 52.2375 24.8675 52.4204C24.5026 52.7795 24.0112 52.9808 23.4993 52.9808C22.9874 52.9808 22.496 52.7795 22.1311 52.4204C21.9524 52.2369 21.8128 52.0191 21.7207 51.78C21.6286 51.541 21.586 51.2858 21.5955 51.0298L22.4722 20ZM25.5 14V17H21.5V14H25.5ZM28.69 14C32.4625 14.0026 36.1619 15.0403 39.3854 17H27.5V14H28.69ZM22.5 9.00003C22.5 8.73481 22.6053 8.48046 22.7929 8.29292C22.9804 8.10539 23.2348 8.00003 23.5 8.00003C23.7652 8.00003 24.0196 8.10539 24.2071 8.29292C24.3946 8.48046 24.5 8.73481 24.5 9.00003V11H22.5V9.00003ZM7.61468 17C10.8381 15.0403 14.5375 14.0026 18.31 14H19.5V17H7.61468ZM16.5 29C16.6978 29 16.8911 29.0587 17.0556 29.1686C17.22 29.2784 17.3482 29.4346 17.4239 29.6173C17.4996 29.8001 17.5194 30.0011 17.4808 30.1951C17.4422 30.3891 17.3469 30.5673 17.2071 30.7071C17.0672 30.847 16.8891 30.9422 16.6951 30.9808C16.5011 31.0194 16.3 30.9996 16.1173 30.9239C15.9346 30.8482 15.7784 30.72 15.6685 30.5556C15.5586 30.3912 15.5 30.1978 15.5 30C15.5003 29.7349 15.6058 29.4808 15.7933 29.2933C15.9807 29.1058 16.2349 29.0004 16.5 29ZM55.5 57H9.49998C8.31912 57.0005 7.17622 56.5829 6.27391 55.8211C5.3716 55.0594 4.76816 54.0027 4.57059 52.8385C4.37302 51.6743 4.59407 50.4777 5.19455 49.4609C5.79504 48.4441 6.73617 47.6728 7.85108 47.2837C8.06161 47.2098 8.24138 47.0677 8.36179 46.8798C8.48221 46.692 8.53634 46.4693 8.51558 46.2471C8.50828 46.167 8.49998 46.0874 8.49998 46C8.49598 44.6481 8.83567 43.3173 9.48716 42.1327C10.1387 40.948 11.0806 39.9484 12.2244 39.2277C13.3683 38.5071 14.6766 38.089 16.0264 38.0127C17.3762 37.9364 18.7232 38.2045 19.941 38.7917L19.5972 50.9692C19.5802 51.4923 19.6685 52.0134 19.8568 52.5016C20.0452 52.9898 20.3298 53.4352 20.6936 53.8113C21.0575 54.1874 21.4933 54.4865 21.975 54.6909C22.4568 54.8952 22.9747 55.0007 23.498 55.0009C24.0213 55.0012 24.5393 54.8963 25.0212 54.6924C25.5032 54.4885 25.9393 54.1898 26.3035 53.8141C26.6678 53.4384 26.9528 52.9933 27.1416 52.5052C27.3304 52.0172 27.4193 51.4962 27.4028 50.9731L26.88 32.45C28.392 31.9279 30.0253 31.8687 31.5711 32.28C30.6111 35.3856 30.7171 38.7231 31.8725 41.7615C33.0278 44.7998 35.1659 47.3646 37.9468 49.0477C40.7277 50.7309 43.9916 51.4358 47.2193 51.0502C50.447 50.6647 53.453 49.2108 55.7592 46.92C55.8598 46.9764 55.9696 47.0145 56.0835 47.0328C57.351 47.181 58.514 47.8081 59.3341 48.7858C60.1543 49.7635 60.5696 51.0178 60.495 52.2918C60.4204 53.5657 59.8616 54.763 58.933 55.6383C58.0043 56.5137 56.7761 57.0008 55.5 57Z" fill="black"/>
<path id="Vector_2" d="M9.50018 53.0002C9.26395 53.001 9.0351 52.9179 8.85443 52.7657C8.67375 52.6135 8.55299 52.4021 8.51365 52.1692C8.47432 51.9362 8.51897 51.6969 8.63964 51.4938C8.76032 51.2907 8.94919 51.1371 9.17259 51.0602C9.42068 50.9707 9.62334 50.7868 9.73646 50.5485C9.84957 50.3102 9.86397 50.0369 9.77652 49.7881C9.68906 49.5392 9.50685 49.335 9.26954 49.2199C9.03223 49.1048 8.75905 49.0881 8.50948 49.1734C7.84074 49.4068 7.27627 49.8696 6.91619 50.4795C6.5561 51.0895 6.42368 51.8072 6.54241 52.5055C6.66114 53.2038 7.02333 53.8375 7.56477 54.2941C8.1062 54.7508 8.79188 55.001 9.50018 55.0002C9.7654 55.0002 10.0198 54.8949 10.2073 54.7073C10.3948 54.5198 10.5002 54.2655 10.5002 54.0002C10.5002 53.735 10.3948 53.4807 10.2073 53.2931C10.0198 53.1056 9.7654 53.0002 9.50018 53.0002Z" fill="black"/>
<path id="Vector_3" d="M18.5737 40.37C17.91 40.1242 17.2077 39.9989 16.5 40C14.9123 40.0089 13.3921 40.6435 12.2693 41.766C11.1464 42.8885 10.5114 44.4084 10.502 45.9961L10.5156 46.2441C10.5296 46.4992 10.6408 46.7393 10.8264 46.915C11.0119 47.0907 11.2576 47.1888 11.5132 47.189C11.5317 47.189 11.5503 47.1885 11.5693 47.1875C11.7004 47.1803 11.8288 47.1473 11.9472 47.0904C12.0656 47.0335 12.1716 46.9539 12.2592 46.8561C12.3468 46.7582 12.4143 46.6441 12.4578 46.5201C12.5013 46.3962 12.5199 46.2649 12.5127 46.1338L12.5005 45.9526C12.5164 44.9012 12.9443 43.898 13.6923 43.1588C14.4402 42.4196 15.4484 42.0035 16.5 42C16.9703 41.999 17.4371 42.0818 17.8784 42.2446C18.002 42.2926 18.1339 42.3155 18.2665 42.3121C18.399 42.3086 18.5296 42.2788 18.6505 42.2244C18.7714 42.17 18.8804 42.0921 18.9709 41.9952C19.0614 41.8984 19.1318 41.7844 19.1779 41.6601C19.224 41.5358 19.245 41.4035 19.2395 41.271C19.234 41.1385 19.2022 41.0084 19.146 40.8884C19.0897 40.7683 19.0102 40.6606 18.9119 40.5715C18.8137 40.4824 18.6987 40.4142 18.5737 40.37Z" fill="black"/>
<path id="Vector_4" d="M45.5 47.5772C47.6756 47.5773 49.8024 46.9322 51.6114 45.7236C53.4204 44.5149 54.8304 42.797 55.663 40.787C56.4957 38.777 56.7136 36.5653 56.2892 34.4315C55.8648 32.2976 54.8172 30.3376 53.2788 28.7992C51.7405 27.2607 49.7805 26.213 47.6467 25.7886C45.5129 25.3641 43.3011 25.5819 41.2911 26.4144C39.2811 27.247 37.5631 28.6569 36.3544 30.4658C35.1456 32.2748 34.5005 34.4015 34.5005 36.5772C34.5037 39.4934 35.6636 42.2894 37.7257 44.3516C39.7878 46.4137 42.5837 47.5738 45.5 47.5772ZM45.5 27.5777C47.28 27.5776 49.0201 28.1053 50.5003 29.0942C51.9804 30.0831 53.134 31.4886 53.8153 33.1332C54.4965 34.7777 54.6748 36.5873 54.3276 38.3332C53.9804 40.079 53.1233 41.6827 51.8646 42.9414C50.606 44.2002 49.0023 45.0574 47.2565 45.4047C45.5106 45.752 43.701 45.5738 42.0565 44.8926C40.4119 44.2114 39.0063 43.0579 38.0173 41.5778C37.0283 40.0978 36.5005 38.3577 36.5005 36.5777C36.5031 34.1916 37.4521 31.904 39.1393 30.2168C40.8264 28.5296 43.1139 27.5804 45.5 27.5777Z" fill="black"/>
<path id="Vector_5" d="M42.1733 40.5439C41.9081 40.5439 41.6538 40.6492 41.4662 40.8368C41.2787 41.0243 41.1733 41.2786 41.1733 41.5439C41.1733 41.8091 41.2787 42.0634 41.4662 42.251C41.6538 42.4385 41.9081 42.5439 42.1733 42.5439H43.1318V43.1992C43.1318 43.4644 43.2372 43.7187 43.4247 43.9063C43.6123 44.0938 43.8666 44.1992 44.1318 44.1992C44.3971 44.1992 44.6514 44.0938 44.8389 43.9063C45.0265 43.7187 45.1318 43.4644 45.1318 43.1992V42.5439H45.8018V43.1992C45.8018 43.4644 45.9072 43.7187 46.0947 43.9063C46.2823 44.0938 46.5366 44.1992 46.8018 44.1992C47.0671 44.1992 47.3214 44.0938 47.5089 43.9063C47.6965 43.7187 47.8018 43.4644 47.8018 43.1992V42.3365C48.4374 42.1282 49.0054 41.7533 49.4469 41.2509C49.8883 40.7485 50.1869 40.1369 50.3116 39.4798C50.4363 38.8228 50.3825 38.1443 50.1559 37.5151C49.9293 36.8858 49.5381 36.3289 49.023 35.9023C49.3533 35.5172 49.5874 35.0591 49.7059 34.5659C49.8244 34.0726 49.824 33.5582 49.7048 33.0651C49.5855 32.572 49.3508 32.1143 49.0199 31.7297C48.6891 31.3451 48.2716 31.0446 47.8018 30.8531V29.9556C47.8018 29.6903 47.6965 29.436 47.5089 29.2485C47.3214 29.0609 47.0671 28.9556 46.8018 28.9556C46.5366 28.9556 46.2823 29.0609 46.0947 29.2485C45.9072 29.436 45.8018 29.6903 45.8018 29.9556V30.6108H45.1318V29.9556C45.1318 29.6903 45.0265 29.436 44.8389 29.2485C44.6514 29.0609 44.3971 28.9556 44.1318 28.9556C43.8666 28.9556 43.6123 29.0609 43.4247 29.2485C43.2372 29.436 43.1318 29.6903 43.1318 29.9556V30.6108H42.1733C41.9081 30.6108 41.6538 30.7161 41.4662 30.9037C41.2787 31.0912 41.1733 31.3455 41.1733 31.6108C41.1733 31.876 41.2787 32.1303 41.4662 32.3179C41.6538 32.5054 41.9081 32.6108 42.1733 32.6108H42.2769V40.5439H42.1733ZM46.5879 32.6108C46.9081 32.6108 47.2152 32.738 47.4416 32.9644C47.668 33.1908 47.7952 33.4979 47.7952 33.8181C47.7952 34.1383 47.668 34.4453 47.4416 34.6718C47.2152 34.8982 46.9081 35.0254 46.5879 35.0254H44.2769V32.6108H46.5879ZM48.377 38.7651C48.3797 38.9977 48.3361 39.2286 48.2489 39.4443C48.1617 39.66 48.0326 39.8562 47.869 40.0217C47.7054 40.1871 47.5107 40.3185 47.296 40.4081C47.0813 40.4977 46.8509 40.5439 46.6182 40.5439H44.2769V37.0254H46.6182C47.0809 37.0269 47.5246 37.21 47.8535 37.5354C48.1825 37.8608 48.3705 38.3024 48.377 38.7651Z" fill="black"/>
<path id="Vector_6" d="M39.0041 37.2206C39.1715 37.2206 39.3352 37.171 39.4744 37.078C39.6136 36.985 39.722 36.8528 39.7861 36.6981C39.8502 36.5434 39.8669 36.3733 39.8342 36.2091C39.8016 36.0449 39.721 35.8941 39.6026 35.7757C39.4842 35.6573 39.3334 35.5767 39.1692 35.5441C39.005 35.5114 38.8348 35.5282 38.6801 35.5923C38.5255 35.6564 38.3933 35.7649 38.3003 35.9041C38.2073 36.0433 38.1577 36.2069 38.1577 36.3743C38.1577 36.5988 38.2469 36.8141 38.4057 36.9728C38.5644 37.1315 38.7797 37.2206 39.0041 37.2206Z" fill="black"/>
<path id="Vector_7" d="M52.5466 37.2206C52.714 37.2206 52.8776 37.171 53.0168 37.078C53.156 36.985 53.2645 36.8528 53.3286 36.6981C53.3926 36.5434 53.4094 36.3733 53.3767 36.2091C53.3441 36.0449 53.2634 35.8941 53.1451 35.7757C53.0267 35.6573 52.8759 35.5767 52.7117 35.5441C52.5475 35.5114 52.3773 35.5282 52.2226 35.5923C52.068 35.6564 51.9358 35.7649 51.8428 35.9041C51.7498 36.0433 51.7002 36.2069 51.7002 36.3743C51.7002 36.5988 51.7894 36.8141 51.9481 36.9728C52.1069 37.1315 52.3221 37.2206 52.5466 37.2206Z" fill="black"/>
</g>
</svg>
