<svg width="65" height="74" viewBox="0 0 65 74" fill="none" xmlns="http://www.w3.org/2000/svg">
<g id="qJZby3.tif">
<g id="Group">
<path id="Vector" d="M64.5 55.7781C64.1193 56.1034 63.7771 56.4918 63.3516 56.7431C62.0522 57.5107 60.705 58.1982 59.4086 58.972C58.6564 59.4206 58.0012 59.4021 57.2614 58.9505C56.2147 58.3108 55.1326 57.7204 54.0382 57.167C53.7792 57.036 53.3368 57.0082 53.0933 57.1408C48.4489 59.6888 43.823 62.2738 39.1848 64.8326C38.7917 65.05 38.656 65.2997 38.6653 65.739C38.693 67.0708 38.6591 68.4042 38.6807 69.736C38.6915 70.4019 38.4187 70.8505 37.8437 71.1649C36.3392 71.988 34.8394 72.8204 33.3457 73.6621C32.8093 73.9642 32.3037 74.0012 31.7503 73.6898C30.2351 72.8328 28.7106 71.9942 27.183 71.1587C26.6065 70.8443 26.3399 70.388 26.3491 69.7252C26.3676 68.418 26.3352 67.1109 26.3645 65.8037C26.3753 65.3382 26.2381 65.0731 25.8158 64.8403C21.2207 62.3062 16.6349 59.7566 12.0599 57.1901C11.6236 56.945 11.2968 56.9404 10.8729 57.1901C9.79239 57.8267 8.67484 58.4002 7.59428 59.0352C6.94842 59.4144 6.36883 59.3959 5.72296 59.0214C4.32795 58.2121 2.91598 57.4321 1.49322 56.6753C0.805737 56.31 0.485115 55.8136 0.50053 55.0198C0.535983 53.2517 0.528276 51.4837 0.503613 49.7156C0.492823 48.9927 0.767201 48.5056 1.40382 48.1649C2.5784 47.5391 3.72678 46.8639 4.90291 46.2427C5.28827 46.0393 5.4455 45.8096 5.4455 45.3533C5.42855 39.3817 5.42855 33.4117 5.4455 27.4401C5.4455 26.9869 5.29444 26.7542 4.90754 26.5492C3.73141 25.928 2.58303 25.2528 1.40844 24.627C0.771825 24.2863 0.494364 23.8023 0.503613 23.0778C0.528276 21.2836 0.528276 19.4893 0.503613 17.6966C0.492823 16.9675 0.791864 16.4974 1.42232 16.1567C2.90828 15.3552 4.38498 14.532 5.85399 13.6996C6.42586 13.3744 6.96229 13.3929 7.52338 13.7089C9.06329 14.5736 10.6017 15.4399 12.1585 16.2739C12.3743 16.3895 12.7489 16.4265 12.9477 16.317C17.2777 13.9401 21.5968 11.5432 25.9021 9.12154C26.1256 8.99668 26.3229 8.61902 26.3322 8.35389C26.3753 7.02208 26.3722 5.68873 26.3445 4.35691C26.3291 3.62781 26.6343 3.16383 27.2616 2.817C28.8663 1.92913 30.4509 1.00426 32.0432 0.0932617C32.3515 0.0932617 32.6583 0.0932617 32.9666 0.0932617C34.5388 0.985761 36.0988 1.90138 37.688 2.76151C38.4063 3.14996 38.7131 3.66943 38.6853 4.48639C38.6406 5.73959 38.6884 6.99433 38.6653 8.24753C38.6576 8.67451 38.7655 8.93964 39.1678 9.16161C43.4669 11.5277 47.7537 13.9185 52.0543 16.28C52.264 16.3941 52.6385 16.3987 52.8497 16.2877C54.3619 15.4846 55.8663 14.6646 57.343 13.7983C58.0722 13.3698 58.7103 13.4021 59.4225 13.8199C60.7234 14.5829 62.0645 15.2735 63.3624 16.0411C63.7848 16.2908 64.1239 16.6854 64.5 17.0153V23.7838C64.1193 24.1091 63.7755 24.4944 63.3532 24.7488C62.2788 25.3931 61.1551 25.9542 60.0868 26.6062C59.8448 26.7542 59.5997 27.1349 59.5997 27.4108C59.572 33.4009 59.572 39.3925 59.5997 45.3842C59.5997 45.657 59.851 46.0346 60.0945 46.1842C61.1643 46.8347 62.2896 47.3927 63.3624 48.037C63.7848 48.2913 64.1223 48.6844 64.4985 49.0143V55.7828L64.5 55.7781ZM7.89487 36.3929C7.89487 39.3663 7.90412 42.3398 7.88408 45.3132C7.88099 45.7526 8.00585 46.01 8.40509 46.2135C9.27138 46.6558 10.1269 47.1229 10.9562 47.63C11.3863 47.8921 11.7007 47.8767 12.1231 47.5992C13.6861 46.5742 15.2553 45.5537 16.8738 44.6211C17.2422 44.4084 17.8835 44.4177 18.2812 44.5918C18.5694 44.7198 18.8376 45.3132 18.7929 45.657C18.7436 46.0423 18.4045 46.4925 18.0638 46.7206C16.49 47.7749 14.8607 48.7461 13.2776 49.7865C13.0526 49.9345 12.8475 50.2906 12.8383 50.5573C12.7921 51.812 12.7921 53.0698 12.8383 54.3246C12.8475 54.5835 13.0711 54.9396 13.2992 55.0675C17.7401 57.5647 22.1918 60.0403 26.6574 62.4912C26.9087 62.6299 27.3588 62.6176 27.6223 62.4865C28.6536 61.9748 29.6355 61.3644 30.659 60.8372C31.1245 60.5967 31.2972 60.3069 31.2895 59.772C31.2555 57.5678 31.2679 55.3635 31.2802 53.1592C31.2848 52.259 31.8798 51.6902 32.6567 51.7904C33.338 51.8767 33.7311 52.3839 33.7342 53.2332C33.7419 55.4375 33.7465 57.6418 33.728 59.846C33.7249 60.273 33.8251 60.5381 34.2352 60.7493C35.3049 61.2996 36.33 61.9362 37.4044 62.4742C37.6634 62.6037 38.1119 62.6068 38.3632 62.468C42.8072 60.0295 47.2311 57.5539 51.6674 55.103C52.0466 54.8934 52.2193 54.6714 52.2054 54.2182C52.1699 53.0405 52.2239 51.8582 52.1715 50.6821C52.1591 50.3923 51.9495 50.007 51.7106 49.8497C50.1306 48.8046 48.5152 47.8135 46.9136 46.7992C46.0704 46.2643 45.8207 45.6061 46.1999 44.9572C46.5961 44.2789 47.3622 44.1772 48.2084 44.7075C49.793 45.6986 51.3638 46.7129 52.9653 47.6794C53.1919 47.8166 53.6097 47.8428 53.844 47.7272C54.8074 47.2524 55.7492 46.7283 56.6617 46.1626C56.8852 46.0239 57.0949 45.6601 57.0949 45.3996C57.1195 39.4018 57.1195 33.4025 57.0918 27.4047C57.0918 27.1288 56.8467 26.7496 56.6047 26.597C55.7399 26.0528 54.8413 25.5534 53.921 25.1079C53.6682 24.9861 53.2258 25.0016 52.9854 25.1465C51.3391 26.1345 49.7298 27.1858 48.0928 28.1893C47.3313 28.6563 46.5945 28.4945 46.2153 27.8471C45.85 27.2228 46.0535 26.5815 46.8026 26.0991C47.7938 25.4609 48.8003 24.849 49.7915 24.2123C50.5869 23.7021 51.6751 23.3383 52.0728 22.6061C52.4736 21.8709 52.1607 20.7579 52.2008 19.813C52.2193 19.3783 52.0852 19.1255 51.6921 18.9082C47.2758 16.4743 42.8657 14.0264 38.4634 11.5647C38.0626 11.3412 37.7574 11.295 37.3427 11.5432C36.3331 12.1489 35.3003 12.7162 34.2552 13.2603C33.8637 13.4638 33.7126 13.7027 33.7234 14.1482C33.7527 15.48 33.7357 16.8134 33.7327 18.1467C33.7296 19.2026 33.3118 19.7591 32.5226 19.773C31.7087 19.7868 31.274 19.2134 31.2725 18.1097C31.271 16.7517 31.291 15.3922 31.254 14.0341C31.2478 13.7906 31.0644 13.453 30.8594 13.3297C29.785 12.6854 28.689 12.0703 27.5699 11.5046C27.3326 11.3844 26.9133 11.4044 26.6744 11.5354C22.1872 14.0018 17.7124 16.4912 13.2483 18.9991C13.0402 19.1163 12.8491 19.4462 12.8337 19.6897C12.7828 20.5067 12.8398 21.3298 12.8044 22.1483C12.7843 22.5938 12.9493 22.8343 13.3223 23.0624C14.8746 24.0089 16.4175 24.9738 17.9359 25.9711C18.2781 26.1962 18.6958 26.56 18.7482 26.9099C18.8099 27.3153 18.6187 27.8779 18.3351 28.1893C17.9297 28.6348 17.3409 28.4976 16.8492 28.1893C15.2214 27.1704 13.6075 26.1284 11.9643 25.1341C11.7439 25 11.3308 24.9892 11.098 25.1033C10.1793 25.5534 9.30992 26.1006 8.39584 26.563C7.98735 26.7696 7.88099 27.0347 7.88253 27.4679C7.89949 30.4413 7.89178 33.4148 7.89178 36.3882L7.89487 36.3929ZM28.8632 6.87564C28.8632 7.80822 28.6058 8.72076 28.9357 9.29726C29.264 9.87068 30.2289 10.0464 30.8316 10.5058C31.9754 11.3782 32.9342 11.1917 34.2013 10.5566C35.7951 9.7597 36.2745 8.79937 36.2745 7.04366C36.2745 5.31107 35.7967 4.38312 34.2321 3.59235C32.9434 2.94032 32.054 2.90641 30.7823 3.60314C29.3071 4.41086 28.2713 5.20009 28.8617 6.87564H28.8632ZM36.0926 66.9783C36.6922 65.1656 35.7627 64.3193 34.2475 63.5085C32.9743 62.8272 32.0941 62.8133 30.7962 63.47C29.207 64.2746 28.7461 65.238 28.7306 66.986C28.7152 68.7433 29.2609 69.6312 30.7885 70.425C32.0725 71.0925 32.9619 71.1017 34.2352 70.4142C35.7288 69.608 36.7215 68.7988 36.0911 66.9768L36.0926 66.9783ZM3.08708 20.3556C2.39806 22.2516 3.49557 23.0408 4.98307 23.8593C6.22702 24.5453 7.0964 24.5067 8.36038 23.8717C9.95116 23.0732 10.4398 22.1144 10.4352 20.3541C10.4306 18.6446 9.95579 17.7367 8.42358 16.9521C7.11489 16.2816 6.19156 16.2292 4.90754 16.9706C3.49865 17.7829 2.39343 18.5228 3.08862 20.3556H3.08708ZM61.9319 20.4142C62.5377 18.5937 61.6052 17.7459 60.0807 16.9475C58.8074 16.28 57.9257 16.2538 56.6309 16.9336C55.0972 17.7382 54.5561 18.6307 54.5746 20.3865C54.5931 22.1083 55.0309 23.064 56.6124 23.8501C57.8964 24.4883 58.7797 24.5607 60.0622 23.8547C61.5404 23.0393 62.5747 22.2516 61.9319 20.4142ZM10.3119 52.6336C10.3119 51.6764 10.5708 50.7592 10.2394 50.1873C9.90646 49.6139 8.92455 49.4582 8.3311 48.9881C7.18426 48.0817 6.22856 48.3191 4.96919 48.9357C3.36763 49.7203 2.89132 50.6821 2.89286 52.4394C2.89286 54.1535 3.38767 55.0475 4.90754 55.8336C6.21314 56.5088 7.13493 56.5581 8.41896 55.8229C9.83093 55.0151 10.9346 54.2799 10.3119 52.6336ZM61.9242 52.4471C62.6148 50.5526 61.5158 49.7742 60.0329 48.9495C58.7812 48.2512 57.9118 48.3191 56.654 48.9357C55.054 49.7187 54.5746 50.679 54.5761 52.4378C54.5761 54.1504 55.0679 55.0475 56.5893 55.8336C57.8933 56.5073 58.8151 56.5628 60.1007 55.8244C61.5111 55.0151 62.6194 54.2829 61.9242 52.4486V52.4471Z" fill="black"/>
<path id="Vector_2" d="M44.8111 35.9337C44.8111 38.0609 44.7926 40.1866 44.8203 42.3138C44.8296 43.0706 44.5352 43.5639 43.8816 43.9246C40.3224 45.8946 36.7817 47.9 33.204 49.836C32.8325 50.038 32.1589 50.0287 31.7843 49.8268C28.2297 47.9 24.7152 45.9007 21.1776 43.9462C20.4963 43.57 20.1849 43.0829 20.1895 42.2906C20.2126 37.9607 20.208 33.6308 20.191 29.3008C20.188 28.6534 20.45 28.2511 20.9988 27.9505C24.4732 26.0376 27.9507 24.1308 31.4051 22.1809C32.1573 21.757 32.7862 21.7246 33.5477 22.1547C37.0237 24.1169 40.5212 26.0407 44.0172 27.9675C44.566 28.2696 44.8265 28.6796 44.8188 29.324C44.7972 31.5267 44.8095 33.731 44.8095 35.9337H44.8111ZM31.2741 46.7269C31.2741 43.1724 31.2833 39.7673 31.2525 36.3607C31.251 36.1418 30.9735 35.8458 30.7484 35.7194C28.2744 34.3229 25.785 32.9525 23.2986 31.5776C23.1167 31.4774 22.9194 31.4034 22.662 31.2862C22.662 34.7899 22.6574 38.1719 22.6743 41.5554C22.6743 41.7419 22.8084 42.0147 22.9626 42.101C25.6801 43.6317 28.4101 45.1392 31.2741 46.7269ZM33.7512 46.6699C34.0579 46.5235 34.2444 46.4464 34.4186 46.3493C36.8603 44.999 39.2912 43.6286 41.7482 42.3076C42.2353 42.0456 42.3633 41.7434 42.3602 41.227C42.3386 38.1518 42.3509 35.0751 42.3479 31.9999C42.3479 31.7841 42.3278 31.5683 42.3109 31.2539C39.49 32.82 36.7632 34.3275 34.0502 35.8597C33.8961 35.946 33.7635 36.222 33.7635 36.4085C33.7466 39.7889 33.7512 43.1708 33.7512 46.6699ZM24.0585 29.0881C24.1772 29.1883 24.2451 29.2654 24.3298 29.3132C26.9195 30.7544 29.5045 32.2065 32.1142 33.6123C32.3593 33.7448 32.814 33.6971 33.076 33.5552C35.547 32.2157 37.9994 30.8392 40.4534 29.4704C40.623 29.3764 40.7771 29.2531 40.9945 29.1066C38.2229 27.5636 35.5269 26.0545 32.8171 24.567C32.6552 24.4792 32.3608 24.4823 32.1974 24.5717C29.4906 26.0576 26.7962 27.5636 24.0585 29.0881Z" fill="black"/>
</g>
</g>
</svg>
