<svg width="43" height="43" viewBox="0 0 43 43" fill="none" xmlns="http://www.w3.org/2000/svg">
<rect x="0.5" y="0.5" width="42" height="42" rx="15.5" stroke="url(#paint0_linear_281_139)"/>
<path d="M21.5 10C23.025 10 24.4875 10.6058 25.5659 11.6841C26.6442 12.7625 27.25 14.225 27.25 15.75C27.25 17.275 26.6442 18.7375 25.5659 19.8159C24.4875 20.8942 23.025 21.5 21.5 21.5C19.975 21.5 18.5125 20.8942 17.4341 19.8159C16.3558 18.7375 15.75 17.275 15.75 15.75C15.75 14.225 16.3558 12.7625 17.4341 11.6841C18.5125 10.6058 19.975 10 21.5 10ZM21.5 33C21.5 33 33 33 33 30.125C33 26.675 27.3937 22.9375 21.5 22.9375C15.6063 22.9375 10 26.675 10 30.125C10 33 21.5 33 21.5 33Z" fill="url(#paint1_linear_281_139)"/>
<defs>
<linearGradient id="paint0_linear_281_139" x1="21.5" y1="0" x2="21.5" y2="43" gradientUnits="userSpaceOnUse">
<stop stop-color="#00FFE5"/>
<stop offset="1" stop-color="#FF30F7"/>
</linearGradient>
<linearGradient id="paint1_linear_281_139" x1="21.5" y1="10" x2="21.5" y2="33" gradientUnits="userSpaceOnUse">
<stop stop-color="#00FFE5"/>
<stop offset="1" stop-color="#FF30F7"/>
</linearGradient>
</defs>
</svg>
