<svg width="32" height="32" viewBox="0 0 32 32" fill="none" xmlns="http://www.w3.org/2000/svg">
<path fill-rule="evenodd" clip-rule="evenodd" d="M16.0003 30.2222C23.8551 30.2222 30.2226 23.8547 30.2226 16C30.2226 8.14524 23.8551 1.77773 16.0003 1.77773C8.14563 1.77773 1.77813 8.14524 1.77813 16C1.77813 23.8547 8.14563 30.2222 16.0003 30.2222ZM16 32C7.16344 32 0 24.8366 0 16C0 7.16344 7.16344 0 16 0C24.8366 0 32 7.16344 32 16C32 24.8366 24.8366 32 16 32ZM16 25.6C21.3019 25.6 25.6 21.3019 25.6 16C25.6 10.6981 21.3019 6.4 16 6.4C10.6981 6.4 6.4 10.6981 6.4 16C6.4 21.3019 10.6981 25.6 16 25.6Z" fill="url(#paint0_linear_118_4241)"/>
<defs>
<linearGradient id="paint0_linear_118_4241" x1="16" y1="0" x2="16" y2="32" gradientUnits="userSpaceOnUse">
<stop stop-color="#E789FF"/>
<stop offset="1" stop-color="#9299FF"/>
</linearGradient>
</defs>
</svg>
